CourierPrime.ufo
<glyph name="quotedbl" format="1">
  <advance width="1228"/>
  <unicode hex="0022"/>
  <outline>
    <contour>
      <point x="302" y="1269" type="line" smooth="yes"/>
      <point x="272" y="1269"/>
      <point x="257" y="1254"/>
      <point x="261" y="1219" type="curve" smooth="yes"/>
      <point x="316" y="769" type="line" smooth="yes"/>
      <point x="320" y="735"/>
      <point x="345" y="715"/>
      <point x="384" y="715" type="curve" smooth="yes"/>
      <point x="424" y="715"/>
      <point x="448" y="735"/>
      <point x="452" y="769" type="curve" smooth="yes"/>
      <point x="507" y="1219" type="line" smooth="yes"/>
      <point x="511" y="1254"/>
      <point x="496" y="1269"/>
      <point x="466" y="1269" type="curve" smooth="yes"/>
    </contour>
    <contour>
      <point x="762" y="1269" type="line" smooth="yes"/>
      <point x="732" y="1269"/>
      <point x="717" y="1254"/>
      <point x="721" y="1219" type="curve" smooth="yes"/>
      <point x="776" y="769" type="line" smooth="yes"/>
      <point x="780" y="735"/>
      <point x="805" y="715"/>
      <point x="844" y="715" type="curve" smooth="yes"/>
      <point x="884" y="715"/>
      <point x="908" y="735"/>
      <point x="912" y="769" type="curve" smooth="yes"/>
      <point x="967" y="1219" type="line" smooth="yes"/>
      <point x="971" y="1254"/>
      <point x="956" y="1269"/>
      <point x="926" y="1269" type="curve" smooth="yes"/>
    </contour>
  </outline>
</glyph>
<glyph name="numbersign" format="1">
  <advance width="1228"/>
  <unicode hex="0023"/>
  <outline>
    <contour>
      <point x="203" y="861" type="line" smooth="yes"/>
      <point x="158" y="861"/>
      <point x="140" y="843"/>
      <point x="140" y="793" type="curve" smooth="yes"/>
      <point x="140" y="743"/>
      <point x="158" y="725"/>
      <point x="203" y="725" type="curve" smooth="yes"/>
      <point x="410" y="725" type="line"/>
      <point x="331" y="472" type="line"/>
      <point x="103" y="472" type="line" smooth="yes"/>
      <point x="58" y="472"/>
      <point x="40" y="454"/>
      <point x="40" y="404" type="curve" smooth="yes"/>
      <point x="40" y="354"/>
      <point x="58" y="336"/>
      <point x="103" y="336" type="curve" smooth="yes"/>
      <point x="289" y="336" type="line"/>
      <point x="198" y="45" type="line" smooth="yes"/>
      <point x="185" y="4"/>
      <point x="229" y="-22"/>
      <point x="268" y="-22" type="curve" smooth="yes"/>
      <point x="292" y="-22"/>
      <point x="315" y="-12"/>
      <point x="322" y="11" type="curve" smooth="yes"/>
      <point x="423" y="336" type="line"/>
      <point x="643" y="336" type="line"/>
      <point x="552" y="45" type="line" smooth="yes"/>
      <point x="539" y="4"/>
      <point x="583" y="-22"/>
      <point x="622" y="-22" type="curve" smooth="yes"/>
      <point x="646" y="-22"/>
      <point x="669" y="-12"/>
      <point x="676" y="11" type="curve" smooth="yes"/>
      <point x="777" y="336" type="line"/>
      <point x="1025" y="336" type="line" smooth="yes"/>
      <point x="1070" y="336"/>
      <point x="1088" y="354"/>
      <point x="1088" y="404" type="curve" smooth="yes"/>
      <point x="1088" y="454"/>
      <point x="1070" y="472"/>
      <point x="1025" y="472" type="curve" smooth="yes"/>
      <point x="820" y="472" type="line"/>
      <point x="899" y="725" type="line"/>
      <point x="1125" y="725" type="line" smooth="yes"/>
      <point x="1170" y="725"/>
      <point x="1188" y="743"/>
      <point x="1188" y="793" type="curve" smooth="yes"/>
      <point x="1188" y="843"/>
      <point x="1170" y="861"/>
      <point x="1125" y="861" type="curve" smooth="yes"/>
      <point x="942" y="861" type="line"/>
      <point x="1030" y="1142" type="line" smooth="yes"/>
      <point x="1043" y="1183"/>
      <point x="999" y="1209"/>
      <point x="960" y="1209" type="curve" smooth="yes"/>
      <point x="936" y="1209"/>
      <point x="913" y="1199"/>
      <point x="906" y="1176" type="curve" smooth="yes"/>
      <point x="807" y="861" type="line"/>
      <point x="588" y="861" type="line"/>
      <point x="676" y="1142" type="line" smooth="yes"/>
      <point x="689" y="1183"/>
      <point x="645" y="1209"/>
      <point x="606" y="1209" type="curve" smooth="yes"/>
      <point x="582" y="1209"/>
      <point x="559" y="1199"/>
      <point x="552" y="1176" type="curve" smooth="yes"/>
      <point x="453" y="861" type="line"/>
    </contour>
    <contour>
      <point x="545" y="725" type="line"/>
      <point x="764" y="725" type="line"/>
      <point x="685" y="472" type="line"/>
      <point x="466" y="472" type="line"/>
    </contour>
  </outline>
</glyph>
<glyph name="quotesingle" format="1">
  <advance width="1228"/>
  <unicode hex="0027"/>
  <outline>
    <contour>
      <point x="532" y="1269" type="line" smooth="yes"/>
      <point x="502" y="1269"/>
      <point x="487" y="1254"/>
      <point x="491" y="1219" type="curve" smooth="yes"/>
      <point x="546" y="769" type="line" smooth="yes"/>
      <point x="550" y="735"/>
      <point x="575" y="715"/>
      <point x="614" y="715" type="curve" smooth="yes"/>
      <point x="654" y="715"/>
      <point x="678" y="735"/>
      <point x="682" y="769" type="curve" smooth="yes"/>
      <point x="737" y="1219" type="line" smooth="yes"/>
      <point x="741" y="1254"/>
      <point x="726" y="1269"/>
      <point x="696" y="1269" type="curve" smooth="yes"/>
    </contour>
  </outline>
</glyph>
<glyph name="parenleft" format="1">
  <advance width="1228"/>
  <unicode hex="0028"/>
  <outline>
    <contour>
      <point x="547" y="-203"/>
      <point x="297" y="94"/>
      <point x="297" y="517" type="curve" smooth="yes"/>
      <point x="297" y="940"/>
      <point x="547" y="1241"/>
      <point x="771" y="1375" type="curve" smooth="yes"/>
      <point x="800" y="1392"/>
      <point x="830" y="1371"/>
      <point x="848" y="1341" type="curve" smooth="yes"/>
      <point x="866" y="1311"/>
      <point x="873" y="1272"/>
      <point x="852" y="1258" type="curve" smooth="yes"/>
      <point x="654" y="1128"/>
      <point x="445" y="888"/>
      <point x="445" y="517" type="curve" smooth="yes"/>
      <point x="445" y="146"/>
      <point x="654" y="-90"/>
      <point x="852" y="-220" type="curve" smooth="yes"/>
      <point x="873" y="-234"/>
      <point x="866" y="-273"/>
      <point x="848" y="-303" type="curve" smooth="yes"/>
      <point x="830" y="-333"/>
      <point x="800" y="-354"/>
      <point x="771" y="-337" type="curve" smooth="yes"/>
    </contour>
  </outline>
</glyph>
<glyph name="parenright" format="1">
  <advance width="1228"/>
  <unicode hex="0029"/>
  <outline>
    <contour>
      <point x="428" y="1392"/>
      <point x="398" y="1371"/>
      <point x="380" y="1341" type="curve" smooth="yes"/>
      <point x="362" y="1311"/>
      <point x="355" y="1272"/>
      <point x="376" y="1258" type="curve" smooth="yes"/>
      <point x="574" y="1128"/>
      <point x="783" y="888"/>
      <point x="783" y="517" type="curve" smooth="yes"/>
      <point x="783" y="146"/>
      <point x="574" y="-90"/>
      <point x="376" y="-220" type="curve" smooth="yes"/>
      <point x="355" y="-234"/>
      <point x="362" y="-273"/>
      <point x="380" y="-303" type="curve" smooth="yes"/>
      <point x="398" y="-333"/>
      <point x="428" y="-354"/>
      <point x="457" y="-337" type="curve" smooth="yes"/>
      <point x="681" y="-203"/>
      <point x="931" y="94"/>
      <point x="931" y="517" type="curve" smooth="yes"/>
      <point x="931" y="940"/>
      <point x="681" y="1241"/>
      <point x="457" y="1375" type="curve" smooth="yes"/>
    </contour>
  </outline>
</glyph>
<glyph name="asterisk" format="1">
  <advance width="1228"/>
  <unicode hex="002A"/>
  <outline>
    <contour>
      <point x="821" y="378"/>
      <point x="775" y="392"/>
      <point x="749" y="440" type="curve" smooth="yes"/>
      <point x="614" y="685" type="line"/>
      <point x="479" y="440" type="line" smooth="yes"/>
      <point x="453" y="392"/>
      <point x="407" y="378"/>
      <point x="356" y="415" type="curve" smooth="yes"/>
      <point x="306" y="451"/>
      <point x="301" y="496"/>
      <point x="339" y="536" type="curve" smooth="yes"/>
      <point x="533" y="744" type="line"/>
      <point x="257" y="797" type="line" smooth="yes"/>
      <point x="203" y="807"/>
      <point x="178" y="847"/>
      <point x="197" y="906" type="curve" smooth="yes"/>
      <point x="216" y="965"/>
      <point x="258" y="983"/>
      <point x="308" y="960" type="curve" smooth="yes"/>
      <point x="564" y="839" type="line"/>
      <point x="528" y="1119" type="line" smooth="yes"/>
      <point x="521" y="1174"/>
      <point x="552" y="1209"/>
      <point x="614" y="1209" type="curve" smooth="yes"/>
      <point x="676" y="1209"/>
      <point x="707" y="1174"/>
      <point x="700" y="1119" type="curve" smooth="yes"/>
      <point x="664" y="839" type="line"/>
      <point x="920" y="960" type="line" smooth="yes"/>
      <point x="970" y="983"/>
      <point x="1012" y="965"/>
      <point x="1031" y="906" type="curve" smooth="yes"/>
      <point x="1050" y="847"/>
      <point x="1025" y="807"/>
      <point x="971" y="797" type="curve" smooth="yes"/>
      <point x="693" y="744" type="line"/>
      <point x="889" y="536" type="line" smooth="yes"/>
      <point x="927" y="496"/>
      <point x="922" y="451"/>
      <point x="872" y="415" type="curve" smooth="yes"/>
    </contour>
  </outline>
</glyph>
<glyph name="comma" format="1">
  <advance width="1228"/>
  <unicode hex="002C"/>
  <outline>
    <contour>
      <point x="752" y="231" type="line" smooth="yes"/>
      <point x="770" y="266"/>
      <point x="757" y="294"/>
      <point x="724" y="294" type="curve" smooth="yes"/>
      <point x="530" y="294" type="line" smooth="yes"/>
      <point x="502" y="294"/>
      <point x="484" y="280"/>
      <point x="478" y="254" type="curve" smooth="yes"/>
      <point x="374" y="-228" type="line" smooth="yes"/>
      <point x="365" y="-270"/>
      <point x="398" y="-294"/>
      <point x="434" y="-294" type="curve" smooth="yes"/>
      <point x="460" y="-294"/>
      <point x="486" y="-281"/>
      <point x="500" y="-253" type="curve" smooth="yes"/>
    </contour>
  </outline>
</glyph>
<glyph name="hyphen" format="1">
  <advance width="1228"/>
  <unicode hex="002D"/>
  <outline>
    <contour>
      <point x="233" y="650" type="line" smooth="yes"/>
      <point x="188" y="650"/>
      <point x="170" y="632"/>
      <point x="170" y="582" type="curve" smooth="yes"/>
      <point x="170" y="532"/>
      <point x="188" y="514"/>
      <point x="233" y="514" type="curve" smooth="yes"/>
      <point x="995" y="514" type="line" smooth="yes"/>
      <point x="1040" y="514"/>
      <point x="1058" y="532"/>
      <point x="1058" y="582" type="curve" smooth="yes"/>
      <point x="1058" y="632"/>
      <point x="1040" y="650"/>
      <point x="995" y="650" type="curve" smooth="yes"/>
    </contour>
  </outline>
</glyph>
<glyph name="zero" format="1">
  <advance width="1228"/>
  <unicode hex="0030"/>
  <outline>
    <contour>
      <point x="354" y="1209"/>
      <point x="188" y="963"/>
      <point x="188" y="593" type="curve" smooth="yes"/>
      <point x="188" y="223"/>
      <point x="354" y="-22"/>
      <point x="614" y="-22" type="curve" smooth="yes"/>
      <point x="874" y="-22"/>
      <point x="1040" y="223"/>
      <point x="1040" y="593" type="curve" smooth="yes"/>
      <point x="1040" y="963"/>
      <point x="874" y="1209"/>
      <point x="614" y="1209" type="curve" smooth="yes"/>
    </contour>
    <contour>
      <point x="771" y="1061"/>
      <point x="882" y="891"/>
      <point x="882" y="593" type="curve" smooth="yes"/>
      <point x="882" y="295"/>
      <point x="771" y="126"/>
      <point x="614" y="126" type="curve" smooth="yes"/>
      <point x="457" y="126"/>
      <point x="346" y="295"/>
      <point x="346" y="593" type="curve" smooth="yes"/>
      <point x="346" y="891"/>
      <point x="457" y="1061"/>
      <point x="614" y="1061" type="curve" smooth="yes"/>
    </contour>
  </outline>
</glyph>
<glyph name="one" format="1">
  <advance width="1228"/>
  <unicode hex="0031"/>
  <outline>
    <contour>
      <point x="300" y="136" type="line" smooth="yes"/>
      <point x="255" y="136"/>
      <point x="237" y="118"/>
      <point x="237" y="68" type="curve" smooth="yes"/>
      <point x="237" y="18"/>
      <point x="255" y="0"/>
      <point x="300" y="0" type="curve" smooth="yes"/>
      <point x="974" y="0" type="line" smooth="yes"/>
      <point x="1019" y="0"/>
      <point x="1037" y="18"/>
      <point x="1037" y="68" type="curve" smooth="yes"/>
      <point x="1037" y="118"/>
      <point x="1019" y="136"/>
      <point x="974" y="136" type="curve" smooth="yes"/>
      <point x="719" y="136" type="line"/>
      <point x="719" y="1146" type="line" smooth="yes"/>
      <point x="719" y="1197"/>
      <point x="685" y="1223"/>
      <point x="643" y="1208" type="curve" smooth="yes"/>
      <point x="278" y="1077" type="line" smooth="yes"/>
      <point x="246" y="1066"/>
      <point x="232" y="1039"/>
      <point x="248" y="990" type="curve" smooth="yes"/>
      <point x="264" y="941"/>
      <point x="292" y="931"/>
      <point x="321" y="942" type="curve" smooth="yes"/>
      <point x="569" y="1032" type="line"/>
      <point x="569" y="136" type="line"/>
    </contour>
  </outline>
</glyph>
<glyph name="two" format="1">
  <advance width="1228"/>
  <unicode hex="0032"/>
  <outline>
    <contour>
      <point x="457" y="1209"/>
      <point x="342" y="1166"/>
      <point x="247" y="1097" type="curve" smooth="yes"/>
      <point x="231" y="1086"/>
      <point x="224" y="1069"/>
      <point x="224" y="1042" type="curve" smooth="yes"/>
      <point x="224" y="895" type="line" smooth="yes"/>
      <point x="224" y="849"/>
      <point x="243" y="830"/>
      <point x="299" y="830" type="curve" smooth="yes"/>
      <point x="355" y="830"/>
      <point x="374" y="849"/>
      <point x="374" y="895" type="curve" smooth="yes"/>
      <point x="374" y="1005" type="line"/>
      <point x="431" y="1038"/>
      <point x="500" y="1061"/>
      <point x="581" y="1061" type="curve" smooth="yes"/>
      <point x="729" y="1061"/>
      <point x="809" y="981"/>
      <point x="809" y="859" type="curve" smooth="yes"/>
      <point x="809" y="759"/>
      <point x="759" y="687"/>
      <point x="642" y="568" type="curve" smooth="yes"/>
      <point x="202" y="122" type="line" smooth="yes"/>
      <point x="192" y="111"/>
      <point x="187" y="94"/>
      <point x="187" y="68" type="curve" smooth="yes"/>
      <point x="187" y="18"/>
      <point x="205" y="0"/>
      <point x="250" y="0" type="curve" smooth="yes"/>
      <point x="944" y="0" type="line" smooth="yes"/>
      <point x="989" y="0"/>
      <point x="1007" y="18"/>
      <point x="1007" y="68" type="curve" smooth="yes"/>
      <point x="1007" y="262" type="line" smooth="yes"/>
      <point x="1007" y="308"/>
      <point x="988" y="327"/>
      <point x="932" y="327" type="curve" smooth="yes"/>
      <point x="876" y="327"/>
      <point x="857" y="308"/>
      <point x="857" y="262" type="curve" smooth="yes"/>
      <point x="857" y="136" type="line"/>
      <point x="423" y="136" type="line"/>
      <point x="759" y="477" type="line" smooth="yes"/>
      <point x="888" y="608"/>
      <point x="967" y="714"/>
      <point x="967" y="859" type="curve" smooth="yes"/>
      <point x="967" y="1080"/>
      <point x="813" y="1209"/>
      <point x="580" y="1209" type="curve" smooth="yes"/>
    </contour>
  </outline>
</glyph>
<glyph name="three" format="1">
  <advance width="1228"/>
  <unicode hex="0033"/>
  <outline>
    <contour>
      <point x="467" y="1209"/>
      <point x="362" y="1177"/>
      <point x="271" y="1121" type="curve" smooth="yes"/>
      <point x="252" y="1109"/>
      <point x="244" y="1093"/>
      <point x="244" y="1064" type="curve" smooth="yes"/>
      <point x="244" y="955" type="line" smooth="yes"/>
      <point x="244" y="909"/>
      <point x="263" y="890"/>
      <point x="319" y="890" type="curve" smooth="yes"/>
      <point x="375" y="890"/>
      <point x="394" y="909"/>
      <point x="394" y="955" type="curve" smooth="yes"/>
      <point x="394" y="1022" type="line"/>
      <point x="448" y="1048"/>
      <point x="512" y="1061"/>
      <point x="591" y="1061" type="curve" smooth="yes"/>
      <point x="736" y="1061"/>
      <point x="817" y="991"/>
      <point x="817" y="879" type="curve" smooth="yes"/>
      <point x="817" y="757"/>
      <point x="738" y="691"/>
      <point x="585" y="691" type="curve" smooth="yes"/>
      <point x="530" y="691" type="line" smooth="yes"/>
      <point x="485" y="691"/>
      <point x="467" y="673"/>
      <point x="467" y="623" type="curve" smooth="yes"/>
      <point x="467" y="573"/>
      <point x="485" y="555"/>
      <point x="530" y="555" type="curve" smooth="yes"/>
      <point x="603" y="555" type="line" smooth="yes"/>
      <point x="758" y="555"/>
      <point x="852" y="484"/>
      <point x="852" y="345" type="curve" smooth="yes"/>
      <point x="852" y="213"/>
      <point x="767" y="126"/>
      <point x="598" y="126" type="curve" smooth="yes"/>
      <point x="492" y="126"/>
      <point x="385" y="168"/>
      <point x="300" y="232" type="curve" smooth="yes"/>
      <point x="271" y="254"/>
      <point x="237" y="249"/>
      <point x="208" y="203" type="curve" smooth="yes"/>
      <point x="180" y="157"/>
      <point x="189" y="127"/>
      <point x="221" y="104" type="curve" smooth="yes"/>
      <point x="325" y="28"/>
      <point x="465" y="-22"/>
      <point x="598" y="-22" type="curve" smooth="yes"/>
      <point x="860" y="-22"/>
      <point x="1010" y="128"/>
      <point x="1010" y="345" type="curve" smooth="yes"/>
      <point x="1010" y="484"/>
      <point x="936" y="582"/>
      <point x="818" y="631" type="curve"/>
      <point x="911" y="679"/>
      <point x="971" y="760"/>
      <point x="971" y="879" type="curve" smooth="yes"/>
      <point x="971" y="1080"/>
      <point x="821" y="1209"/>
      <point x="590" y="1209" type="curve" smooth="yes"/>
    </contour>
  </outline>
</glyph>
<glyph name="colon" format="1">
  <advance width="1228"/>
  <unicode hex="003A"/>
  <outline>
    <contour>
      <point x="521" y="946"/>
      <point x="445" y="870"/>
      <point x="445" y="777" type="curve" smooth="yes"/>
      <point x="445" y="684"/>
      <point x="521" y="608"/>
      <point x="614" y="608" type="curve" smooth="yes"/>
      <point x="707" y="608"/>
      <point x="783" y="684"/>
      <point x="783" y="777" type="curve" smooth="yes"/>
      <point x="783" y="870"/>
      <point x="707" y="946"/>
      <point x="614" y="946" type="curve" smooth="yes"/>
    </contour>
    <contour>
      <point x="521" y="316"/>
      <point x="445" y="240"/>
      <point x="445" y="147" type="curve" smooth="yes"/>
      <point x="445" y="54"/>
      <point x="521" y="-22"/>
      <point x="614" y="-22" type="curve" smooth="yes"/>
      <point x="707" y="-22"/>
      <point x="783" y="54"/>
      <point x="783" y="147" type="curve" smooth="yes"/>
      <point x="783" y="240"/>
      <point x="707" y="316"/>
      <point x="614" y="316" type="curve" smooth="yes"/>
    </contour>
  </outline>
</glyph>
<glyph name="at" format="1">
  <advance width="1228"/>
  <unicode hex="0040"/>
  <outline>
    <contour>
      <point x="309" y="1078"/>
      <point x="50" y="781"/>
      <point x="50" y="389" type="curve" smooth="yes"/>
      <point x="50" y="54"/>
      <point x="242" y="-153"/>
      <point x="562" y="-153" type="curve" smooth="yes"/>
      <point x="672" y="-153"/>
      <point x="778" y="-132"/>
      <point x="848" y="-101" type="curve" smooth="yes"/>
      <point x="869" y="-92"/>
      <point x="878" y="-72"/>
      <point x="867" y="-36" type="curve" smooth="yes"/>
      <point x="856" y="0"/>
      <point x="838" y="14"/>
      <point x="815" y="7" type="curve" smooth="yes"/>
      <point x="748" y="-14"/>
      <point x="656" y="-30"/>
      <point x="560" y="-30" type="curve" smooth="yes"/>
      <point x="311" y="-30"/>
      <point x="173" y="133"/>
      <point x="173" y="389" type="curve" smooth="yes"/>
      <point x="173" y="710"/>
      <point x="378" y="955"/>
      <point x="655" y="955" type="curve" smooth="yes"/>
      <point x="898" y="955"/>
      <point x="1049" y="792"/>
      <point x="1049" y="531" type="curve" smooth="yes"/>
      <point x="1049" y="372"/>
      <point x="989" y="263"/>
      <point x="888" y="263" type="curve" smooth="yes"/>
      <point x="828" y="263"/>
      <point x="798" y="318"/>
      <point x="820" y="404" type="curve" smooth="yes"/>
      <point x="897" y="706" type="line" smooth="yes"/>
      <point x="902" y="726"/>
      <point x="882" y="743"/>
      <point x="858" y="752" type="curve" smooth="yes"/>
      <point x="834" y="761"/>
      <point x="806" y="762"/>
      <point x="799" y="748" type="curve" smooth="yes"/>
      <point x="768" y="685" type="line"/>
      <point x="743" y="744"/>
      <point x="704" y="785"/>
      <point x="640" y="785" type="curve" smooth="yes"/>
      <point x="460" y="785"/>
      <point x="323" y="536"/>
      <point x="323" y="357" type="curve" smooth="yes"/>
      <point x="323" y="214"/>
      <point x="401" y="132"/>
      <point x="499" y="132" type="curve" smooth="yes"/>
      <point x="589" y="132"/>
      <point x="647" y="187"/>
      <point x="708" y="266" type="curve"/>
      <point x="739" y="182"/>
      <point x="802" y="137"/>
      <point x="889" y="137" type="curve" smooth="yes"/>
      <point x="1057" y="137"/>
      <point x="1170" y="296"/>
      <point x="1170" y="531" type="curve" smooth="yes"/>
      <point x="1170" y="852"/>
      <point x="970" y="1078"/>
      <point x="660" y="1078" type="curve" smooth="yes"/>
    </contour>
    <contour>
      <point x="683" y="658"/>
      <point x="712" y="623"/>
      <point x="712" y="561" type="curve" smooth="yes"/>
      <point x="712" y="430"/>
      <point x="627" y="266"/>
      <point x="524" y="266" type="curve" smooth="yes"/>
      <point x="486" y="266"/>
      <point x="458" y="294"/>
      <point x="458" y="359" type="curve" smooth="yes"/>
      <point x="458" y="508"/>
      <point x="563" y="658"/>
      <point x="636" y="658" type="curve" smooth="yes"/>
    </contour>
  </outline>
</glyph>
<glyph name="A" format="1">
  <advance width="1228"/>
  <unicode hex="0041"/>
  <outline>
    <contour>
      <point x="273" y="1187" type="line" smooth="yes"/>
      <point x="228" y="1187"/>
      <point x="210" y="1169"/>
      <point x="210" y="1119" type="curve" smooth="yes"/>
      <point x="210" y="1069"/>
      <point x="228" y="1051"/>
      <point x="273" y="1051" type="curve" smooth="yes"/>
      <point x="460" y="1051" type="line"/>
      <point x="129" y="136" type="line"/>
      <point x="73" y="136" type="line" smooth="yes"/>
      <point x="28" y="136"/>
      <point x="10" y="118"/>
      <point x="10" y="68" type="curve" smooth="yes"/>
      <point x="10" y="18"/>
      <point x="28" y="0"/>
      <point x="73" y="0" type="curve" smooth="yes"/>
      <point x="407" y="0" type="line" smooth="yes"/>
      <point x="452" y="0"/>
      <point x="470" y="18"/>
      <point x="470" y="68" type="curve" smooth="yes"/>
      <point x="470" y="118"/>
      <point x="452" y="136"/>
      <point x="407" y="136" type="curve" smooth="yes"/>
      <point x="286" y="136" type="line"/>
      <point x="369" y="374" type="line"/>
      <point x="854" y="374" type="line"/>
      <point x="936" y="136" type="line"/>
      <point x="801" y="136" type="line" smooth="yes"/>
      <point x="756" y="136"/>
      <point x="738" y="118"/>
      <point x="738" y="68" type="curve" smooth="yes"/>
      <point x="738" y="18"/>
      <point x="756" y="0"/>
      <point x="801" y="0" type="curve" smooth="yes"/>
      <point x="1155" y="0" type="line" smooth="yes"/>
      <point x="1200" y="0"/>
      <point x="1218" y="18"/>
      <point x="1218" y="68" type="curve" smooth="yes"/>
      <point x="1218" y="118"/>
      <point x="1200" y="136"/>
      <point x="1155" y="136" type="curve" smooth="yes"/>
      <point x="1094" y="136" type="line"/>
      <point x="741" y="1122" type="line" smooth="yes"/>
      <point x="725" y="1168"/>
      <point x="693" y="1187"/>
      <point x="640" y="1187" type="curve" smooth="yes"/>
    </contour>
    <contour>
      <point x="808" y="510" type="line"/>
      <point x="416" y="510" type="line"/>
      <point x="603" y="1051" type="line"/>
      <point x="622" y="1051" type="line"/>
    </contour>
  </outline>
</glyph>
<glyph name="E" format="1">
  <advance width="1228"/>
  <unicode hex="0045"/>
  <outline>
    <contour>
      <point x="143" y="1187" type="line" smooth="yes"/>
      <point x="98" y="1187"/>
      <point x="80" y="1169"/>
      <point x="80" y="1119" type="curve" smooth="yes"/>
      <point x="80" y="1069"/>
      <point x="98" y="1051"/>
      <point x="143" y="1051" type="curve" smooth="yes"/>
      <point x="245" y="1051" type="line"/>
      <point x="245" y="136" type="line"/>
      <point x="143" y="136" type="line" smooth="yes"/>
      <point x="98" y="136"/>
      <point x="80" y="118"/>
      <point x="80" y="68" type="curve" smooth="yes"/>
      <point x="80" y="18"/>
      <point x="98" y="0"/>
      <point x="143" y="0" type="curve" smooth="yes"/>
      <point x="1037" y="0" type="line" smooth="yes"/>
      <point x="1082" y="0"/>
      <point x="1100" y="18"/>
      <point x="1100" y="68" type="curve" smooth="yes"/>
      <point x="1100" y="365" type="line" smooth="yes"/>
      <point x="1100" y="411"/>
      <point x="1081" y="430"/>
      <point x="1025" y="430" type="curve" smooth="yes"/>
      <point x="969" y="430"/>
      <point x="950" y="411"/>
      <point x="950" y="365" type="curve" smooth="yes"/>
      <point x="950" y="136" type="line"/>
      <point x="395" y="136" type="line"/>
      <point x="395" y="544" type="line"/>
      <point x="721" y="544" type="line"/>
      <point x="721" y="680" type="line"/>
      <point x="395" y="680" type="line"/>
      <point x="395" y="1051" type="line"/>
      <point x="930" y="1051" type="line"/>
      <point x="930" y="865" type="line" smooth="yes"/>
      <point x="930" y="819"/>
      <point x="949" y="800"/>
      <point x="1005" y="800" type="curve" smooth="yes"/>
      <point x="1061" y="800"/>
      <point x="1080" y="819"/>
      <point x="1080" y="865" type="curve" smooth="yes"/>
      <point x="1080" y="1119" type="line" smooth="yes"/>
      <point x="1080" y="1169"/>
      <point x="1062" y="1187"/>
      <point x="1017" y="1187" type="curve" smooth="yes"/>
    </contour>
    <contour>
      <point x="664" y="836"/>
      <point x="645" y="817"/>
      <point x="645" y="771" type="curve" smooth="yes"/>
      <point x="645" y="453" type="line" smooth="yes"/>
      <point x="645" y="407"/>
      <point x="664" y="388"/>
      <point x="720" y="388" type="curve" smooth="yes"/>
      <point x="776" y="388"/>
      <point x="795" y="407"/>
      <point x="795" y="453" type="curve" smooth="yes"/>
      <point x="795" y="771" type="line" smooth="yes"/>
      <point x="795" y="817"/>
      <point x="776" y="836"/>
      <point x="720" y="836" type="curve" smooth="yes"/>
    </contour>
  </outline>
</glyph>
<glyph name="F" format="1">
  <advance width="1228"/>
  <unicode hex="0046"/>
  <outline>
    <contour>
      <point x="143" y="1187" type="line" smooth="yes"/>
      <point x="98" y="1187"/>
      <point x="80" y="1169"/>
      <point x="80" y="1119" type="curve" smooth="yes"/>
      <point x="80" y="1069"/>
      <point x="98" y="1051"/>
      <point x="143" y="1051" type="curve" smooth="yes"/>
      <point x="275" y="1051" type="line"/>
      <point x="275" y="136" type="line"/>
      <point x="143" y="136" type="line" smooth="yes"/>
      <point x="98" y="136"/>
      <point x="80" y="118"/>
      <point x="80" y="68" type="curve" smooth="yes"/>
      <point x="80" y="18"/>
      <point x="98" y="0"/>
      <point x="143" y="0" type="curve" smooth="yes"/>
      <point x="657" y="0" type="line" smooth="yes"/>
      <point x="702" y="0"/>
      <point x="720" y="18"/>
      <point x="720" y="68" type="curve" smooth="yes"/>
      <point x="720" y="118"/>
      <point x="702" y="136"/>
      <point x="657" y="136" type="curve" smooth="yes"/>
      <point x="425" y="136" type="line"/>
      <point x="425" y="524" type="line"/>
      <point x="751" y="524" type="line"/>
      <point x="751" y="660" type="line"/>
      <point x="425" y="660" type="line"/>
      <point x="425" y="1051" type="line"/>
      <point x="960" y="1051" type="line"/>
      <point x="960" y="855" type="line" smooth="yes"/>
      <point x="960" y="809"/>
      <point x="979" y="790"/>
      <point x="1035" y="790" type="curve" smooth="yes"/>
      <point x="1091" y="790"/>
      <point x="1110" y="809"/>
      <point x="1110" y="855" type="curve" smooth="yes"/>
      <point x="1110" y="1119" type="line" smooth="yes"/>
      <point x="1110" y="1169"/>
      <point x="1092" y="1187"/>
      <point x="1047" y="1187" type="curve" smooth="yes"/>
    </contour>
    <contour>
      <point x="694" y="816"/>
      <point x="675" y="797"/>
      <point x="675" y="751" type="curve"/>
      <point x="675" y="433" type="line"/>
      <point x="675" y="387"/>
      <point x="694" y="368"/>
      <point x="750" y="368" type="curve" smooth="yes"/>
      <point x="806" y="368"/>
      <point x="825" y="387"/>
      <point x="825" y="433" type="curve" smooth="yes"/>
      <point x="825" y="751" type="line" smooth="yes"/>
      <point x="825" y="797"/>
      <point x="806" y="816"/>
      <point x="750" y="816" type="curve" smooth="yes"/>
    </contour>
  </outline>
</glyph>
<glyph name="G" format="1">
  <advance width="1228"/>
  <unicode hex="0047"/>
  <outline>
    <contour>
      <point x="923" y="410" type="line"/>
      <point x="923" y="183" type="line"/>
      <point x="836" y="143"/>
      <point x="737" y="126"/>
      <point x="624" y="126" type="curve" smooth="yes"/>
      <point x="402" y="126"/>
      <point x="256" y="305"/>
      <point x="256" y="593" type="curve" smooth="yes"/>
      <point x="256" y="881"/>
      <point x="412" y="1061"/>
      <point x="634" y="1061" type="curve" smooth="yes"/>
      <point x="813" y="1061"/>
      <point x="912" y="974"/>
      <point x="912" y="854" type="curve" smooth="yes"/>
      <point x="912" y="808"/>
      <point x="931" y="789"/>
      <point x="987" y="789" type="curve" smooth="yes"/>
      <point x="1043" y="789"/>
      <point x="1062" y="808"/>
      <point x="1062" y="854" type="curve" smooth="yes"/>
      <point x="1062" y="1144" type="line" smooth="yes"/>
      <point x="1062" y="1190"/>
      <point x="1043" y="1209"/>
      <point x="987" y="1209" type="curve" smooth="yes"/>
      <point x="931" y="1209"/>
      <point x="912" y="1190"/>
      <point x="912" y="1144" type="curve" smooth="yes"/>
      <point x="912" y="1095" type="line"/>
      <point x="848" y="1167"/>
      <point x="752" y="1209"/>
      <point x="624" y="1209" type="curve" smooth="yes"/>
      <point x="319" y="1209"/>
      <point x="98" y="963"/>
      <point x="98" y="593" type="curve" smooth="yes"/>
      <point x="98" y="223"/>
      <point x="309" y="-22"/>
      <point x="624" y="-22" type="curve" smooth="yes"/>
      <point x="778" y="-22"/>
      <point x="927" y="11"/>
      <point x="1037" y="74" type="curve" smooth="yes"/>
      <point x="1060" y="87"/>
      <point x="1073" y="111"/>
      <point x="1073" y="143" type="curve" smooth="yes"/>
      <point x="1073" y="410" type="line"/>
      <point x="1105" y="410" type="line" smooth="yes"/>
      <point x="1150" y="410"/>
      <point x="1168" y="428"/>
      <point x="1168" y="478" type="curve" smooth="yes"/>
      <point x="1168" y="528"/>
      <point x="1150" y="546"/>
      <point x="1105" y="546" type="curve" smooth="yes"/>
      <point x="676" y="546" type="line" smooth="yes"/>
      <point x="631" y="546"/>
      <point x="613" y="528"/>
      <point x="613" y="478" type="curve" smooth="yes"/>
      <point x="613" y="428"/>
      <point x="631" y="410"/>
      <point x="676" y="410" type="curve" smooth="yes"/>
    </contour>
  </outline>
</glyph>
<glyph name="I" format="1">
  <advance width="1228"/>
  <unicode hex="0049"/>
  <outline>
    <contour>
      <point x="539" y="136" type="line"/>
      <point x="263" y="136" type="line" smooth="yes"/>
      <point x="218" y="136"/>
      <point x="200" y="118"/>
      <point x="200" y="68" type="curve" smooth="yes"/>
      <point x="200" y="18"/>
      <point x="218" y="0"/>
      <point x="263" y="0" type="curve" smooth="yes"/>
      <point x="965" y="0" type="line" smooth="yes"/>
      <point x="1010" y="0"/>
      <point x="1028" y="18"/>
      <point x="1028" y="68" type="curve" smooth="yes"/>
      <point x="1028" y="118"/>
      <point x="1010" y="136"/>
      <point x="965" y="136" type="curve" smooth="yes"/>
      <point x="689" y="136" type="line"/>
      <point x="689" y="1051" type="line"/>
      <point x="945" y="1051" type="line" smooth="yes"/>
      <point x="990" y="1051"/>
      <point x="1008" y="1069"/>
      <point x="1008" y="1119" type="curve" smooth="yes"/>
      <point x="1008" y="1169"/>
      <point x="990" y="1187"/>
      <point x="945" y="1187" type="curve" smooth="yes"/>
      <point x="283" y="1187" type="line" smooth="yes"/>
      <point x="238" y="1187"/>
      <point x="220" y="1169"/>
      <point x="220" y="1119" type="curve" smooth="yes"/>
      <point x="220" y="1069"/>
      <point x="238" y="1051"/>
      <point x="283" y="1051" type="curve" smooth="yes"/>
      <point x="539" y="1051" type="line"/>
    </contour>
  </outline>
</glyph>
<glyph name="J" format="1">
  <advance width="1228"/>
  <unicode hex="004A"/>
  <outline>
    <contour>
      <point x="403" y="1187" type="line" smooth="yes"/>
      <point x="358" y="1187"/>
      <point x="340" y="1169"/>
      <point x="340" y="1119" type="curve" smooth="yes"/>
      <point x="340" y="1069"/>
      <point x="358" y="1051"/>
      <point x="403" y="1051" type="curve" smooth="yes"/>
      <point x="744" y="1051" type="line"/>
      <point x="744" y="363" type="line" smooth="yes"/>
      <point x="744" y="205"/>
      <point x="672" y="126"/>
      <point x="495" y="126" type="curve" smooth="yes"/>
      <point x="398" y="126"/>
      <point x="320" y="152"/>
      <point x="265" y="201" type="curve"/>
      <point x="265" y="465" type="line" smooth="yes"/>
      <point x="265" y="511"/>
      <point x="246" y="530"/>
      <point x="190" y="530" type="curve" smooth="yes"/>
      <point x="134" y="530"/>
      <point x="115" y="511"/>
      <point x="115" y="465" type="curve" smooth="yes"/>
      <point x="115" y="180" type="line" smooth="yes"/>
      <point x="115" y="157"/>
      <point x="121" y="141"/>
      <point x="131" y="129" type="curve" smooth="yes"/>
      <point x="212" y="40"/>
      <point x="336" y="-22"/>
      <point x="494" y="-22" type="curve" smooth="yes"/>
      <point x="754" y="-22"/>
      <point x="894" y="98"/>
      <point x="894" y="333" type="curve" smooth="yes"/>
      <point x="894" y="1051" type="line"/>
      <point x="1095" y="1051" type="line" smooth="yes"/>
      <point x="1140" y="1051"/>
      <point x="1158" y="1069"/>
      <point x="1158" y="1119" type="curve" smooth="yes"/>
      <point x="1158" y="1169"/>
      <point x="1140" y="1187"/>
      <point x="1095" y="1187" type="curve" smooth="yes"/>
    </contour>
  </outline>
</glyph>
<glyph name="K" format="1">
  <advance width="1228"/>
  <unicode hex="004B"/>
  <outline>
    <contour>
      <point x="771" y="1187" type="line" smooth="yes"/>
      <point x="726" y="1187"/>
      <point x="708" y="1169"/>
      <point x="708" y="1119" type="curve" smooth="yes"/>
      <point x="708" y="1069"/>
      <point x="726" y="1051"/>
      <point x="771" y="1051" type="curve" smooth="yes"/>
      <point x="843" y="1051" type="line"/>
      <point x="405" y="622" type="line"/>
      <point x="405" y="1051" type="line"/>
      <point x="497" y="1051" type="line" smooth="yes"/>
      <point x="542" y="1051"/>
      <point x="560" y="1069"/>
      <point x="560" y="1119" type="curve" smooth="yes"/>
      <point x="560" y="1169"/>
      <point x="542" y="1187"/>
      <point x="497" y="1187" type="curve" smooth="yes"/>
      <point x="143" y="1187" type="line" smooth="yes"/>
      <point x="98" y="1187"/>
      <point x="80" y="1169"/>
      <point x="80" y="1119" type="curve" smooth="yes"/>
      <point x="80" y="1069"/>
      <point x="98" y="1051"/>
      <point x="143" y="1051" type="curve" smooth="yes"/>
      <point x="255" y="1051" type="line"/>
      <point x="255" y="136" type="line"/>
      <point x="143" y="136" type="line" smooth="yes"/>
      <point x="98" y="136"/>
      <point x="80" y="118"/>
      <point x="80" y="68" type="curve" smooth="yes"/>
      <point x="80" y="18"/>
      <point x="98" y="0"/>
      <point x="143" y="0" type="curve" smooth="yes"/>
      <point x="567" y="0" type="line" smooth="yes"/>
      <point x="612" y="0"/>
      <point x="630" y="18"/>
      <point x="630" y="68" type="curve" smooth="yes"/>
      <point x="630" y="118"/>
      <point x="612" y="136"/>
      <point x="567" y="136" type="curve" smooth="yes"/>
      <point x="405" y="136" type="line"/>
      <point x="405" y="436" type="line"/>
      <point x="435" y="465" type="line" smooth="yes"/>
      <point x="476" y="505"/>
      <point x="531" y="524"/>
      <point x="585" y="524" type="curve" smooth="yes"/>
      <point x="646" y="524"/>
      <point x="696" y="500"/>
      <point x="728" y="454" type="curve" smooth="yes"/>
      <point x="786" y="371"/>
      <point x="817" y="245"/>
      <point x="871" y="139" type="curve" smooth="yes"/>
      <point x="923" y="37"/>
      <point x="984" y="0"/>
      <point x="1043" y="0" type="curve" smooth="yes"/>
      <point x="1125" y="0" type="line" smooth="yes"/>
      <point x="1170" y="0"/>
      <point x="1188" y="18"/>
      <point x="1188" y="68" type="curve" smooth="yes"/>
      <point x="1188" y="118"/>
      <point x="1170" y="136"/>
      <point x="1125" y="136" type="curve" smooth="yes"/>
      <point x="1097" y="136" type="line" smooth="yes"/>
      <point x="1059" y="136"/>
      <point x="1031" y="164"/>
      <point x="1007" y="208" type="curve" smooth="yes"/>
      <point x="958" y="297"/>
      <point x="924" y="449"/>
      <point x="848" y="547" type="curve" smooth="yes"/>
      <point x="786" y="626"/>
      <point x="705" y="652"/>
      <point x="615" y="646" type="curve"/>
      <point x="1034" y="1051" type="line"/>
      <point x="1095" y="1051" type="line" smooth="yes"/>
      <point x="1140" y="1051"/>
      <point x="1158" y="1069"/>
      <point x="1158" y="1119" type="curve" smooth="yes"/>
      <point x="1158" y="1169"/>
      <point x="1140" y="1187"/>
      <point x="1095" y="1187" type="curve" smooth="yes"/>
    </contour>
  </outline>
</glyph>
<glyph name="N" format="1">
  <advance width="1228"/>
  <unicode hex="004E"/>
  <outline>
    <contour>
      <point x="771" y="1187" type="line" smooth="yes"/>
      <point x="726" y="1187"/>
      <point x="708" y="1169"/>
      <point x="708" y="1119" type="curve" smooth="yes"/>
      <point x="708" y="1069"/>
      <point x="726" y="1051"/>
      <point x="771" y="1051" type="curve" smooth="yes"/>
      <point x="892" y="1051" type="line"/>
      <point x="892" y="311" type="line"/>
      <point x="888" y="311" type="line"/>
      <point x="414" y="1159" type="line" smooth="yes"/>
      <point x="403" y="1178"/>
      <point x="386" y="1187"/>
      <point x="357" y="1187" type="curve" smooth="yes"/>
      <point x="133" y="1187" type="line" smooth="yes"/>
      <point x="88" y="1187"/>
      <point x="70" y="1169"/>
      <point x="70" y="1119" type="curve" smooth="yes"/>
      <point x="70" y="1069"/>
      <point x="88" y="1051"/>
      <point x="133" y="1051" type="curve" smooth="yes"/>
      <point x="210" y="1051" type="line"/>
      <point x="210" y="136" type="line"/>
      <point x="143" y="136" type="line" smooth="yes"/>
      <point x="98" y="136"/>
      <point x="80" y="118"/>
      <point x="80" y="68" type="curve" smooth="yes"/>
      <point x="80" y="18"/>
      <point x="98" y="0"/>
      <point x="143" y="0" type="curve" smooth="yes"/>
      <point x="497" y="0" type="line" smooth="yes"/>
      <point x="542" y="0"/>
      <point x="560" y="18"/>
      <point x="560" y="68" type="curve" smooth="yes"/>
      <point x="560" y="118"/>
      <point x="542" y="136"/>
      <point x="497" y="136" type="curve" smooth="yes"/>
      <point x="356" y="136" type="line"/>
      <point x="356" y="960" type="line"/>
      <point x="360" y="960" type="line"/>
      <point x="879" y="33" type="line" smooth="yes"/>
      <point x="899" y="-2"/>
      <point x="925" y="-22"/>
      <point x="963" y="-22" type="curve" smooth="yes"/>
      <point x="1015" y="-22"/>
      <point x="1038" y="2"/>
      <point x="1038" y="37" type="curve" smooth="yes"/>
      <point x="1038" y="1051" type="line"/>
      <point x="1095" y="1051" type="line" smooth="yes"/>
      <point x="1140" y="1051"/>
      <point x="1158" y="1069"/>
      <point x="1158" y="1119" type="curve" smooth="yes"/>
      <point x="1158" y="1169"/>
      <point x="1140" y="1187"/>
      <point x="1095" y="1187" type="curve" smooth="yes"/>
    </contour>
  </outline>
</glyph>
<glyph name="P" format="1">
  <advance width="1228"/>
  <unicode hex="0050"/>
  <outline>
    <contour>
      <point x="305" y="136" type="line"/>
      <point x="143" y="136" type="line" smooth="yes"/>
      <point x="98" y="136"/>
      <point x="80" y="118"/>
      <point x="80" y="68" type="curve" smooth="yes"/>
      <point x="80" y="18"/>
      <point x="98" y="0"/>
      <point x="143" y="0" type="curve" smooth="yes"/>
      <point x="695" y="0" type="line" smooth="yes"/>
      <point x="740" y="0"/>
      <point x="758" y="18"/>
      <point x="758" y="68" type="curve" smooth="yes"/>
      <point x="758" y="118"/>
      <point x="740" y="136"/>
      <point x="695" y="136" type="curve" smooth="yes"/>
      <point x="455" y="136" type="line"/>
      <point x="455" y="433" type="line"/>
      <point x="690" y="433" type="line" smooth="yes"/>
      <point x="960" y="433"/>
      <point x="1112" y="583"/>
      <point x="1112" y="808" type="curve" smooth="yes"/>
      <point x="1112" y="1034"/>
      <point x="960" y="1187"/>
      <point x="690" y="1187" type="curve" smooth="yes"/>
      <point x="143" y="1187" type="line" smooth="yes"/>
      <point x="98" y="1187"/>
      <point x="80" y="1169"/>
      <point x="80" y="1119" type="curve" smooth="yes"/>
      <point x="80" y="1069"/>
      <point x="98" y="1051"/>
      <point x="143" y="1051" type="curve" smooth="yes"/>
      <point x="305" y="1051" type="line"/>
    </contour>
    <contour>
      <point x="455" y="569" type="line"/>
      <point x="455" y="1051" type="line"/>
      <point x="669" y="1051" type="line" smooth="yes"/>
      <point x="856" y="1051"/>
      <point x="954" y="959"/>
      <point x="954" y="808" type="curve" smooth="yes"/>
      <point x="954" y="659"/>
      <point x="856" y="569"/>
      <point x="669" y="569" type="curve" smooth="yes"/>
    </contour>
  </outline>
</glyph>
<glyph name="Q" format="1">
  <advance width="1228"/>
  <unicode hex="0051"/>
  <outline>
    <contour>
      <point x="299" y="1209"/>
      <point x="88" y="978"/>
      <point x="88" y="618" type="curve" smooth="yes"/>
      <point x="88" y="339"/>
      <point x="214" y="139"/>
      <point x="417" y="62" type="curve"/>
      <point x="237" y="-142" type="line" smooth="yes"/>
      <point x="220" y="-161"/>
      <point x="228" y="-192"/>
      <point x="254" y="-226" type="curve" smooth="yes"/>
      <point x="280" y="-261"/>
      <point x="311" y="-280"/>
      <point x="337" y="-269" type="curve" smooth="yes"/>
      <point x="425" y="-232"/>
      <point x="502" y="-220"/>
      <point x="562" y="-220" type="curve" smooth="yes"/>
      <point x="676" y="-220"/>
      <point x="761" y="-258"/>
      <point x="853" y="-258" type="curve" smooth="yes"/>
      <point x="916" y="-258"/>
      <point x="983" y="-240"/>
      <point x="1065" y="-179" type="curve" smooth="yes"/>
      <point x="1095" y="-157"/>
      <point x="1091" y="-121"/>
      <point x="1070" y="-86" type="curve" smooth="yes"/>
      <point x="1048" y="-49"/>
      <point x="1016" y="-31"/>
      <point x="993" y="-48" type="curve"/>
      <point x="933" y="-92"/>
      <point x="882" y="-105"/>
      <point x="833" y="-105" type="curve" smooth="yes"/>
      <point x="757" y="-105"/>
      <point x="686" y="-73"/>
      <point x="593" y="-73" type="curve" smooth="yes"/>
      <point x="546" y="-73"/>
      <point x="494" y="-81"/>
      <point x="433" y="-105" type="curve"/>
      <point x="562" y="30" type="line"/>
      <point x="574" y="29"/>
      <point x="594" y="28"/>
      <point x="614" y="28" type="curve" smooth="yes"/>
      <point x="929" y="28"/>
      <point x="1140" y="258"/>
      <point x="1140" y="618" type="curve" smooth="yes"/>
      <point x="1140" y="978"/>
      <point x="929" y="1209"/>
      <point x="614" y="1209" type="curve" smooth="yes"/>
    </contour>
    <contour>
      <point x="836" y="1061"/>
      <point x="982" y="896"/>
      <point x="982" y="618" type="curve" smooth="yes"/>
      <point x="982" y="340"/>
      <point x="836" y="176"/>
      <point x="614" y="176" type="curve" smooth="yes"/>
      <point x="392" y="176"/>
      <point x="246" y="340"/>
      <point x="246" y="618" type="curve" smooth="yes"/>
      <point x="246" y="896"/>
      <point x="392" y="1061"/>
      <point x="614" y="1061" type="curve" smooth="yes"/>
    </contour>
  </outline>
</glyph>
<glyph name="R" format="1">
  <advance width="1228"/>
  <unicode hex="0052"/>
  <outline>
    <contour>
      <point x="143" y="1187" type="line" smooth="yes"/>
      <point x="98" y="1187"/>
      <point x="80" y="1169"/>
      <point x="80" y="1119" type="curve" smooth="yes"/>
      <point x="80" y="1069"/>
      <point x="98" y="1051"/>
      <point x="143" y="1051" type="curve" smooth="yes"/>
      <point x="265" y="1051" type="line"/>
      <point x="265" y="136" type="line"/>
      <point x="143" y="136" type="line" smooth="yes"/>
      <point x="98" y="136"/>
      <point x="80" y="118"/>
      <point x="80" y="68" type="curve" smooth="yes"/>
      <point x="80" y="18"/>
      <point x="98" y="0"/>
      <point x="143" y="0" type="curve" smooth="yes"/>
      <point x="545" y="0" type="line" smooth="yes"/>
      <point x="590" y="0"/>
      <point x="608" y="18"/>
      <point x="608" y="68" type="curve" smooth="yes"/>
      <point x="608" y="118"/>
      <point x="590" y="136"/>
      <point x="545" y="136" type="curve" smooth="yes"/>
      <point x="415" y="136" type="line"/>
      <point x="415" y="515" type="line"/>
      <point x="477" y="515" type="line" smooth="yes"/>
      <point x="599" y="515"/>
      <point x="672" y="489"/>
      <point x="742" y="401" type="curve" smooth="yes"/>
      <point x="799" y="330"/>
      <point x="846" y="227"/>
      <point x="899" y="139" type="curve" smooth="yes"/>
      <point x="962" y="35"/>
      <point x="1018" y="0"/>
      <point x="1075" y="0" type="curve" smooth="yes"/>
      <point x="1145" y="0" type="line" smooth="yes"/>
      <point x="1190" y="0"/>
      <point x="1208" y="18"/>
      <point x="1208" y="68" type="curve" smooth="yes"/>
      <point x="1208" y="118"/>
      <point x="1190" y="136"/>
      <point x="1145" y="136" type="curve" smooth="yes"/>
      <point x="1126" y="136" type="line" smooth="yes"/>
      <point x="1085" y="136"/>
      <point x="1053" y="171"/>
      <point x="1021" y="224" type="curve" smooth="yes"/>
      <point x="976" y="299"/>
      <point x="927" y="404"/>
      <point x="859" y="479" type="curve" smooth="yes"/>
      <point x="833" y="508"/>
      <point x="803" y="533"/>
      <point x="769" y="549" type="curve"/>
      <point x="938" y="587"/>
      <point x="1046" y="696"/>
      <point x="1046" y="850" type="curve" smooth="yes"/>
      <point x="1046" y="1051"/>
      <point x="904" y="1187"/>
      <point x="649" y="1187" type="curve" smooth="yes"/>
    </contour>
    <contour>
      <point x="793" y="1051"/>
      <point x="888" y="979"/>
      <point x="888" y="850" type="curve" smooth="yes"/>
      <point x="888" y="708"/>
      <point x="784" y="651"/>
      <point x="618" y="651" type="curve" smooth="yes"/>
      <point x="415" y="651" type="line"/>
      <point x="415" y="1051" type="line"/>
      <point x="628" y="1051" type="line" smooth="yes"/>
    </contour>
  </outline>
</glyph>
<glyph name="T" format="1">
  <advance width="1228"/>
  <unicode hex="0054"/>
  <outline>
    <contour>
      <point x="185" y="1187" type="line" smooth="yes"/>
      <point x="140" y="1187"/>
      <point x="122" y="1169"/>
      <point x="122" y="1119" type="curve" smooth="yes"/>
      <point x="122" y="742" type="line" smooth="yes"/>
      <point x="122" y="696"/>
      <point x="141" y="677"/>
      <point x="197" y="677" type="curve" smooth="yes"/>
      <point x="253" y="677"/>
      <point x="272" y="696"/>
      <point x="272" y="742" type="curve" smooth="yes"/>
      <point x="272" y="1051" type="line"/>
      <point x="539" y="1051" type="line"/>
      <point x="539" y="136" type="line"/>
      <point x="303" y="136" type="line" smooth="yes"/>
      <point x="258" y="136"/>
      <point x="240" y="118"/>
      <point x="240" y="68" type="curve" smooth="yes"/>
      <point x="240" y="18"/>
      <point x="258" y="0"/>
      <point x="303" y="0" type="curve" smooth="yes"/>
      <point x="925" y="0" type="line" smooth="yes"/>
      <point x="970" y="0"/>
      <point x="988" y="18"/>
      <point x="988" y="68" type="curve" smooth="yes"/>
      <point x="988" y="118"/>
      <point x="970" y="136"/>
      <point x="925" y="136" type="curve" smooth="yes"/>
      <point x="689" y="136" type="line"/>
      <point x="689" y="1051" type="line"/>
      <point x="956" y="1051" type="line"/>
      <point x="956" y="742" type="line" smooth="yes"/>
      <point x="956" y="696"/>
      <point x="975" y="677"/>
      <point x="1031" y="677" type="curve" smooth="yes"/>
      <point x="1087" y="677"/>
      <point x="1106" y="696"/>
      <point x="1106" y="742" type="curve" smooth="yes"/>
      <point x="1106" y="1119" type="line" smooth="yes"/>
      <point x="1106" y="1169"/>
      <point x="1088" y="1187"/>
      <point x="1043" y="1187" type="curve" smooth="yes"/>
    </contour>
  </outline>
</glyph>
<glyph name="U" format="1">
  <advance width="1228"/>
  <unicode hex="0055"/>
  <outline>
    <contour>
      <point x="195" y="1051" type="line"/>
      <point x="195" y="393" type="line" smooth="yes"/>
      <point x="195" y="108"/>
      <point x="354" y="-22"/>
      <point x="614" y="-22" type="curve" smooth="yes"/>
      <point x="874" y="-22"/>
      <point x="1033" y="108"/>
      <point x="1033" y="393" type="curve" smooth="yes"/>
      <point x="1033" y="1051" type="line"/>
      <point x="1095" y="1051" type="line" smooth="yes"/>
      <point x="1140" y="1051"/>
      <point x="1158" y="1069"/>
      <point x="1158" y="1119" type="curve" smooth="yes"/>
      <point x="1158" y="1169"/>
      <point x="1140" y="1187"/>
      <point x="1095" y="1187" type="curve" smooth="yes"/>
      <point x="771" y="1187" type="line" smooth="yes"/>
      <point x="726" y="1187"/>
      <point x="708" y="1169"/>
      <point x="708" y="1119" type="curve" smooth="yes"/>
      <point x="708" y="1069"/>
      <point x="726" y="1051"/>
      <point x="771" y="1051" type="curve" smooth="yes"/>
      <point x="883" y="1051" type="line"/>
      <point x="883" y="413" type="line" smooth="yes"/>
      <point x="883" y="205"/>
      <point x="796" y="126"/>
      <point x="614" y="126" type="curve" smooth="yes"/>
      <point x="432" y="126"/>
      <point x="345" y="205"/>
      <point x="345" y="413" type="curve" smooth="yes"/>
      <point x="345" y="1051" type="line"/>
      <point x="457" y="1051" type="line" smooth="yes"/>
      <point x="502" y="1051"/>
      <point x="520" y="1069"/>
      <point x="520" y="1119" type="curve" smooth="yes"/>
      <point x="520" y="1169"/>
      <point x="502" y="1187"/>
      <point x="457" y="1187" type="curve" smooth="yes"/>
      <point x="133" y="1187" type="line" smooth="yes"/>
      <point x="88" y="1187"/>
      <point x="70" y="1169"/>
      <point x="70" y="1119" type="curve" smooth="yes"/>
      <point x="70" y="1069"/>
      <point x="88" y="1051"/>
      <point x="133" y="1051" type="curve" smooth="yes"/>
    </contour>
  </outline>
</glyph>
<glyph name="V" format="1">
  <advance width="1228"/>
  <unicode hex="0056"/>
  <outline>
    <contour>
      <point x="149" y="1051" type="line"/>
      <point x="505" y="43" type="line" smooth="yes"/>
      <point x="521" y="-3"/>
      <point x="554" y="-22"/>
      <point x="611" y="-22" type="curve" smooth="yes"/>
      <point x="668" y="-22"/>
      <point x="702" y="-4"/>
      <point x="719" y="43" type="curve" smooth="yes"/>
      <point x="1078" y="1051" type="line"/>
      <point x="1155" y="1051" type="line" smooth="yes"/>
      <point x="1200" y="1051"/>
      <point x="1218" y="1069"/>
      <point x="1218" y="1119" type="curve" smooth="yes"/>
      <point x="1218" y="1169"/>
      <point x="1200" y="1187"/>
      <point x="1155" y="1187" type="curve" smooth="yes"/>
      <point x="821" y="1187" type="line" smooth="yes"/>
      <point x="776" y="1187"/>
      <point x="758" y="1169"/>
      <point x="758" y="1119" type="curve" smooth="yes"/>
      <point x="758" y="1069"/>
      <point x="776" y="1051"/>
      <point x="821" y="1051" type="curve" smooth="yes"/>
      <point x="921" y="1051" type="line"/>
      <point x="612" y="167" type="line"/>
      <point x="306" y="1051" type="line"/>
      <point x="447" y="1051" type="line" smooth="yes"/>
      <point x="492" y="1051"/>
      <point x="510" y="1069"/>
      <point x="510" y="1119" type="curve" smooth="yes"/>
      <point x="510" y="1169"/>
      <point x="492" y="1187"/>
      <point x="447" y="1187" type="curve" smooth="yes"/>
      <point x="73" y="1187" type="line" smooth="yes"/>
      <point x="28" y="1187"/>
      <point x="10" y="1169"/>
      <point x="10" y="1119" type="curve" smooth="yes"/>
      <point x="10" y="1069"/>
      <point x="28" y="1051"/>
      <point x="73" y="1051" type="curve" smooth="yes"/>
    </contour>
  </outline>
</glyph>
<glyph name="X" format="1">
  <advance width="1228"/>
  <unicode hex="0058"/>
  <outline>
    <contour>
      <point x="175" y="136" type="line"/>
      <point x="113" y="136" type="line" smooth="yes"/>
      <point x="68" y="136"/>
      <point x="50" y="118"/>
      <point x="50" y="68" type="curve" smooth="yes"/>
      <point x="50" y="18"/>
      <point x="68" y="0"/>
      <point x="113" y="0" type="curve" smooth="yes"/>
      <point x="437" y="0" type="line" smooth="yes"/>
      <point x="482" y="0"/>
      <point x="500" y="18"/>
      <point x="500" y="68" type="curve" smooth="yes"/>
      <point x="500" y="118"/>
      <point x="482" y="136"/>
      <point x="437" y="136" type="curve" smooth="yes"/>
      <point x="354" y="136" type="line"/>
      <point x="615" y="501" type="line"/>
      <point x="870" y="136" type="line"/>
      <point x="761" y="136" type="line" smooth="yes"/>
      <point x="716" y="136"/>
      <point x="698" y="118"/>
      <point x="698" y="68" type="curve" smooth="yes"/>
      <point x="698" y="18"/>
      <point x="716" y="0"/>
      <point x="761" y="0" type="curve" smooth="yes"/>
      <point x="1115" y="0" type="line" smooth="yes"/>
      <point x="1160" y="0"/>
      <point x="1178" y="18"/>
      <point x="1178" y="68" type="curve" smooth="yes"/>
      <point x="1178" y="118"/>
      <point x="1160" y="136"/>
      <point x="1115" y="136" type="curve" smooth="yes"/>
      <point x="1057" y="136" type="line"/>
      <point x="711" y="617" type="line"/>
      <point x="1020" y="1051" type="line"/>
      <point x="1085" y="1051" type="line" smooth="yes"/>
      <point x="1130" y="1051"/>
      <point x="1148" y="1069"/>
      <point x="1148" y="1119" type="curve" smooth="yes"/>
      <point x="1148" y="1169"/>
      <point x="1130" y="1187"/>
      <point x="1085" y="1187" type="curve" smooth="yes"/>
      <point x="781" y="1187" type="line" smooth="yes"/>
      <point x="736" y="1187"/>
      <point x="718" y="1169"/>
      <point x="718" y="1119" type="curve" smooth="yes"/>
      <point x="718" y="1069"/>
      <point x="736" y="1051"/>
      <point x="781" y="1051" type="curve" smooth="yes"/>
      <point x="841" y="1051" type="line"/>
      <point x="619" y="735" type="line"/>
      <point x="398" y="1051" type="line"/>
      <point x="487" y="1051" type="line" smooth="yes"/>
      <point x="532" y="1051"/>
      <point x="550" y="1069"/>
      <point x="550" y="1119" type="curve" smooth="yes"/>
      <point x="550" y="1169"/>
      <point x="532" y="1187"/>
      <point x="487" y="1187" type="curve" smooth="yes"/>
      <point x="143" y="1187" type="line" smooth="yes"/>
      <point x="98" y="1187"/>
      <point x="80" y="1169"/>
      <point x="80" y="1119" type="curve" smooth="yes"/>
      <point x="80" y="1069"/>
      <point x="98" y="1051"/>
      <point x="143" y="1051" type="curve" smooth="yes"/>
      <point x="212" y="1051" type="line"/>
      <point x="524" y="619" type="line"/>
    </contour>
  </outline>
</glyph>
<glyph name="bracketleft" format="1">
  <advance width="1228"/>
  <unicode hex="005B"/>
  <outline>
    <contour>
      <point x="480" y="-197" type="line"/>
      <point x="480" y="1236" type="line"/>
      <point x="807" y="1236" type="line" smooth="yes"/>
      <point x="852" y="1236"/>
      <point x="870" y="1254"/>
      <point x="870" y="1304" type="curve" smooth="yes"/>
      <point x="870" y="1354"/>
      <point x="852" y="1372"/>
      <point x="807" y="1372" type="curve" smooth="yes"/>
      <point x="393" y="1372" type="line" smooth="yes"/>
      <point x="348" y="1372"/>
      <point x="330" y="1354"/>
      <point x="330" y="1304" type="curve" smooth="yes"/>
      <point x="330" y="-265" type="line" smooth="yes"/>
      <point x="330" y="-315"/>
      <point x="348" y="-333"/>
      <point x="393" y="-333" type="curve" smooth="yes"/>
      <point x="807" y="-333" type="line" smooth="yes"/>
      <point x="852" y="-333"/>
      <point x="870" y="-315"/>
      <point x="870" y="-265" type="curve" smooth="yes"/>
      <point x="870" y="-215"/>
      <point x="852" y="-197"/>
      <point x="807" y="-197" type="curve" smooth="yes"/>
    </contour>
  </outline>
</glyph>
<glyph name="backslash" format="1">
  <advance width="1228"/>
  <unicode hex="005C"/>
  <outline>
    <contour>
      <point x="345" y="1305" type="line"/>
      <point x="336" y="1326"/>
      <point x="308" y="1335"/>
      <point x="280" y="1335" type="curve" smooth="yes"/>
      <point x="233" y="1335"/>
      <point x="184" y="1310"/>
      <point x="201" y="1271" type="curve" smooth="yes"/>
      <point x="883" y="-267" type="line" smooth="yes"/>
      <point x="892" y="-288"/>
      <point x="920" y="-297"/>
      <point x="948" y="-297" type="curve" smooth="yes"/>
      <point x="995" y="-297"/>
      <point x="1044" y="-272"/>
      <point x="1027" y="-233" type="curve" smooth="yes"/>
    </contour>
  </outline>
</glyph>
<glyph name="underscore" format="1">
  <advance width="1228"/>
  <unicode hex="005F"/>
  <outline>
    <contour>
      <point x="1233" y="-393" type="line" smooth="yes"/>
      <point x="1248" y="-393"/>
      <point x="1256" y="-385"/>
      <point x="1256" y="-325" type="curve" smooth="yes"/>
      <point x="1256" y="-265"/>
      <point x="1248" y="-257"/>
      <point x="1233" y="-257" type="curve" smooth="yes"/>
      <point x="-5" y="-257" type="line" smooth="yes"/>
      <point x="-20" y="-257"/>
      <point x="-28" y="-265"/>
      <point x="-28" y="-325" type="curve" smooth="yes"/>
      <point x="-28" y="-385"/>
      <point x="-20" y="-393"/>
      <point x="-5" y="-393" type="curve" smooth="yes"/>
    </contour>
  </outline>
</glyph>
<glyph name="grave" format="1">
  <advance width="1228"/>
  <unicode hex="0060"/>
  <outline>
    <contour>
      <point x="391" y="1363" type="line" smooth="yes"/>
      <point x="357" y="1382"/>
      <point x="332" y="1384"/>
      <point x="290" y="1309" type="curve" smooth="yes"/>
      <point x="251" y="1238"/>
      <point x="263" y="1211"/>
      <point x="290" y="1202" type="curve" smooth="yes"/>
      <point x="771" y="1039" type="line" smooth="yes"/>
      <point x="796" y="1031"/>
      <point x="817" y="1048"/>
      <point x="826" y="1071" type="curve" smooth="yes"/>
      <point x="835" y="1094"/>
      <point x="830" y="1120"/>
      <point x="807" y="1133" type="curve" smooth="yes"/>
    </contour>
  </outline>
</glyph>
<glyph name="a" format="1">
  <advance width="1228"/>
  <unicode hex="0061"/>
  <outline>
    <contour>
      <point x="503" y="946"/>
      <point x="353" y="912"/>
      <point x="248" y="834" type="curve" smooth="yes"/>
      <point x="217" y="811"/>
      <point x="209" y="778"/>
      <point x="238" y="737" type="curve" smooth="yes"/>
      <point x="267" y="696"/>
      <point x="300" y="691"/>
      <point x="331" y="713" type="curve" smooth="yes"/>
      <point x="414" y="772"/>
      <point x="531" y="801"/>
      <point x="638" y="801" type="curve" smooth="yes"/>
      <point x="789" y="801"/>
      <point x="844" y="743"/>
      <point x="844" y="613" type="curve" smooth="yes"/>
      <point x="844" y="528" type="line"/>
      <point x="750" y="561"/>
      <point x="648" y="579"/>
      <point x="540" y="579" type="curve" smooth="yes"/>
      <point x="321" y="579"/>
      <point x="135" y="494"/>
      <point x="135" y="270" type="curve" smooth="yes"/>
      <point x="135" y="84"/>
      <point x="279" y="-22"/>
      <point x="479" y="-22" type="curve" smooth="yes"/>
      <point x="626" y="-22"/>
      <point x="754" y="36"/>
      <point x="859" y="128" type="curve"/>
      <point x="878" y="40"/>
      <point x="949" y="0"/>
      <point x="1031" y="0" type="curve" smooth="yes"/>
      <point x="1095" y="0" type="line" smooth="yes"/>
      <point x="1140" y="0"/>
      <point x="1158" y="18"/>
      <point x="1158" y="68" type="curve" smooth="yes"/>
      <point x="1158" y="118"/>
      <point x="1140" y="136"/>
      <point x="1095" y="136" type="curve" smooth="yes"/>
      <point x="1060" y="136" type="line" smooth="yes"/>
      <point x="1017" y="136"/>
      <point x="994" y="162"/>
      <point x="994" y="215" type="curve" smooth="yes"/>
      <point x="994" y="613" type="line" smooth="yes"/>
      <point x="994" y="832"/>
      <point x="875" y="946"/>
      <point x="638" y="946" type="curve" smooth="yes"/>
    </contour>
    <contour>
      <point x="644" y="438"/>
      <point x="752" y="423"/>
      <point x="844" y="393" type="curve"/>
      <point x="844" y="284" type="line"/>
      <point x="746" y="183"/>
      <point x="627" y="119"/>
      <point x="485" y="119" type="curve" smooth="yes"/>
      <point x="364" y="119"/>
      <point x="293" y="176"/>
      <point x="293" y="273" type="curve" smooth="yes"/>
      <point x="293" y="394"/>
      <point x="397" y="438"/>
      <point x="541" y="438" type="curve" smooth="yes"/>
    </contour>
  </outline>
</glyph>
<glyph name="b" format="1">
  <advance width="1228"/>
  <unicode hex="0062"/>
  <outline>
    <contour>
      <point x="202" y="136" type="line"/>
      <point x="120" y="136" type="line" smooth="yes"/>
      <point x="75" y="136"/>
      <point x="57" y="118"/>
      <point x="57" y="68" type="curve" smooth="yes"/>
      <point x="57" y="18"/>
      <point x="75" y="0"/>
      <point x="120" y="0" type="curve" smooth="yes"/>
      <point x="279" y="0" type="line" smooth="yes"/>
      <point x="324" y="0"/>
      <point x="342" y="18"/>
      <point x="342" y="68" type="curve" smooth="yes"/>
      <point x="342" y="148" type="line"/>
      <point x="424" y="41"/>
      <point x="536" y="-22"/>
      <point x="669" y="-22" type="curve" smooth="yes"/>
      <point x="916" y="-22"/>
      <point x="1101" y="160"/>
      <point x="1101" y="462" type="curve" smooth="yes"/>
      <point x="1101" y="764"/>
      <point x="916" y="946"/>
      <point x="669" y="946" type="curve" smooth="yes"/>
      <point x="536" y="946"/>
      <point x="432" y="883"/>
      <point x="352" y="781" type="curve"/>
      <point x="352" y="1244" type="line" smooth="yes"/>
      <point x="352" y="1294"/>
      <point x="334" y="1312"/>
      <point x="289" y="1312" type="curve" smooth="yes"/>
      <point x="100" y="1312" type="line" smooth="yes"/>
      <point x="55" y="1312"/>
      <point x="37" y="1294"/>
      <point x="37" y="1244" type="curve" smooth="yes"/>
      <point x="37" y="1194"/>
      <point x="55" y="1176"/>
      <point x="100" y="1176" type="curve" smooth="yes"/>
      <point x="202" y="1176" type="line"/>
    </contour>
    <contour>
      <point x="352" y="674"/>
      <point x="482" y="798"/>
      <point x="659" y="798" type="curve" smooth="yes"/>
      <point x="840" y="798"/>
      <point x="943" y="658"/>
      <point x="943" y="462" type="curve" smooth="yes"/>
      <point x="943" y="266"/>
      <point x="840" y="126"/>
      <point x="659" y="126" type="curve" smooth="yes"/>
      <point x="482" y="126"/>
      <point x="352" y="250"/>
      <point x="352" y="462" type="curve" smooth="yes"/>
    </contour>
  </outline>
</glyph>
<glyph name="d" format="1">
  <advance width="1228"/>
  <unicode hex="0064"/>
  <outline>
    <contour>
      <point x="1026" y="136" type="line"/>
      <point x="1026" y="1244" type="line" smooth="yes"/>
      <point x="1026" y="1294"/>
      <point x="1008" y="1312"/>
      <point x="963" y="1312" type="curve" smooth="yes"/>
      <point x="674" y="1312" type="line" smooth="yes"/>
      <point x="629" y="1312"/>
      <point x="611" y="1294"/>
      <point x="611" y="1244" type="curve" smooth="yes"/>
      <point x="611" y="1194"/>
      <point x="629" y="1176"/>
      <point x="674" y="1176" type="curve" smooth="yes"/>
      <point x="876" y="1176" type="line"/>
      <point x="876" y="740" type="line"/>
      <point x="797" y="839"/>
      <point x="692" y="896"/>
      <point x="559" y="896" type="curve" smooth="yes"/>
      <point x="312" y="896"/>
      <point x="127" y="724"/>
      <point x="127" y="437" type="curve" smooth="yes"/>
      <point x="127" y="150"/>
      <point x="312" y="-22"/>
      <point x="559" y="-22" type="curve" smooth="yes"/>
      <point x="692" y="-22"/>
      <point x="804" y="41"/>
      <point x="886" y="148" type="curve"/>
      <point x="886" y="68" type="line" smooth="yes"/>
      <point x="886" y="18"/>
      <point x="904" y="0"/>
      <point x="949" y="0" type="curve" smooth="yes"/>
      <point x="1108" y="0" type="line" smooth="yes"/>
      <point x="1153" y="0"/>
      <point x="1171" y="18"/>
      <point x="1171" y="68" type="curve" smooth="yes"/>
      <point x="1171" y="118"/>
      <point x="1153" y="136"/>
      <point x="1108" y="136" type="curve" smooth="yes"/>
    </contour>
    <contour>
      <point x="876" y="240"/>
      <point x="746" y="126"/>
      <point x="569" y="126" type="curve" smooth="yes"/>
      <point x="388" y="126"/>
      <point x="285" y="256"/>
      <point x="285" y="437" type="curve" smooth="yes"/>
      <point x="285" y="618"/>
      <point x="388" y="748"/>
      <point x="569" y="748" type="curve" smooth="yes"/>
      <point x="746" y="748"/>
      <point x="876" y="634"/>
      <point x="876" y="437" type="curve" smooth="yes"/>
    </contour>
  </outline>
</glyph>
<glyph name="f" format="1">
  <advance width="1228"/>
  <unicode hex="0066"/>
  <outline>
    <contour>
      <point x="576" y="1317"/>
      <point x="448" y="1186"/>
      <point x="448" y="967" type="curve" smooth="yes"/>
      <point x="448" y="844" type="line"/>
      <point x="250" y="844" type="line" smooth="yes"/>
      <point x="205" y="844"/>
      <point x="187" y="826"/>
      <point x="187" y="776" type="curve" smooth="yes"/>
      <point x="187" y="726"/>
      <point x="205" y="708"/>
      <point x="250" y="708" type="curve" smooth="yes"/>
      <point x="448" y="708" type="line"/>
      <point x="448" y="136" type="line"/>
      <point x="250" y="136" type="line" smooth="yes"/>
      <point x="205" y="136"/>
      <point x="187" y="118"/>
      <point x="187" y="68" type="curve" smooth="yes"/>
      <point x="187" y="18"/>
      <point x="205" y="0"/>
      <point x="250" y="0" type="curve" smooth="yes"/>
      <point x="944" y="0" type="line" smooth="yes"/>
      <point x="989" y="0"/>
      <point x="1007" y="18"/>
      <point x="1007" y="68" type="curve" smooth="yes"/>
      <point x="1007" y="118"/>
      <point x="989" y="136"/>
      <point x="944" y="136" type="curve" smooth="yes"/>
      <point x="598" y="136" type="line"/>
      <point x="598" y="708" type="line"/>
      <point x="944" y="708" type="line" smooth="yes"/>
      <point x="989" y="708"/>
      <point x="1007" y="726"/>
      <point x="1007" y="776" type="curve" smooth="yes"/>
      <point x="1007" y="826"/>
      <point x="989" y="844"/>
      <point x="944" y="844" type="curve" smooth="yes"/>
      <point x="598" y="844" type="line"/>
      <point x="598" y="954" type="line" smooth="yes"/>
      <point x="598" y="1091"/>
      <point x="659" y="1171"/>
      <point x="800" y="1171" type="curve" smooth="yes"/>
      <point x="879" y="1171"/>
      <point x="959" y="1152"/>
      <point x="1037" y="1122" type="curve" smooth="yes"/>
      <point x="1071" y="1109"/>
      <point x="1098" y="1120"/>
      <point x="1111" y="1174" type="curve" smooth="yes"/>
      <point x="1123" y="1224"/>
      <point x="1102" y="1252"/>
      <point x="1066" y="1266" type="curve" smooth="yes"/>
      <point x="986" y="1297"/>
      <point x="894" y="1317"/>
      <point x="800" y="1317" type="curve" smooth="yes"/>
    </contour>
  </outline>
</glyph>
<glyph name="g" format="1">
  <advance width="1228"/>
  <unicode hex="0067"/>
  <outline>
    <contour>
      <point x="312" y="946"/>
      <point x="127" y="774"/>
      <point x="127" y="487" type="curve" smooth="yes"/>
      <point x="127" y="200"/>
      <point x="312" y="28"/>
      <point x="559" y="28" type="curve" smooth="yes"/>
      <point x="692" y="28"/>
      <point x="797" y="85"/>
      <point x="876" y="184" type="curve"/>
      <point x="876" y="-17" type="line" smooth="yes"/>
      <point x="876" y="-164"/>
      <point x="787" y="-262"/>
      <point x="598" y="-262" type="curve" smooth="yes"/>
      <point x="490" y="-262"/>
      <point x="370" y="-238"/>
      <point x="269" y="-202" type="curve" smooth="yes"/>
      <point x="235" y="-190"/>
      <point x="207" y="-203"/>
      <point x="190" y="-253" type="curve" smooth="yes"/>
      <point x="173" y="-304"/>
      <point x="185" y="-333"/>
      <point x="221" y="-346" type="curve" smooth="yes"/>
      <point x="336" y="-388"/>
      <point x="472" y="-410"/>
      <point x="598" y="-410" type="curve" smooth="yes"/>
      <point x="869" y="-410"/>
      <point x="1026" y="-269"/>
      <point x="1026" y="-30" type="curve" smooth="yes"/>
      <point x="1026" y="788" type="line"/>
      <point x="1108" y="788" type="line" smooth="yes"/>
      <point x="1153" y="788"/>
      <point x="1171" y="806"/>
      <point x="1171" y="856" type="curve" smooth="yes"/>
      <point x="1171" y="906"/>
      <point x="1153" y="924"/>
      <point x="1108" y="924" type="curve" smooth="yes"/>
      <point x="949" y="924" type="line" smooth="yes"/>
      <point x="904" y="924"/>
      <point x="886" y="906"/>
      <point x="886" y="856" type="curve" smooth="yes"/>
      <point x="886" y="776" type="line"/>
      <point x="804" y="883"/>
      <point x="692" y="946"/>
      <point x="559" y="946" type="curve" smooth="yes"/>
    </contour>
    <contour>
      <point x="746" y="798"/>
      <point x="876" y="684"/>
      <point x="876" y="487" type="curve" smooth="yes"/>
      <point x="876" y="290"/>
      <point x="746" y="176"/>
      <point x="569" y="176" type="curve" smooth="yes"/>
      <point x="388" y="176"/>
      <point x="285" y="306"/>
      <point x="285" y="487" type="curve" smooth="yes"/>
      <point x="285" y="668"/>
      <point x="388" y="798"/>
      <point x="569" y="798" type="curve" smooth="yes"/>
    </contour>
  </outline>
</glyph>
<glyph name="i" format="1">
  <advance width="1228"/>
  <unicode hex="0069"/>
  <outline>
    <contour>
      <point x="563" y="136" type="line"/>
      <point x="250" y="136" type="line" smooth="yes"/>
      <point x="205" y="136"/>
      <point x="187" y="118"/>
      <point x="187" y="68" type="curve" smooth="yes"/>
      <point x="187" y="18"/>
      <point x="205" y="0"/>
      <point x="250" y="0" type="curve" smooth="yes"/>
      <point x="1034" y="0" type="line" smooth="yes"/>
      <point x="1079" y="0"/>
      <point x="1097" y="18"/>
      <point x="1097" y="68" type="curve" smooth="yes"/>
      <point x="1097" y="118"/>
      <point x="1079" y="136"/>
      <point x="1034" y="136" type="curve" smooth="yes"/>
      <point x="713" y="136" type="line"/>
      <point x="713" y="856" type="line" smooth="yes"/>
      <point x="713" y="906"/>
      <point x="695" y="924"/>
      <point x="650" y="924" type="curve" smooth="yes"/>
      <point x="310" y="924" type="line" smooth="yes"/>
      <point x="265" y="924"/>
      <point x="247" y="906"/>
      <point x="247" y="856" type="curve" smooth="yes"/>
      <point x="247" y="806"/>
      <point x="265" y="788"/>
      <point x="310" y="788" type="curve" smooth="yes"/>
      <point x="563" y="788" type="line"/>
    </contour>
    <contour>
      <point x="713" y="1298" type="line" smooth="yes"/>
      <point x="713" y="1344"/>
      <point x="694" y="1363"/>
      <point x="618" y="1363" type="curve" smooth="yes"/>
      <point x="542" y="1363"/>
      <point x="523" y="1344"/>
      <point x="523" y="1298" type="curve" smooth="yes"/>
      <point x="523" y="1168" type="line" smooth="yes"/>
      <point x="523" y="1122"/>
      <point x="542" y="1103"/>
      <point x="618" y="1103" type="curve" smooth="yes"/>
      <point x="694" y="1103"/>
      <point x="713" y="1122"/>
      <point x="713" y="1168" type="curve" smooth="yes"/>
    </contour>
  </outline>
</glyph>
<glyph name="j" format="1">
  <advance width="1228"/>
  <unicode hex="006A"/>
  <outline>
    <contour>
      <point x="732" y="1363"/>
      <point x="713" y="1344"/>
      <point x="713" y="1298" type="curve" smooth="yes"/>
      <point x="713" y="1168" type="line" smooth="yes"/>
      <point x="713" y="1122"/>
      <point x="732" y="1103"/>
      <point x="808" y="1103" type="curve" smooth="yes"/>
      <point x="884" y="1103"/>
      <point x="903" y="1122"/>
      <point x="903" y="1168" type="curve" smooth="yes"/>
      <point x="903" y="1298" type="line" smooth="yes"/>
      <point x="903" y="1344"/>
      <point x="884" y="1363"/>
      <point x="808" y="1363" type="curve" smooth="yes"/>
    </contour>
    <component base="dotlessj"/>
  </outline>
</glyph>
<glyph name="k" format="1">
  <advance width="1228"/>
  <unicode hex="006B"/>
  <outline>
    <contour>
      <point x="130" y="1312" type="line" smooth="yes"/>
      <point x="85" y="1312"/>
      <point x="67" y="1294"/>
      <point x="67" y="1244" type="curve" smooth="yes"/>
      <point x="67" y="1194"/>
      <point x="85" y="1176"/>
      <point x="130" y="1176" type="curve" smooth="yes"/>
      <point x="261" y="1176" type="line"/>
      <point x="261" y="136" type="line"/>
      <point x="150" y="136" type="line" smooth="yes"/>
      <point x="105" y="136"/>
      <point x="87" y="118"/>
      <point x="87" y="68" type="curve" smooth="yes"/>
      <point x="87" y="18"/>
      <point x="105" y="0"/>
      <point x="150" y="0" type="curve" smooth="yes"/>
      <point x="484" y="0" type="line" smooth="yes"/>
      <point x="529" y="0"/>
      <point x="547" y="18"/>
      <point x="547" y="68" type="curve" smooth="yes"/>
      <point x="547" y="118"/>
      <point x="529" y="136"/>
      <point x="484" y="136" type="curve" smooth="yes"/>
      <point x="411" y="136" type="line"/>
      <point x="411" y="274" type="line"/>
      <point x="593" y="434" type="line"/>
      <point x="844" y="136" type="line"/>
      <point x="772" y="136" type="line" smooth="yes"/>
      <point x="727" y="136"/>
      <point x="709" y="118"/>
      <point x="709" y="68" type="curve" smooth="yes"/>
      <point x="709" y="18"/>
      <point x="727" y="0"/>
      <point x="772" y="0" type="curve" smooth="yes"/>
      <point x="1096" y="0" type="line" smooth="yes"/>
      <point x="1141" y="0"/>
      <point x="1159" y="18"/>
      <point x="1159" y="68" type="curve" smooth="yes"/>
      <point x="1159" y="118"/>
      <point x="1141" y="136"/>
      <point x="1096" y="136" type="curve" smooth="yes"/>
      <point x="1038" y="136" type="line"/>
      <point x="702" y="529" type="line"/>
      <point x="996" y="788" type="line"/>
      <point x="1055" y="788" type="line" smooth="yes"/>
      <point x="1100" y="788"/>
      <point x="1118" y="806"/>
      <point x="1118" y="856" type="curve" smooth="yes"/>
      <point x="1118" y="906"/>
      <point x="1100" y="924"/>
      <point x="1055" y="924" type="curve" smooth="yes"/>
      <point x="721" y="924" type="line" smooth="yes"/>
      <point x="676" y="924"/>
      <point x="658" y="906"/>
      <point x="658" y="856" type="curve" smooth="yes"/>
      <point x="658" y="806"/>
      <point x="676" y="788"/>
      <point x="721" y="788" type="curve" smooth="yes"/>
      <point x="792" y="788" type="line"/>
      <point x="411" y="452" type="line"/>
      <point x="411" y="1244" type="line" smooth="yes"/>
      <point x="411" y="1294"/>
      <point x="393" y="1312"/>
      <point x="348" y="1312" type="curve" smooth="yes"/>
    </contour>
  </outline>
</glyph>
<glyph name="l" format="1">
  <advance width="1228"/>
  <unicode hex="006C"/>
  <outline>
    <contour>
      <point x="553" y="136" type="line"/>
      <point x="240" y="136" type="line" smooth="yes"/>
      <point x="195" y="136"/>
      <point x="177" y="118"/>
      <point x="177" y="68" type="curve" smooth="yes"/>
      <point x="177" y="18"/>
      <point x="195" y="0"/>
      <point x="240" y="0" type="curve" smooth="yes"/>
      <point x="1024" y="0" type="line" smooth="yes"/>
      <point x="1069" y="0"/>
      <point x="1087" y="18"/>
      <point x="1087" y="68" type="curve" smooth="yes"/>
      <point x="1087" y="118"/>
      <point x="1069" y="136"/>
      <point x="1024" y="136" type="curve" smooth="yes"/>
      <point x="703" y="136" type="line"/>
      <point x="703" y="1244" type="line" smooth="yes"/>
      <point x="703" y="1294"/>
      <point x="685" y="1312"/>
      <point x="640" y="1312" type="curve" smooth="yes"/>
      <point x="280" y="1312" type="line" smooth="yes"/>
      <point x="235" y="1312"/>
      <point x="217" y="1294"/>
      <point x="217" y="1244" type="curve" smooth="yes"/>
      <point x="217" y="1194"/>
      <point x="235" y="1176"/>
      <point x="280" y="1176" type="curve" smooth="yes"/>
      <point x="553" y="1176" type="line"/>
    </contour>
  </outline>
</glyph>
<glyph name="n" format="1">
  <advance width="1228"/>
  <unicode hex="006E"/>
  <outline>
    <contour>
      <point x="591" y="946"/>
      <point x="470" y="872"/>
      <point x="382" y="736" type="curve"/>
      <point x="382" y="856" type="line" smooth="yes"/>
      <point x="382" y="906"/>
      <point x="364" y="924"/>
      <point x="319" y="924" type="curve" smooth="yes"/>
      <point x="140" y="924" type="line" smooth="yes"/>
      <point x="95" y="924"/>
      <point x="77" y="906"/>
      <point x="77" y="856" type="curve" smooth="yes"/>
      <point x="77" y="806"/>
      <point x="95" y="788"/>
      <point x="140" y="788" type="curve" smooth="yes"/>
      <point x="242" y="788" type="line"/>
      <point x="242" y="136" type="line"/>
      <point x="160" y="136" type="line" smooth="yes"/>
      <point x="115" y="136"/>
      <point x="97" y="118"/>
      <point x="97" y="68" type="curve" smooth="yes"/>
      <point x="97" y="18"/>
      <point x="115" y="0"/>
      <point x="160" y="0" type="curve" smooth="yes"/>
      <point x="484" y="0" type="line" smooth="yes"/>
      <point x="529" y="0"/>
      <point x="547" y="18"/>
      <point x="547" y="68" type="curve" smooth="yes"/>
      <point x="547" y="118"/>
      <point x="529" y="136"/>
      <point x="484" y="136" type="curve" smooth="yes"/>
      <point x="392" y="136" type="line"/>
      <point x="392" y="422" type="line" smooth="yes"/>
      <point x="392" y="640"/>
      <point x="541" y="798"/>
      <point x="712" y="798" type="curve" smooth="yes"/>
      <point x="821" y="798"/>
      <point x="874" y="720"/>
      <point x="874" y="605" type="curve" smooth="yes"/>
      <point x="874" y="136" type="line"/>
      <point x="782" y="136" type="line" smooth="yes"/>
      <point x="737" y="136"/>
      <point x="719" y="118"/>
      <point x="719" y="68" type="curve" smooth="yes"/>
      <point x="719" y="18"/>
      <point x="737" y="0"/>
      <point x="782" y="0" type="curve" smooth="yes"/>
      <point x="1106" y="0" type="line" smooth="yes"/>
      <point x="1151" y="0"/>
      <point x="1169" y="18"/>
      <point x="1169" y="68" type="curve" smooth="yes"/>
      <point x="1169" y="118"/>
      <point x="1151" y="136"/>
      <point x="1106" y="136" type="curve" smooth="yes"/>
      <point x="1024" y="136" type="line"/>
      <point x="1024" y="620" type="line" smooth="yes"/>
      <point x="1024" y="820"/>
      <point x="911" y="946"/>
      <point x="727" y="946" type="curve" smooth="yes"/>
    </contour>
  </outline>
</glyph>
<glyph name="p" format="1">
  <advance width="1228"/>
  <unicode hex="0070"/>
  <outline>
    <contour>
      <point x="202" y="-257" type="line"/>
      <point x="90" y="-257" type="line" smooth="yes"/>
      <point x="45" y="-257"/>
      <point x="27" y="-275"/>
      <point x="27" y="-325" type="curve" smooth="yes"/>
      <point x="27" y="-375"/>
      <point x="45" y="-393"/>
      <point x="90" y="-393" type="curve" smooth="yes"/>
      <point x="574" y="-393" type="line" smooth="yes"/>
      <point x="619" y="-393"/>
      <point x="637" y="-375"/>
      <point x="637" y="-325" type="curve" smooth="yes"/>
      <point x="637" y="-275"/>
      <point x="619" y="-257"/>
      <point x="574" y="-257" type="curve" smooth="yes"/>
      <point x="352" y="-257" type="line"/>
      <point x="352" y="184" type="line"/>
      <point x="431" y="85"/>
      <point x="536" y="28"/>
      <point x="669" y="28" type="curve" smooth="yes"/>
      <point x="916" y="28"/>
      <point x="1101" y="200"/>
      <point x="1101" y="487" type="curve" smooth="yes"/>
      <point x="1101" y="774"/>
      <point x="916" y="946"/>
      <point x="669" y="946" type="curve" smooth="yes"/>
      <point x="536" y="946"/>
      <point x="424" y="883"/>
      <point x="342" y="776" type="curve"/>
      <point x="342" y="856" type="line" smooth="yes"/>
      <point x="342" y="906"/>
      <point x="324" y="924"/>
      <point x="279" y="924" type="curve" smooth="yes"/>
      <point x="120" y="924" type="line" smooth="yes"/>
      <point x="75" y="924"/>
      <point x="57" y="906"/>
      <point x="57" y="856" type="curve" smooth="yes"/>
      <point x="57" y="806"/>
      <point x="75" y="788"/>
      <point x="120" y="788" type="curve" smooth="yes"/>
      <point x="202" y="788" type="line"/>
    </contour>
    <contour>
      <point x="352" y="684"/>
      <point x="482" y="798"/>
      <point x="659" y="798" type="curve" smooth="yes"/>
      <point x="840" y="798"/>
      <point x="943" y="668"/>
      <point x="943" y="487" type="curve" smooth="yes"/>
      <point x="943" y="306"/>
      <point x="840" y="176"/>
      <point x="659" y="176" type="curve" smooth="yes"/>
      <point x="482" y="176"/>
      <point x="352" y="290"/>
      <point x="352" y="487" type="curve" smooth="yes"/>
    </contour>
  </outline>
</glyph>
<glyph name="q" format="1">
  <advance width="1228"/>
  <unicode hex="0071"/>
  <outline>
    <contour>
      <point x="876" y="-257" type="line"/>
      <point x="654" y="-257" type="line" smooth="yes"/>
      <point x="609" y="-257"/>
      <point x="591" y="-275"/>
      <point x="591" y="-325" type="curve" smooth="yes"/>
      <point x="591" y="-375"/>
      <point x="609" y="-393"/>
      <point x="654" y="-393" type="curve" smooth="yes"/>
      <point x="1138" y="-393" type="line" smooth="yes"/>
      <point x="1183" y="-393"/>
      <point x="1201" y="-375"/>
      <point x="1201" y="-325" type="curve" smooth="yes"/>
      <point x="1201" y="-275"/>
      <point x="1183" y="-257"/>
      <point x="1138" y="-257" type="curve" smooth="yes"/>
      <point x="1026" y="-257" type="line"/>
      <point x="1026" y="788" type="line"/>
      <point x="1108" y="788" type="line" smooth="yes"/>
      <point x="1153" y="788"/>
      <point x="1171" y="806"/>
      <point x="1171" y="856" type="curve" smooth="yes"/>
      <point x="1171" y="906"/>
      <point x="1153" y="924"/>
      <point x="1108" y="924" type="curve" smooth="yes"/>
      <point x="949" y="924" type="line" smooth="yes"/>
      <point x="904" y="924"/>
      <point x="886" y="906"/>
      <point x="886" y="856" type="curve" smooth="yes"/>
      <point x="886" y="776" type="line"/>
      <point x="804" y="883"/>
      <point x="692" y="946"/>
      <point x="559" y="946" type="curve" smooth="yes"/>
      <point x="312" y="946"/>
      <point x="127" y="774"/>
      <point x="127" y="487" type="curve" smooth="yes"/>
      <point x="127" y="200"/>
      <point x="312" y="28"/>
      <point x="559" y="28" type="curve" smooth="yes"/>
      <point x="692" y="28"/>
      <point x="797" y="85"/>
      <point x="876" y="184" type="curve"/>
    </contour>
    <contour>
      <point x="876" y="290"/>
      <point x="746" y="176"/>
      <point x="569" y="176" type="curve" smooth="yes"/>
      <point x="388" y="176"/>
      <point x="285" y="306"/>
      <point x="285" y="487" type="curve" smooth="yes"/>
      <point x="285" y="668"/>
      <point x="388" y="798"/>
      <point x="569" y="798" type="curve" smooth="yes"/>
      <point x="746" y="798"/>
      <point x="876" y="684"/>
      <point x="876" y="487" type="curve" smooth="yes"/>
    </contour>
  </outline>
</glyph>
<glyph name="s" format="1">
  <advance width="1228"/>
  <unicode hex="0073"/>
  <outline>
    <contour>
      <point x="329" y="99" type="line"/>
      <point x="410" y="18"/>
      <point x="517" y="-22"/>
      <point x="662" y="-22" type="curve" smooth="yes"/>
      <point x="911" y="-22"/>
      <point x="1050" y="98"/>
      <point x="1050" y="277" type="curve" smooth="yes"/>
      <point x="1050" y="404"/>
      <point x="979" y="470"/>
      <point x="881" y="506" type="curve" smooth="yes"/>
      <point x="736" y="559"/>
      <point x="534" y="549"/>
      <point x="423" y="585" type="curve" smooth="yes"/>
      <point x="373" y="601"/>
      <point x="342" y="626"/>
      <point x="342" y="670" type="curve" smooth="yes"/>
      <point x="342" y="753"/>
      <point x="419" y="801"/>
      <point x="548" y="801" type="curve" smooth="yes"/>
      <point x="704" y="801"/>
      <point x="821" y="768"/>
      <point x="881" y="652" type="curve" smooth="yes"/>
      <point x="890" y="635"/>
      <point x="905" y="626"/>
      <point x="929" y="626" type="curve" smooth="yes"/>
      <point x="985" y="626"/>
      <point x="1004" y="645"/>
      <point x="1004" y="691" type="curve" smooth="yes"/>
      <point x="1004" y="881" type="line" smooth="yes"/>
      <point x="1004" y="927"/>
      <point x="985" y="946"/>
      <point x="929" y="946" type="curve" smooth="yes"/>
      <point x="873" y="946"/>
      <point x="854" y="927"/>
      <point x="854" y="881" type="curve" smooth="yes"/>
      <point x="854" y="836" type="line"/>
      <point x="779" y="904"/>
      <point x="670" y="946"/>
      <point x="538" y="946" type="curve" smooth="yes"/>
      <point x="336" y="946"/>
      <point x="184" y="849"/>
      <point x="184" y="670" type="curve" smooth="yes"/>
      <point x="184" y="553"/>
      <point x="248" y="491"/>
      <point x="338" y="455" type="curve" smooth="yes"/>
      <point x="482" y="398"/>
      <point x="691" y="408"/>
      <point x="807" y="369" type="curve" smooth="yes"/>
      <point x="859" y="352"/>
      <point x="892" y="325"/>
      <point x="892" y="277" type="curve" smooth="yes"/>
      <point x="892" y="186"/>
      <point x="811" y="123"/>
      <point x="652" y="123" type="curve" smooth="yes"/>
      <point x="467" y="123"/>
      <point x="357" y="178"/>
      <point x="308" y="307" type="curve" smooth="yes"/>
      <point x="297" y="335"/>
      <point x="283" y="348"/>
      <point x="254" y="348" type="curve" smooth="yes"/>
      <point x="198" y="348"/>
      <point x="179" y="329"/>
      <point x="179" y="283" type="curve" smooth="yes"/>
      <point x="179" y="43" type="line" smooth="yes"/>
      <point x="179" y="-3"/>
      <point x="198" y="-22"/>
      <point x="254" y="-22" type="curve" smooth="yes"/>
      <point x="310" y="-22"/>
      <point x="329" y="-3"/>
      <point x="329" y="43" type="curve" smooth="yes"/>
    </contour>
  </outline>
</glyph>
<glyph name="v" format="1">
  <advance width="1228"/>
  <unicode hex="0076"/>
  <outline>
    <contour>
      <point x="175" y="788" type="line"/>
      <point x="495" y="43" type="line" smooth="yes"/>
      <point x="514" y="-1"/>
      <point x="545" y="-22"/>
      <point x="611" y="-22" type="curve" smooth="yes"/>
      <point x="677" y="-22"/>
      <point x="710" y="-2"/>
      <point x="729" y="43" type="curve" smooth="yes"/>
      <point x="1052" y="788" type="line"/>
      <point x="1115" y="788" type="line" smooth="yes"/>
      <point x="1160" y="788"/>
      <point x="1178" y="806"/>
      <point x="1178" y="856" type="curve" smooth="yes"/>
      <point x="1178" y="906"/>
      <point x="1160" y="924"/>
      <point x="1115" y="924" type="curve" smooth="yes"/>
      <point x="801" y="924" type="line" smooth="yes"/>
      <point x="756" y="924"/>
      <point x="738" y="906"/>
      <point x="738" y="856" type="curve" smooth="yes"/>
      <point x="738" y="806"/>
      <point x="756" y="788"/>
      <point x="801" y="788" type="curve" smooth="yes"/>
      <point x="888" y="788" type="line"/>
      <point x="612" y="136" type="line"/>
      <point x="339" y="788" type="line"/>
      <point x="467" y="788" type="line" smooth="yes"/>
      <point x="512" y="788"/>
      <point x="530" y="806"/>
      <point x="530" y="856" type="curve" smooth="yes"/>
      <point x="530" y="906"/>
      <point x="512" y="924"/>
      <point x="467" y="924" type="curve" smooth="yes"/>
      <point x="113" y="924" type="line" smooth="yes"/>
      <point x="68" y="924"/>
      <point x="50" y="906"/>
      <point x="50" y="856" type="curve" smooth="yes"/>
      <point x="50" y="806"/>
      <point x="68" y="788"/>
      <point x="113" y="788" type="curve" smooth="yes"/>
    </contour>
  </outline>
</glyph>
<glyph name="w" format="1">
  <advance width="1228"/>
  <unicode hex="0077"/>
  <outline>
    <contour>
      <point x="71" y="788" type="line"/>
      <point x="264" y="43" type="line" smooth="yes"/>
      <point x="276" y="-4"/>
      <point x="298" y="-22"/>
      <point x="349" y="-22" type="curve" smooth="yes"/>
      <point x="406" y="-22"/>
      <point x="439" y="-3"/>
      <point x="455" y="43" type="curve" smooth="yes"/>
      <point x="610" y="477" type="line"/>
      <point x="763" y="43" type="line" smooth="yes"/>
      <point x="779" y="-2"/>
      <point x="810" y="-22"/>
      <point x="867" y="-22" type="curve" smooth="yes"/>
      <point x="918" y="-22"/>
      <point x="941" y="-5"/>
      <point x="954" y="43" type="curve" smooth="yes"/>
      <point x="1151" y="788" type="line"/>
      <point x="1175" y="788" type="line" smooth="yes"/>
      <point x="1220" y="788"/>
      <point x="1238" y="806"/>
      <point x="1238" y="856" type="curve" smooth="yes"/>
      <point x="1238" y="906"/>
      <point x="1220" y="924"/>
      <point x="1175" y="924" type="curve" smooth="yes"/>
      <point x="901" y="924" type="line" smooth="yes"/>
      <point x="856" y="924"/>
      <point x="838" y="906"/>
      <point x="838" y="856" type="curve" smooth="yes"/>
      <point x="838" y="806"/>
      <point x="856" y="788"/>
      <point x="901" y="788" type="curve" smooth="yes"/>
      <point x="1002" y="788" type="line"/>
      <point x="854" y="206" type="line"/>
      <point x="688" y="677" type="line" smooth="yes"/>
      <point x="679" y="703"/>
      <point x="656" y="717"/>
      <point x="611" y="717" type="curve" smooth="yes"/>
      <point x="567" y="717"/>
      <point x="544" y="696"/>
      <point x="535" y="670" type="curve" smooth="yes"/>
      <point x="368" y="206" type="line"/>
      <point x="224" y="788" type="line"/>
      <point x="347" y="788" type="line" smooth="yes"/>
      <point x="392" y="788"/>
      <point x="410" y="806"/>
      <point x="410" y="856" type="curve" smooth="yes"/>
      <point x="410" y="906"/>
      <point x="392" y="924"/>
      <point x="347" y="924" type="curve" smooth="yes"/>
      <point x="53" y="924" type="line" smooth="yes"/>
      <point x="8" y="924"/>
      <point x="-10" y="906"/>
      <point x="-10" y="856" type="curve" smooth="yes"/>
      <point x="-10" y="806"/>
      <point x="8" y="788"/>
      <point x="53" y="788" type="curve" smooth="yes"/>
    </contour>
  </outline>
</glyph>
<glyph name="braceleft" format="1">
  <advance width="1228"/>
  <unicode hex="007B"/>
  <outline>
    <contour>
      <point x="585" y="600"/>
      <point x="635" y="698"/>
      <point x="635" y="820" type="curve" smooth="yes"/>
      <point x="635" y="987" type="line" smooth="yes"/>
      <point x="635" y="1166"/>
      <point x="697" y="1236"/>
      <point x="847" y="1236" type="curve" smooth="yes"/>
      <point x="892" y="1236"/>
      <point x="910" y="1254"/>
      <point x="910" y="1304" type="curve" smooth="yes"/>
      <point x="910" y="1354"/>
      <point x="892" y="1372"/>
      <point x="847" y="1372" type="curve" smooth="yes"/>
      <point x="614" y="1372"/>
      <point x="485" y="1253"/>
      <point x="485" y="999" type="curve" smooth="yes"/>
      <point x="485" y="830" type="line" smooth="yes"/>
      <point x="485" y="685"/>
      <point x="417" y="609"/>
      <point x="270" y="609" type="curve" smooth="yes"/>
      <point x="225" y="609"/>
      <point x="207" y="591"/>
      <point x="207" y="541" type="curve" smooth="yes"/>
      <point x="207" y="491"/>
      <point x="225" y="473"/>
      <point x="270" y="473" type="curve" smooth="yes"/>
      <point x="417" y="473"/>
      <point x="485" y="398"/>
      <point x="485" y="253" type="curve" smooth="yes"/>
      <point x="485" y="40" type="line" smooth="yes"/>
      <point x="485" y="-214"/>
      <point x="614" y="-333"/>
      <point x="847" y="-333" type="curve" smooth="yes"/>
      <point x="892" y="-333"/>
      <point x="910" y="-315"/>
      <point x="910" y="-265" type="curve" smooth="yes"/>
      <point x="910" y="-215"/>
      <point x="892" y="-197"/>
      <point x="847" y="-197" type="curve" smooth="yes"/>
      <point x="697" y="-197"/>
      <point x="635" y="-127"/>
      <point x="635" y="52" type="curve" smooth="yes"/>
      <point x="635" y="263" type="line" smooth="yes"/>
      <point x="635" y="385"/>
      <point x="585" y="484"/>
      <point x="488" y="542" type="curve"/>
    </contour>
  </outline>
</glyph>
<glyph name="bar" format="1">
  <advance width="1228"/>
  <unicode hex="007C"/>
  <outline>
    <contour>
      <point x="539" y="-345" type="line" smooth="yes"/>
      <point x="539" y="-391"/>
      <point x="558" y="-410"/>
      <point x="614" y="-410" type="curve" smooth="yes"/>
      <point x="670" y="-410"/>
      <point x="689" y="-391"/>
      <point x="689" y="-345" type="curve" smooth="yes"/>
      <point x="689" y="1269" type="line" smooth="yes"/>
      <point x="689" y="1315"/>
      <point x="670" y="1334"/>
      <point x="614" y="1334" type="curve" smooth="yes"/>
      <point x="558" y="1334"/>
      <point x="539" y="1315"/>
      <point x="539" y="1269" type="curve" smooth="yes"/>
    </contour>
  </outline>
</glyph>
<glyph name="braceright" format="1">
  <advance width="1228"/>
  <unicode hex="007D"/>
  <outline>
    <contour>
      <point x="336" y="1372"/>
      <point x="318" y="1354"/>
      <point x="318" y="1304" type="curve" smooth="yes"/>
      <point x="318" y="1254"/>
      <point x="336" y="1236"/>
      <point x="381" y="1236" type="curve" smooth="yes"/>
      <point x="531" y="1236"/>
      <point x="593" y="1166"/>
      <point x="593" y="987" type="curve" smooth="yes"/>
      <point x="593" y="820" type="line" smooth="yes"/>
      <point x="593" y="698"/>
      <point x="643" y="600"/>
      <point x="740" y="542" type="curve"/>
      <point x="643" y="484"/>
      <point x="593" y="385"/>
      <point x="593" y="263" type="curve" smooth="yes"/>
      <point x="593" y="52" type="line" smooth="yes"/>
      <point x="593" y="-127"/>
      <point x="531" y="-197"/>
      <point x="381" y="-197" type="curve" smooth="yes"/>
      <point x="336" y="-197"/>
      <point x="318" y="-215"/>
      <point x="318" y="-265" type="curve" smooth="yes"/>
      <point x="318" y="-315"/>
      <point x="336" y="-333"/>
      <point x="381" y="-333" type="curve" smooth="yes"/>
      <point x="614" y="-333"/>
      <point x="743" y="-214"/>
      <point x="743" y="40" type="curve" smooth="yes"/>
      <point x="743" y="253" type="line" smooth="yes"/>
      <point x="743" y="398"/>
      <point x="811" y="473"/>
      <point x="958" y="473" type="curve" smooth="yes"/>
      <point x="1003" y="473"/>
      <point x="1021" y="491"/>
      <point x="1021" y="541" type="curve" smooth="yes"/>
      <point x="1021" y="591"/>
      <point x="1003" y="609"/>
      <point x="958" y="609" type="curve" smooth="yes"/>
      <point x="811" y="609"/>
      <point x="743" y="685"/>
      <point x="743" y="830" type="curve" smooth="yes"/>
      <point x="743" y="999" type="line" smooth="yes"/>
      <point x="743" y="1253"/>
      <point x="614" y="1372"/>
      <point x="381" y="1372" type="curve" smooth="yes"/>
    </contour>
  </outline>
</glyph>
<glyph name="asciitilde" format="1">
  <advance width="1228"/>
  <unicode hex="007E"/>
  <outline>
    <contour>
      <point x="296" y="533"/>
      <point x="352" y="548"/>
      <point x="408" y="548" type="curve" smooth="yes"/>
      <point x="541" y="548"/>
      <point x="673" y="462"/>
      <point x="816" y="462" type="curve" smooth="yes"/>
      <point x="892" y="462"/>
      <point x="972" y="486"/>
      <point x="1058" y="561" type="curve" smooth="yes"/>
      <point x="1080" y="580"/>
      <point x="1078" y="611"/>
      <point x="1060" y="641" type="curve" smooth="yes"/>
      <point x="1041" y="673"/>
      <point x="1013" y="689"/>
      <point x="990" y="672" type="curve" smooth="yes"/>
      <point x="932" y="629"/>
      <point x="876" y="614"/>
      <point x="820" y="614" type="curve" smooth="yes"/>
      <point x="686" y="614"/>
      <point x="555" y="700"/>
      <point x="412" y="700" type="curve" smooth="yes"/>
      <point x="335" y="700"/>
      <point x="256" y="676"/>
      <point x="170" y="601" type="curve" smooth="yes"/>
      <point x="148" y="582"/>
      <point x="150" y="551"/>
      <point x="168" y="521" type="curve" smooth="yes"/>
      <point x="187" y="489"/>
      <point x="215" y="473"/>
      <point x="238" y="490" type="curve" smooth="yes"/>
    </contour>
  </outline>
</glyph>
<glyph name="exclamdown" format="1">
  <advance width="1228"/>
  <unicode hex="00A1"/>
  <outline>
    <contour>
      <point x="679" y="-22" type="line" smooth="yes"/>
      <point x="709" y="-22"/>
      <point x="723" y="-7"/>
      <point x="720" y="28" type="curve" smooth="yes"/>
      <point x="672" y="675" type="line" smooth="yes"/>
      <point x="670" y="706"/>
      <point x="648" y="723"/>
      <point x="614" y="723" type="curve" smooth="yes"/>
      <point x="579" y="723"/>
      <point x="559" y="706"/>
      <point x="557" y="675" type="curve" smooth="yes"/>
      <point x="508" y="28" type="line" smooth="yes"/>
      <point x="505" y="-7"/>
      <point x="519" y="-22"/>
      <point x="549" y="-22" type="curve" smooth="yes"/>
    </contour>
    <contour>
      <point x="768" y="1140"/>
      <point x="699" y="1209"/>
      <point x="614" y="1209" type="curve" smooth="yes"/>
      <point x="529" y="1209"/>
      <point x="460" y="1140"/>
      <point x="460" y="1055" type="curve" smooth="yes"/>
      <point x="460" y="970"/>
      <point x="529" y="901"/>
      <point x="614" y="901" type="curve" smooth="yes"/>
      <point x="699" y="901"/>
      <point x="768" y="970"/>
      <point x="768" y="1055" type="curve" smooth="yes"/>
    </contour>
  </outline>
</glyph>
<glyph name="sterling" format="1">
  <advance width="1228"/>
  <unicode hex="00A3"/>
  <outline>
    <contour>
      <point x="413" y="1209"/>
      <point x="278" y="1069"/>
      <point x="278" y="884" type="curve" smooth="yes"/>
      <point x="278" y="781"/>
      <point x="328" y="701"/>
      <point x="368" y="620" type="curve"/>
      <point x="273" y="620" type="line" smooth="yes"/>
      <point x="228" y="620"/>
      <point x="210" y="602"/>
      <point x="210" y="552" type="curve" smooth="yes"/>
      <point x="210" y="502"/>
      <point x="228" y="484"/>
      <point x="273" y="484" type="curve" smooth="yes"/>
      <point x="414" y="484" type="line"/>
      <point x="430" y="348"/>
      <point x="386" y="247"/>
      <point x="215" y="92" type="curve" smooth="yes"/>
      <point x="194" y="71"/>
      <point x="202" y="34"/>
      <point x="229" y="0" type="curve" smooth="yes"/>
      <point x="253" y="-30"/>
      <point x="281" y="-44"/>
      <point x="307" y="-34" type="curve" smooth="yes"/>
      <point x="395" y="3"/>
      <point x="467" y="15"/>
      <point x="528" y="15" type="curve" smooth="yes"/>
      <point x="638" y="15"/>
      <point x="716" y="-24"/>
      <point x="803" y="-24" type="curve" smooth="yes"/>
      <point x="863" y="-24"/>
      <point x="928" y="-5"/>
      <point x="1010" y="56" type="curve" smooth="yes"/>
      <point x="1033" y="72"/>
      <point x="1040" y="110"/>
      <point x="1015" y="146" type="curve" smooth="yes"/>
      <point x="992" y="182"/>
      <point x="960" y="193"/>
      <point x="940" y="179" type="curve" smooth="yes"/>
      <point x="881" y="136"/>
      <point x="833" y="123"/>
      <point x="789" y="123" type="curve" smooth="yes"/>
      <point x="718" y="123"/>
      <point x="655" y="157"/>
      <point x="564" y="157" type="curve" smooth="yes"/>
      <point x="525" y="157"/>
      <point x="479" y="151"/>
      <point x="426" y="132" type="curve"/>
      <point x="531" y="236"/>
      <point x="577" y="353"/>
      <point x="567" y="484" type="curve"/>
      <point x="845" y="484" type="line" smooth="yes"/>
      <point x="890" y="484"/>
      <point x="908" y="502"/>
      <point x="908" y="552" type="curve" smooth="yes"/>
      <point x="908" y="602"/>
      <point x="890" y="620"/>
      <point x="845" y="620" type="curve" smooth="yes"/>
      <point x="535" y="620" type="line"/>
      <point x="494" y="718"/>
      <point x="434" y="792"/>
      <point x="434" y="884" type="curve" smooth="yes"/>
      <point x="434" y="982"/>
      <point x="503" y="1061"/>
      <point x="617" y="1061" type="curve" smooth="yes"/>
      <point x="697" y="1061"/>
      <point x="764" y="1043"/>
      <point x="812" y="1014" type="curve"/>
      <point x="812" y="924" type="line" smooth="yes"/>
      <point x="812" y="878"/>
      <point x="831" y="859"/>
      <point x="887" y="859" type="curve" smooth="yes"/>
      <point x="943" y="859"/>
      <point x="962" y="878"/>
      <point x="962" y="924" type="curve" smooth="yes"/>
      <point x="962" y="1051" type="line" smooth="yes"/>
      <point x="962" y="1077"/>
      <point x="956" y="1094"/>
      <point x="941" y="1105" type="curve" smooth="yes"/>
      <point x="853" y="1168"/>
      <point x="742" y="1209"/>
      <point x="618" y="1209" type="curve" smooth="yes"/>
    </contour>
  </outline>
</glyph>
<glyph name="currency" format="1">
  <advance width="1228"/>
  <unicode hex="00A4"/>
  <outline>
    <contour>
      <point x="380" y="1006"/>
      <point x="204" y="836"/>
      <point x="204" y="602" type="curve" smooth="yes"/>
      <point x="204" y="368"/>
      <point x="380" y="198"/>
      <point x="614" y="198" type="curve" smooth="yes"/>
      <point x="848" y="198"/>
      <point x="1024" y="368"/>
      <point x="1024" y="602" type="curve" smooth="yes"/>
      <point x="1024" y="836"/>
      <point x="848" y="1006"/>
      <point x="614" y="1006" type="curve" smooth="yes"/>
    </contour>
    <contour>
      <point x="134" y="224" type="line" smooth="yes"/>
      <point x="102" y="192"/>
      <point x="103" y="165"/>
      <point x="140" y="128" type="curve" smooth="yes"/>
      <point x="177" y="91"/>
      <point x="204" y="90"/>
      <point x="236" y="122" type="curve" smooth="yes"/>
      <point x="437" y="323" type="line"/>
      <point x="335" y="425" type="line"/>
    </contour>
    <contour>
      <point x="791" y="323" type="line"/>
      <point x="992" y="122" type="line" smooth="yes"/>
      <point x="1024" y="90"/>
      <point x="1051" y="91"/>
      <point x="1088" y="128" type="curve" smooth="yes"/>
      <point x="1125" y="165"/>
      <point x="1126" y="192"/>
      <point x="1094" y="224" type="curve" smooth="yes"/>
      <point x="893" y="425" type="line"/>
    </contour>
    <contour>
      <point x="791" y="881" type="line"/>
      <point x="893" y="779" type="line"/>
      <point x="1094" y="980" type="line" smooth="yes"/>
      <point x="1126" y="1012"/>
      <point x="1125" y="1039"/>
      <point x="1088" y="1076" type="curve" smooth="yes"/>
      <point x="1051" y="1113"/>
      <point x="1024" y="1114"/>
      <point x="992" y="1082" type="curve" smooth="yes"/>
    </contour>
    <contour>
      <point x="204" y="1114"/>
      <point x="177" y="1113"/>
      <point x="140" y="1076" type="curve" smooth="yes"/>
      <point x="103" y="1039"/>
      <point x="102" y="1012"/>
      <point x="134" y="980" type="curve" smooth="yes"/>
      <point x="335" y="779" type="line"/>
      <point x="437" y="881" type="line"/>
      <point x="236" y="1082" type="line" smooth="yes"/>
    </contour>
    <contour>
      <point x="771" y="864"/>
      <point x="876" y="754"/>
      <point x="876" y="602" type="curve" smooth="yes"/>
      <point x="876" y="450"/>
      <point x="771" y="340"/>
      <point x="614" y="340" type="curve" smooth="yes"/>
      <point x="457" y="340"/>
      <point x="352" y="450"/>
      <point x="352" y="602" type="curve" smooth="yes"/>
      <point x="352" y="754"/>
      <point x="457" y="864"/>
      <point x="614" y="864" type="curve" smooth="yes"/>
    </contour>
  </outline>
</glyph>
<glyph name="brokenbar" format="1">
  <advance width="1228"/>
  <unicode hex="00A6"/>
  <outline>
    <contour>
      <point x="539" y="-350" type="line" smooth="yes"/>
      <point x="539" y="-396"/>
      <point x="558" y="-415"/>
      <point x="614" y="-415" type="curve" smooth="yes"/>
      <point x="670" y="-415"/>
      <point x="689" y="-396"/>
      <point x="689" y="-350" type="curve" smooth="yes"/>
      <point x="689" y="269" type="line" smooth="yes"/>
      <point x="689" y="315"/>
      <point x="670" y="334"/>
      <point x="614" y="334" type="curve" smooth="yes"/>
      <point x="558" y="334"/>
      <point x="539" y="315"/>
      <point x="539" y="269" type="curve" smooth="yes"/>
    </contour>
    <contour>
      <point x="539" y="650" type="line" smooth="yes"/>
      <point x="539" y="604"/>
      <point x="558" y="585"/>
      <point x="614" y="585" type="curve" smooth="yes"/>
      <point x="670" y="585"/>
      <point x="689" y="604"/>
      <point x="689" y="650" type="curve" smooth="yes"/>
      <point x="689" y="1269" type="line" smooth="yes"/>
      <point x="689" y="1315"/>
      <point x="670" y="1334"/>
      <point x="614" y="1334" type="curve" smooth="yes"/>
      <point x="558" y="1334"/>
      <point x="539" y="1315"/>
      <point x="539" y="1269" type="curve" smooth="yes"/>
    </contour>
  </outline>
</glyph>
<glyph name="dieresis" format="1">
  <advance width="1228"/>
  <unicode hex="00A8"/>
  <outline>
    <contour>
      <point x="269" y="1126"/>
      <point x="325" y="1070"/>
      <point x="394" y="1070" type="curve" smooth="yes"/>
      <point x="463" y="1070"/>
      <point x="519" y="1126"/>
      <point x="519" y="1195" type="curve" smooth="yes"/>
      <point x="519" y="1264"/>
      <point x="463" y="1320"/>
      <point x="394" y="1320" type="curve" smooth="yes"/>
      <point x="325" y="1320"/>
      <point x="269" y="1264"/>
      <point x="269" y="1195" type="curve" smooth="yes"/>
    </contour>
    <contour>
      <point x="709" y="1126"/>
      <point x="765" y="1070"/>
      <point x="834" y="1070" type="curve" smooth="yes"/>
      <point x="903" y="1070"/>
      <point x="959" y="1126"/>
      <point x="959" y="1195" type="curve" smooth="yes"/>
      <point x="959" y="1264"/>
      <point x="903" y="1320"/>
      <point x="834" y="1320" type="curve" smooth="yes"/>
      <point x="765" y="1320"/>
      <point x="709" y="1264"/>
      <point x="709" y="1195" type="curve" smooth="yes"/>
    </contour>
  </outline>
</glyph>
<glyph name="ordfeminine" format="1">
  <advance width="1228"/>
  <unicode hex="00AA"/>
  <outline>
    <contour>
      <point x="530" y="1209"/>
      <point x="417" y="1180"/>
      <point x="335" y="1128" type="curve" smooth="yes"/>
      <point x="310" y="1112"/>
      <point x="303" y="1085"/>
      <point x="328" y="1042" type="curve" smooth="yes"/>
      <point x="349" y="1005"/>
      <point x="377" y="1000"/>
      <point x="402" y="1015" type="curve" smooth="yes"/>
      <point x="476" y="1058"/>
      <point x="553" y="1080"/>
      <point x="634" y="1080" type="curve" smooth="yes"/>
      <point x="740" y="1080"/>
      <point x="782" y="1029"/>
      <point x="782" y="950" type="curve" smooth="yes"/>
      <point x="782" y="899" type="line"/>
      <point x="709" y="919"/>
      <point x="631" y="927"/>
      <point x="548" y="927" type="curve" smooth="yes"/>
      <point x="380" y="927"/>
      <point x="242" y="859"/>
      <point x="242" y="687" type="curve" smooth="yes"/>
      <point x="242" y="541"/>
      <point x="358" y="465"/>
      <point x="512" y="465" type="curve" smooth="yes"/>
      <point x="622" y="465"/>
      <point x="715" y="507"/>
      <point x="794" y="574" type="curve"/>
      <point x="811" y="512"/>
      <point x="872" y="483"/>
      <point x="935" y="483" type="curve" smooth="yes"/>
      <point x="984" y="483" type="line" smooth="yes"/>
      <point x="1019" y="483"/>
      <point x="1033" y="499"/>
      <point x="1033" y="541" type="curve" smooth="yes"/>
      <point x="1033" y="584"/>
      <point x="1019" y="602"/>
      <point x="984" y="602" type="curve" smooth="yes"/>
      <point x="967" y="602" type="line" smooth="yes"/>
      <point x="934" y="602"/>
      <point x="917" y="616"/>
      <point x="917" y="657" type="curve" smooth="yes"/>
      <point x="917" y="954" type="line" smooth="yes"/>
      <point x="917" y="1115"/>
      <point x="821" y="1209"/>
      <point x="634" y="1209" type="curve" smooth="yes"/>
    </contour>
    <contour>
      <point x="638" y="801"/>
      <point x="712" y="792"/>
      <point x="782" y="776" type="curve"/>
      <point x="782" y="707" type="line"/>
      <point x="706" y="632"/>
      <point x="620" y="590"/>
      <point x="516" y="590" type="curve" smooth="yes"/>
      <point x="435" y="590"/>
      <point x="383" y="625"/>
      <point x="383" y="690" type="curve" smooth="yes"/>
      <point x="383" y="772"/>
      <point x="456" y="801"/>
      <point x="559" y="801" type="curve" smooth="yes"/>
    </contour>
  </outline>
</glyph>
<glyph name="logicalnot" format="1">
  <advance width="1228"/>
  <unicode hex="00AC"/>
  <outline>
    <contour>
      <point x="928" y="709" type="line"/>
      <point x="928" y="383" type="line" smooth="yes"/>
      <point x="928" y="337"/>
      <point x="947" y="318"/>
      <point x="1003" y="318" type="curve" smooth="yes"/>
      <point x="1059" y="318"/>
      <point x="1078" y="337"/>
      <point x="1078" y="383" type="curve" smooth="yes"/>
      <point x="1078" y="777" type="line" smooth="yes"/>
      <point x="1078" y="827"/>
      <point x="1060" y="845"/>
      <point x="1015" y="845" type="curve" smooth="yes"/>
      <point x="203" y="845" type="line" smooth="yes"/>
      <point x="158" y="845"/>
      <point x="140" y="827"/>
      <point x="140" y="777" type="curve" smooth="yes"/>
      <point x="140" y="727"/>
      <point x="158" y="709"/>
      <point x="203" y="709" type="curve" smooth="yes"/>
    </contour>
  </outline>
</glyph>
<glyph name="macron" format="1">
  <advance width="1228"/>
  <unicode hex="00AF"/>
  <outline>
    <contour>
      <point x="333" y="1246" type="line" smooth="yes"/>
      <point x="288" y="1246"/>
      <point x="270" y="1228"/>
      <point x="270" y="1178" type="curve" smooth="yes"/>
      <point x="270" y="1128"/>
      <point x="288" y="1110"/>
      <point x="333" y="1110" type="curve" smooth="yes"/>
      <point x="895" y="1110" type="line" smooth="yes"/>
      <point x="940" y="1110"/>
      <point x="958" y="1128"/>
      <point x="958" y="1178" type="curve" smooth="yes"/>
      <point x="958" y="1228"/>
      <point x="940" y="1246"/>
      <point x="895" y="1246" type="curve" smooth="yes"/>
    </contour>
  </outline>
</glyph>
<glyph name="degree" format="1">
  <advance width="1228"/>
  <unicode hex="00B0"/>
  <outline>
    <contour>
      <point x="246" y="774"/>
      <point x="371" y="649"/>
      <point x="526" y="649" type="curve" smooth="yes"/>
      <point x="681" y="649"/>
      <point x="806" y="774"/>
      <point x="806" y="929" type="curve" smooth="yes"/>
      <point x="806" y="1084"/>
      <point x="681" y="1209"/>
      <point x="526" y="1209" type="curve" smooth="yes"/>
      <point x="371" y="1209"/>
      <point x="246" y="1084"/>
      <point x="246" y="929" type="curve" smooth="yes"/>
    </contour>
    <contour>
      <point x="381" y="1009"/>
      <point x="446" y="1074"/>
      <point x="526" y="1074" type="curve" smooth="yes"/>
      <point x="606" y="1074"/>
      <point x="671" y="1009"/>
      <point x="671" y="929" type="curve" smooth="yes"/>
      <point x="671" y="849"/>
      <point x="606" y="784"/>
      <point x="526" y="784" type="curve" smooth="yes"/>
      <point x="446" y="784"/>
      <point x="381" y="849"/>
      <point x="381" y="929" type="curve" smooth="yes"/>
    </contour>
  </outline>
</glyph>
<glyph name="threesuperior" format="1">
  <advance width="1228"/>
  <unicode hex="00B3"/>
  <outline>
    <contour>
      <point x="514" y="1334"/>
      <point x="411" y="1312"/>
      <point x="332" y="1265" type="curve" smooth="yes"/>
      <point x="319" y="1257"/>
      <point x="311" y="1242"/>
      <point x="311" y="1223" type="curve" smooth="yes"/>
      <point x="311" y="1113" type="line" smooth="yes"/>
      <point x="311" y="1080"/>
      <point x="329" y="1062"/>
      <point x="378" y="1062" type="curve" smooth="yes"/>
      <point x="428" y="1062"/>
      <point x="446" y="1080"/>
      <point x="446" y="1113" type="curve" smooth="yes"/>
      <point x="446" y="1176" type="line"/>
      <point x="488" y="1194"/>
      <point x="537" y="1205"/>
      <point x="593" y="1205" type="curve" smooth="yes"/>
      <point x="695" y="1205"/>
      <point x="759" y="1165"/>
      <point x="759" y="1086" type="curve" smooth="yes"/>
      <point x="759" y="999"/>
      <point x="697" y="965"/>
      <point x="589" y="965" type="curve" smooth="yes"/>
      <point x="550" y="965" type="line" smooth="yes"/>
      <point x="518" y="965"/>
      <point x="506" y="937"/>
      <point x="506" y="902" type="curve" smooth="yes"/>
      <point x="506" y="866"/>
      <point x="518" y="840"/>
      <point x="550" y="840" type="curve" smooth="yes"/>
      <point x="602" y="840" type="line" smooth="yes"/>
      <point x="711" y="840"/>
      <point x="786" y="813"/>
      <point x="786" y="720" type="curve" smooth="yes"/>
      <point x="786" y="639"/>
      <point x="717" y="594"/>
      <point x="598" y="594" type="curve" smooth="yes"/>
      <point x="523" y="594"/>
      <point x="443" y="617"/>
      <point x="378" y="650" type="curve" smooth="yes"/>
      <point x="344" y="665"/>
      <point x="322" y="639"/>
      <point x="310" y="607" type="curve" smooth="yes"/>
      <point x="299" y="577"/>
      <point x="296" y="545"/>
      <point x="324" y="530" type="curve" smooth="yes"/>
      <point x="406" y="485"/>
      <point x="511" y="465"/>
      <point x="605" y="465" type="curve" smooth="yes"/>
      <point x="820" y="465"/>
      <point x="926" y="565"/>
      <point x="926" y="719" type="curve" smooth="yes"/>
      <point x="926" y="820"/>
      <point x="872" y="886"/>
      <point x="787" y="915" type="curve"/>
      <point x="858" y="953"/>
      <point x="899" y="1012"/>
      <point x="899" y="1096" type="curve" smooth="yes"/>
      <point x="899" y="1236"/>
      <point x="788" y="1334"/>
      <point x="604" y="1334" type="curve" smooth="yes"/>
    </contour>
  </outline>
</glyph>
<glyph name="cedilla" format="1">
  <advance width="1228"/>
  <unicode hex="00B8"/>
  <outline>
    <contour>
      <point x="529" y="28" type="line"/>
      <point x="529" y="-175" type="line" smooth="yes"/>
      <point x="529" y="-213"/>
      <point x="550" y="-218"/>
      <point x="569" y="-217" type="curve" smooth="yes"/>
      <point x="661" y="-210"/>
      <point x="714" y="-229"/>
      <point x="714" y="-285" type="curve" smooth="yes"/>
      <point x="714" y="-327"/>
      <point x="677" y="-352"/>
      <point x="611" y="-352" type="curve" smooth="yes"/>
      <point x="544" y="-352"/>
      <point x="470" y="-338"/>
      <point x="418" y="-318" type="curve" smooth="yes"/>
      <point x="393" y="-308"/>
      <point x="370" y="-330"/>
      <point x="359" y="-356" type="curve" smooth="yes"/>
      <point x="348" y="-382"/>
      <point x="350" y="-413"/>
      <point x="374" y="-424" type="curve" smooth="yes"/>
      <point x="443" y="-456"/>
      <point x="532" y="-472"/>
      <point x="621" y="-472" type="curve" smooth="yes"/>
      <point x="788" y="-472"/>
      <point x="870" y="-393"/>
      <point x="870" y="-281" type="curve" smooth="yes"/>
      <point x="870" y="-187"/>
      <point x="802" y="-110"/>
      <point x="664" y="-113" type="curve"/>
      <point x="664" y="28" type="line"/>
    </contour>
  </outline>
</glyph>
<glyph name="onesuperior" format="1">
  <advance width="1228"/>
  <unicode hex="00B9"/>
  <outline>
    <contour>
      <point x="569" y="608" type="line"/>
      <point x="365" y="608" type="line" smooth="yes"/>
      <point x="333" y="608"/>
      <point x="315" y="591"/>
      <point x="315" y="546" type="curve" smooth="yes"/>
      <point x="315" y="501"/>
      <point x="333" y="483"/>
      <point x="365" y="483" type="curve" smooth="yes"/>
      <point x="898" y="483" type="line" smooth="yes"/>
      <point x="930" y="483"/>
      <point x="947" y="501"/>
      <point x="947" y="546" type="curve" smooth="yes"/>
      <point x="947" y="591"/>
      <point x="930" y="608"/>
      <point x="898" y="608" type="curve" smooth="yes"/>
      <point x="704" y="608" type="line"/>
      <point x="704" y="1292" type="line" smooth="yes"/>
      <point x="704" y="1327"/>
      <point x="674" y="1342"/>
      <point x="638" y="1330" type="curve" smooth="yes"/>
      <point x="354" y="1239" type="line" smooth="yes"/>
      <point x="319" y="1228"/>
      <point x="312" y="1202"/>
      <point x="326" y="1162" type="curve" smooth="yes"/>
      <point x="339" y="1124"/>
      <point x="362" y="1111"/>
      <point x="395" y="1122" type="curve" smooth="yes"/>
      <point x="569" y="1179" type="line"/>
    </contour>
  </outline>
</glyph>
<glyph name="onequarter" format="1">
  <advance width="1228"/>
  <unicode hex="00BC"/>
  <outline>
    <contour>
      <point x="998" y="495"/>
      <point x="980" y="482"/>
      <point x="961" y="458" type="curve" smooth="yes"/>
      <point x="644" y="81" type="line" smooth="yes"/>
      <point x="634" y="67"/>
      <point x="630" y="56"/>
      <point x="630" y="36" type="curve" smooth="yes"/>
      <point x="630" y="-9"/>
      <point x="649" y="-29"/>
      <point x="675" y="-29" type="curve" smooth="yes"/>
      <point x="989" y="-29" type="line"/>
      <point x="989" y="-182" type="line" smooth="yes"/>
      <point x="989" y="-208"/>
      <point x="1005" y="-222"/>
      <point x="1046" y="-222" type="curve" smooth="yes"/>
      <point x="1088" y="-222"/>
      <point x="1102" y="-208"/>
      <point x="1102" y="-182" type="curve" smooth="yes"/>
      <point x="1102" y="-29" type="line"/>
      <point x="1193" y="-29" type="line" smooth="yes"/>
      <point x="1219" y="-29"/>
      <point x="1233" y="-14"/>
      <point x="1233" y="24" type="curve" smooth="yes"/>
      <point x="1233" y="62"/>
      <point x="1219" y="76"/>
      <point x="1193" y="76" type="curve" smooth="yes"/>
      <point x="1102" y="76" type="line"/>
      <point x="1102" y="448" type="line" smooth="yes"/>
      <point x="1102" y="476"/>
      <point x="1065" y="495"/>
      <point x="1028" y="495" type="curve" smooth="yes"/>
    </contour>
    <contour>
      <point x="989" y="76" type="line"/>
      <point x="773" y="76" type="line"/>
      <point x="994" y="342" type="line"/>
    </contour>
    <contour>
      <point x="34" y="1315" type="line" smooth="yes"/>
      <point x="4" y="1305"/>
      <point x="-1" y="1284"/>
      <point x="10" y="1250" type="curve" smooth="yes"/>
      <point x="21" y="1219"/>
      <point x="40" y="1208"/>
      <point x="68" y="1217" type="curve" smooth="yes"/>
      <point x="213" y="1264" type="line"/>
      <point x="213" y="788" type="line"/>
      <point x="43" y="788" type="line" smooth="yes"/>
      <point x="16" y="788"/>
      <point x="1" y="773"/>
      <point x="1" y="736" type="curve" smooth="yes"/>
      <point x="1" y="698"/>
      <point x="16" y="683"/>
      <point x="43" y="683" type="curve" smooth="yes"/>
      <point x="488" y="683" type="line" smooth="yes"/>
      <point x="515" y="683"/>
      <point x="529" y="698"/>
      <point x="529" y="736" type="curve" smooth="yes"/>
      <point x="529" y="773"/>
      <point x="515" y="788"/>
      <point x="488" y="788" type="curve" smooth="yes"/>
      <point x="326" y="788" type="line"/>
      <point x="326" y="1359" type="line" smooth="yes"/>
      <point x="326" y="1388"/>
      <point x="301" y="1401"/>
      <point x="271" y="1391" type="curve" smooth="yes"/>
    </contour>
    <contour>
      <point x="125" y="279" type="line" smooth="yes"/>
      <point x="106" y="267"/>
      <point x="106" y="240"/>
      <point x="125" y="214" type="curve" smooth="yes"/>
      <point x="144" y="188"/>
      <point x="168" y="180"/>
      <point x="185" y="190" type="curve" smooth="yes"/>
      <point x="1103" y="751" type="line" smooth="yes"/>
      <point x="1122" y="763"/>
      <point x="1122" y="790"/>
      <point x="1103" y="816" type="curve" smooth="yes"/>
      <point x="1084" y="842"/>
      <point x="1060" y="850"/>
      <point x="1043" y="840" type="curve" smooth="yes"/>
    </contour>
  </outline>
</glyph>
<glyph name="questiondown" format="1">
  <advance width="1228"/>
  <unicode hex="00BF"/>
  <outline>
    <contour>
      <point x="612" y="828"/>
      <point x="587" y="808"/>
      <point x="585" y="777" type="curve" smooth="yes"/>
      <point x="575" y="636" type="line"/>
      <point x="369" y="552"/>
      <point x="258" y="470"/>
      <point x="258" y="291" type="curve" smooth="yes"/>
      <point x="258" y="106"/>
      <point x="389" y="-22"/>
      <point x="610" y="-22" type="curve" smooth="yes"/>
      <point x="732" y="-22"/>
      <point x="848" y="8"/>
      <point x="949" y="69" type="curve" smooth="yes"/>
      <point x="967" y="80"/>
      <point x="974" y="97"/>
      <point x="974" y="125" type="curve" smooth="yes"/>
      <point x="974" y="252" type="line" smooth="yes"/>
      <point x="974" y="298"/>
      <point x="955" y="317"/>
      <point x="899" y="317" type="curve" smooth="yes"/>
      <point x="843" y="317"/>
      <point x="824" y="298"/>
      <point x="824" y="252" type="curve" smooth="yes"/>
      <point x="824" y="163" type="line"/>
      <point x="762" y="137"/>
      <point x="690" y="126"/>
      <point x="609" y="126" type="curve" smooth="yes"/>
      <point x="484" y="126"/>
      <point x="416" y="194"/>
      <point x="416" y="291" type="curve" smooth="yes"/>
      <point x="416" y="391"/>
      <point x="482" y="441"/>
      <point x="634" y="503" type="curve" smooth="yes"/>
      <point x="703" y="531" type="line" smooth="yes"/>
      <point x="726" y="540"/>
      <point x="734" y="556"/>
      <point x="733" y="582" type="curve" smooth="yes"/>
      <point x="723" y="777" type="line" smooth="yes"/>
      <point x="721" y="808"/>
      <point x="696" y="828"/>
      <point x="654" y="828" type="curve" smooth="yes"/>
    </contour>
    <contour>
      <point x="578" y="1209"/>
      <point x="516" y="1147"/>
      <point x="516" y="1071" type="curve" smooth="yes"/>
      <point x="516" y="995"/>
      <point x="578" y="933"/>
      <point x="654" y="933" type="curve" smooth="yes"/>
      <point x="730" y="933"/>
      <point x="792" y="995"/>
      <point x="792" y="1071" type="curve" smooth="yes"/>
      <point x="792" y="1147"/>
      <point x="730" y="1209"/>
      <point x="654" y="1209" type="curve" smooth="yes"/>
    </contour>
  </outline>
</glyph>
<glyph name="Ccedilla" format="1">
  <advance width="1228"/>
  <unicode hex="00C7"/>
  <outline>
    <contour>
      <point x="943" y="1209"/>
      <point x="924" y="1190"/>
      <point x="924" y="1144" type="curve" smooth="yes"/>
      <point x="924" y="1086" type="line"/>
      <point x="859" y="1163"/>
      <point x="763" y="1209"/>
      <point x="634" y="1209" type="curve" smooth="yes"/>
      <point x="329" y="1209"/>
      <point x="118" y="963"/>
      <point x="118" y="593" type="curve" smooth="yes"/>
      <point x="118" y="253.281"/>
      <point x="287.447" y="18.9388"/>
      <point x="559" y="-17.1428" type="curve"/>
      <point x="559" y="-175" type="line" smooth="yes"/>
      <point x="559" y="-213"/>
      <point x="580" y="-218"/>
      <point x="599" y="-217" type="curve" smooth="yes"/>
      <point x="691" y="-210"/>
      <point x="744" y="-229"/>
      <point x="744" y="-285" type="curve" smooth="yes"/>
      <point x="744" y="-327"/>
      <point x="707" y="-352"/>
      <point x="641" y="-352" type="curve" smooth="yes"/>
      <point x="574" y="-352"/>
      <point x="500" y="-338"/>
      <point x="448" y="-318" type="curve" smooth="yes"/>
      <point x="423" y="-308"/>
      <point x="400" y="-330"/>
      <point x="389" y="-356" type="curve" smooth="yes"/>
      <point x="378" y="-382"/>
      <point x="380" y="-413"/>
      <point x="404" y="-424" type="curve" smooth="yes"/>
      <point x="473" y="-456"/>
      <point x="562" y="-472"/>
      <point x="651" y="-472" type="curve" smooth="yes"/>
      <point x="818" y="-472"/>
      <point x="900" y="-393"/>
      <point x="900" y="-281" type="curve" smooth="yes"/>
      <point x="900" y="-187"/>
      <point x="832" y="-110"/>
      <point x="694" y="-113" type="curve"/>
      <point x="694" y="-19.7502" type="line"/>
      <point x="825.158" y="-9.87159"/>
      <point x="952.622" y="32.6088"/>
      <point x="1062" y="109" type="curve" smooth="yes"/>
      <point x="1097" y="134"/>
      <point x="1103" y="167"/>
      <point x="1075" y="214" type="curve" smooth="yes"/>
      <point x="1046" y="263"/>
      <point x="1012" y="260"/>
      <point x="985" y="239" type="curve" smooth="yes"/>
      <point x="889" y="165"/>
      <point x="766" y="126"/>
      <point x="634" y="126" type="curve" smooth="yes"/>
      <point x="417" y="126"/>
      <point x="276" y="305"/>
      <point x="276" y="593" type="curve" smooth="yes"/>
      <point x="276" y="881"/>
      <point x="427" y="1061"/>
      <point x="644" y="1061" type="curve" smooth="yes"/>
      <point x="837" y="1061"/>
      <point x="924" y="945"/>
      <point x="924" y="814" type="curve" smooth="yes"/>
      <point x="924" y="768"/>
      <point x="943" y="749"/>
      <point x="999" y="749" type="curve" smooth="yes"/>
      <point x="1055" y="749"/>
      <point x="1074" y="768"/>
      <point x="1074" y="814" type="curve" smooth="yes"/>
      <point x="1074" y="1144" type="line" smooth="yes"/>
      <point x="1074" y="1190"/>
      <point x="1055" y="1209"/>
      <point x="999" y="1209" type="curve" smooth="yes"/>
    </contour>
  </outline>
</glyph>
<glyph name="Eth" format="1">
  <advance width="1228"/>
  <unicode hex="00D0"/>
  <outline>
    <contour>
      <point x="143" y="1187" type="line" smooth="yes"/>
      <point x="98" y="1187"/>
      <point x="80" y="1169"/>
      <point x="80" y="1119" type="curve" smooth="yes"/>
      <point x="80" y="1069"/>
      <point x="98" y="1051"/>
      <point x="143" y="1051" type="curve" smooth="yes"/>
      <point x="255" y="1051" type="line"/>
      <point x="255" y="680" type="line"/>
      <point x="113" y="680" type="line" smooth="yes"/>
      <point x="68" y="680"/>
      <point x="50" y="662"/>
      <point x="50" y="612" type="curve" smooth="yes"/>
      <point x="50" y="562"/>
      <point x="68" y="544"/>
      <point x="113" y="544" type="curve" smooth="yes"/>
      <point x="255" y="544" type="line"/>
      <point x="255" y="136" type="line"/>
      <point x="143" y="136" type="line" smooth="yes"/>
      <point x="98" y="136"/>
      <point x="80" y="118"/>
      <point x="80" y="68" type="curve" smooth="yes"/>
      <point x="80" y="18"/>
      <point x="98" y="0"/>
      <point x="143" y="0" type="curve" smooth="yes"/>
      <point x="614" y="0" type="line" smooth="yes"/>
      <point x="929" y="0"/>
      <point x="1140" y="223"/>
      <point x="1140" y="593" type="curve" smooth="yes"/>
      <point x="1140" y="963"/>
      <point x="929" y="1187"/>
      <point x="614" y="1187" type="curve" smooth="yes"/>
    </contour>
    <contour>
      <point x="828" y="1051"/>
      <point x="982" y="891"/>
      <point x="982" y="593" type="curve" smooth="yes"/>
      <point x="982" y="295"/>
      <point x="828" y="136"/>
      <point x="591" y="136" type="curve" smooth="yes"/>
      <point x="405" y="136" type="line"/>
      <point x="405" y="544" type="line"/>
      <point x="595" y="544" type="line" smooth="yes"/>
      <point x="640" y="544"/>
      <point x="658" y="562"/>
      <point x="658" y="612" type="curve" smooth="yes"/>
      <point x="658" y="662"/>
      <point x="640" y="680"/>
      <point x="595" y="680" type="curve" smooth="yes"/>
      <point x="405" y="680" type="line"/>
      <point x="405" y="1051" type="line"/>
      <point x="591" y="1051" type="line" smooth="yes"/>
    </contour>
  </outline>
</glyph>
<glyph name="multiply" format="1">
  <advance width="1228"/>
  <unicode hex="00D7"/>
  <outline>
    <contour>
      <point x="614" y="678" type="line"/>
      <point x="353" y="939" type="line" smooth="yes"/>
      <point x="321" y="971"/>
      <point x="295" y="971"/>
      <point x="260" y="936" type="curve" smooth="yes"/>
      <point x="225" y="901"/>
      <point x="225" y="875"/>
      <point x="257" y="843" type="curve" smooth="yes"/>
      <point x="518" y="582" type="line"/>
      <point x="257" y="321" type="line" smooth="yes"/>
      <point x="225" y="289"/>
      <point x="225" y="263"/>
      <point x="260" y="228" type="curve" smooth="yes"/>
      <point x="295" y="193"/>
      <point x="321" y="193"/>
      <point x="353" y="225" type="curve" smooth="yes"/>
      <point x="614" y="486" type="line"/>
      <point x="875" y="225" type="line" smooth="yes"/>
      <point x="907" y="193"/>
      <point x="933" y="193"/>
      <point x="968" y="228" type="curve" smooth="yes"/>
      <point x="1003" y="263"/>
      <point x="1003" y="289"/>
      <point x="971" y="321" type="curve" smooth="yes"/>
      <point x="710" y="582" type="line"/>
      <point x="971" y="843" type="line" smooth="yes"/>
      <point x="1003" y="875"/>
      <point x="1003" y="901"/>
      <point x="968" y="936" type="curve" smooth="yes"/>
      <point x="933" y="971"/>
      <point x="907" y="971"/>
      <point x="875" y="939" type="curve" smooth="yes"/>
    </contour>
  </outline>
</glyph>
<glyph name="Oslash" format="1">
  <advance width="1228"/>
  <unicode hex="00D8"/>
  <outline>
    <contour>
      <point x="991" y="1220"/>
      <point x="962" y="1217"/>
      <point x="936" y="1179" type="curve" smooth="yes"/>
      <point x="177" y="90" type="line" smooth="yes"/>
      <point x="151" y="52"/>
      <point x="157" y="25"/>
      <point x="198" y="-3" type="curve" smooth="yes"/>
      <point x="238" y="-31"/>
      <point x="266" y="-28"/>
      <point x="292" y="10" type="curve" smooth="yes"/>
      <point x="1051" y="1099" type="line" smooth="yes"/>
      <point x="1077" y="1136"/>
      <point x="1071" y="1164"/>
      <point x="1031" y="1192" type="curve" smooth="yes"/>
    </contour>
    <component base="O"/>
  </outline>
</glyph>
<glyph name="ae" format="1">
  <advance width="1228"/>
  <unicode hex="00E6"/>
  <outline>
    <contour>
      <point x="759" y="946"/>
      <point x="682" y="907"/>
      <point x="629" y="830" type="curve"/>
      <point x="586" y="903"/>
      <point x="515" y="946"/>
      <point x="408" y="946" type="curve" smooth="yes"/>
      <point x="314" y="946"/>
      <point x="224" y="913"/>
      <point x="139" y="840" type="curve" smooth="yes"/>
      <point x="109" y="814"/>
      <point x="108" y="775"/>
      <point x="137" y="742" type="curve" smooth="yes"/>
      <point x="166" y="710"/>
      <point x="202" y="710"/>
      <point x="231" y="732" type="curve" smooth="yes"/>
      <point x="292" y="779"/>
      <point x="347" y="801"/>
      <point x="408" y="801" type="curve" smooth="yes"/>
      <point x="514" y="801"/>
      <point x="539" y="726"/>
      <point x="539" y="602" type="curve" smooth="yes"/>
      <point x="539" y="580" type="line"/>
      <point x="261" y="580"/>
      <point x="75" y="468"/>
      <point x="75" y="240" type="curve" smooth="yes"/>
      <point x="75" y="79"/>
      <point x="178" y="-22"/>
      <point x="335" y="-22" type="curve" smooth="yes"/>
      <point x="443" y="-22"/>
      <point x="545" y="33"/>
      <point x="609" y="122" type="curve"/>
      <point x="664" y="24"/>
      <point x="748" y="-22"/>
      <point x="853" y="-22" type="curve" smooth="yes"/>
      <point x="948" y="-22"/>
      <point x="1038" y="14"/>
      <point x="1112" y="84" type="curve" smooth="yes"/>
      <point x="1144" y="114"/>
      <point x="1149" y="149"/>
      <point x="1118" y="187" type="curve" smooth="yes"/>
      <point x="1087" y="225"/>
      <point x="1048" y="226"/>
      <point x="1023" y="201" type="curve" smooth="yes"/>
      <point x="967" y="147"/>
      <point x="917" y="123"/>
      <point x="853" y="123" type="curve" smooth="yes"/>
      <point x="764" y="123"/>
      <point x="693" y="199"/>
      <point x="689" y="440" type="curve"/>
      <point x="1088" y="440" type="line" smooth="yes"/>
      <point x="1133" y="440"/>
      <point x="1151" y="457"/>
      <point x="1151" y="502" type="curve"/>
      <point x="1144" y="769"/>
      <point x="1065" y="946"/>
      <point x="853" y="946" type="curve" smooth="yes"/>
    </contour>
    <contour>
      <point x="539" y="340" type="line" smooth="yes"/>
      <point x="539" y="211"/>
      <point x="452" y="119"/>
      <point x="339" y="119" type="curve" smooth="yes"/>
      <point x="272" y="119"/>
      <point x="228" y="163"/>
      <point x="228" y="240" type="curve" smooth="yes"/>
      <point x="228" y="371"/>
      <point x="322" y="440"/>
      <point x="539" y="440" type="curve"/>
    </contour>
    <contour>
      <point x="946" y="801"/>
      <point x="985" y="717"/>
      <point x="994" y="580" type="curve"/>
      <point x="694" y="580" type="line"/>
      <point x="710" y="739"/>
      <point x="763" y="801"/>
      <point x="855" y="801" type="curve" smooth="yes"/>
    </contour>
  </outline>
</glyph>
<glyph name="divide" format="1">
  <advance width="1228"/>
  <unicode hex="00F7"/>
  <outline>
    <contour>
      <point x="233" y="650" type="line" smooth="yes"/>
      <point x="188" y="650"/>
      <point x="170" y="632"/>
      <point x="170" y="582" type="curve" smooth="yes"/>
      <point x="170" y="532"/>
      <point x="188" y="514"/>
      <point x="233" y="514" type="curve" smooth="yes"/>
      <point x="995" y="514" type="line" smooth="yes"/>
      <point x="1040" y="514"/>
      <point x="1058" y="532"/>
      <point x="1058" y="582" type="curve" smooth="yes"/>
      <point x="1058" y="632"/>
      <point x="1040" y="650"/>
      <point x="995" y="650" type="curve" smooth="yes"/>
    </contour>
    <contour>
      <point x="547" y="359"/>
      <point x="494" y="305"/>
      <point x="494" y="239" type="curve" smooth="yes"/>
      <point x="494" y="173"/>
      <point x="547" y="120"/>
      <point x="613" y="120" type="curve" smooth="yes"/>
      <point x="679" y="120"/>
      <point x="733" y="173"/>
      <point x="733" y="239" type="curve" smooth="yes"/>
      <point x="733" y="305"/>
      <point x="679" y="359"/>
      <point x="613" y="359" type="curve" smooth="yes"/>
    </contour>
    <contour>
      <point x="547" y="1045"/>
      <point x="494" y="991"/>
      <point x="494" y="925" type="curve" smooth="yes"/>
      <point x="494" y="859"/>
      <point x="547" y="806"/>
      <point x="613" y="806" type="curve" smooth="yes"/>
      <point x="679" y="806"/>
      <point x="733" y="859"/>
      <point x="733" y="925" type="curve" smooth="yes"/>
      <point x="733" y="991"/>
      <point x="679" y="1045"/>
      <point x="613" y="1045" type="curve" smooth="yes"/>
    </contour>
  </outline>
</glyph>
<glyph name="oslash" format="1">
  <advance width="1228"/>
  <unicode hex="00F8"/>
  <outline>
    <contour>
      <point x="332" y="946"/>
      <point x="120" y="744"/>
      <point x="120" y="462" type="curve" smooth="yes"/>
      <point x="120" y="350"/>
      <point x="153" y="250"/>
      <point x="211" y="171" type="curve"/>
      <point x="138" y="101" type="line" smooth="yes"/>
      <point x="105" y="69"/>
      <point x="106" y="41"/>
      <point x="140" y="6" type="curve" smooth="yes"/>
      <point x="174" y="-29"/>
      <point x="202" y="-31"/>
      <point x="235" y="1" type="curve" smooth="yes"/>
      <point x="310" y="73" type="line"/>
      <point x="392" y="12"/>
      <point x="497" y="-22"/>
      <point x="614" y="-22" type="curve" smooth="yes"/>
      <point x="896" y="-22"/>
      <point x="1108" y="180"/>
      <point x="1108" y="462" type="curve" smooth="yes"/>
      <point x="1108" y="574"/>
      <point x="1074" y="673"/>
      <point x="1016" y="752" type="curve"/>
      <point x="1089" y="822" type="line" smooth="yes"/>
      <point x="1123" y="854"/>
      <point x="1122" y="883"/>
      <point x="1088" y="918" type="curve" smooth="yes"/>
      <point x="1054" y="953"/>
      <point x="1025" y="955"/>
      <point x="992" y="923" type="curve" smooth="yes"/>
      <point x="917" y="851" type="line"/>
      <point x="835" y="911"/>
      <point x="730" y="946"/>
      <point x="614" y="946" type="curve" smooth="yes"/>
    </contour>
    <contour>
      <point x="933" y="591"/>
      <point x="950" y="530"/>
      <point x="950" y="462" type="curve" smooth="yes"/>
      <point x="950" y="267"/>
      <point x="814" y="126"/>
      <point x="614" y="126" type="curve" smooth="yes"/>
      <point x="539" y="126"/>
      <point x="474" y="145"/>
      <point x="421" y="180" type="curve"/>
      <point x="903" y="643" type="line"/>
    </contour>
    <contour>
      <point x="688" y="798"/>
      <point x="753" y="778"/>
      <point x="806" y="744" type="curve"/>
      <point x="325" y="281" type="line"/>
      <point x="295" y="332"/>
      <point x="278" y="393"/>
      <point x="278" y="462" type="curve" smooth="yes"/>
      <point x="278" y="657"/>
      <point x="414" y="798"/>
      <point x="614" y="798" type="curve" smooth="yes"/>
    </contour>
  </outline>
</glyph>
<glyph name="thorn" format="1">
  <advance width="1228"/>
  <unicode hex="00FE"/>
  <outline>
    <contour>
      <point x="120" y="1312" type="line" smooth="yes"/>
      <point x="75" y="1312"/>
      <point x="57" y="1294"/>
      <point x="57" y="1244" type="curve" smooth="yes"/>
      <point x="57" y="1194"/>
      <point x="75" y="1176"/>
      <point x="120" y="1176" type="curve" smooth="yes"/>
      <point x="202" y="1176" type="line"/>
      <point x="202" y="-252" type="line"/>
      <point x="90" y="-252" type="line" smooth="yes"/>
      <point x="45" y="-252"/>
      <point x="27" y="-270"/>
      <point x="27" y="-320" type="curve" smooth="yes"/>
      <point x="27" y="-370"/>
      <point x="45" y="-388"/>
      <point x="90" y="-388" type="curve" smooth="yes"/>
      <point x="574" y="-388" type="line" smooth="yes"/>
      <point x="619" y="-388"/>
      <point x="637" y="-370"/>
      <point x="637" y="-320" type="curve" smooth="yes"/>
      <point x="637" y="-270"/>
      <point x="619" y="-252"/>
      <point x="574" y="-252" type="curve" smooth="yes"/>
      <point x="352" y="-252" type="line"/>
      <point x="352" y="184" type="line"/>
      <point x="431" y="85"/>
      <point x="536" y="28"/>
      <point x="669" y="28" type="curve" smooth="yes"/>
      <point x="916" y="28"/>
      <point x="1101" y="200"/>
      <point x="1101" y="487" type="curve" smooth="yes"/>
      <point x="1101" y="774"/>
      <point x="916" y="946"/>
      <point x="669" y="946" type="curve" smooth="yes"/>
      <point x="541" y="946"/>
      <point x="433" y="891"/>
      <point x="352" y="793" type="curve"/>
      <point x="352" y="1244" type="line" smooth="yes"/>
      <point x="352" y="1294"/>
      <point x="334" y="1312"/>
      <point x="289" y="1312" type="curve" smooth="yes"/>
    </contour>
    <contour>
      <point x="840" y="798"/>
      <point x="943" y="668"/>
      <point x="943" y="487" type="curve" smooth="yes"/>
      <point x="943" y="306"/>
      <point x="840" y="176"/>
      <point x="659" y="176" type="curve" smooth="yes"/>
      <point x="482" y="176"/>
      <point x="352" y="290"/>
      <point x="352" y="487" type="curve" smooth="yes"/>
      <point x="352" y="684"/>
      <point x="482" y="798"/>
      <point x="659" y="798" type="curve" smooth="yes"/>
    </contour>
  </outline>
</glyph>
<glyph name="dcaron" format="1">
  <advance width="1228"/>
  <unicode hex="010F"/>
  <outline>
    <contour>
      <point x="594" y="1312" type="line" smooth="yes"/>
      <point x="549" y="1312"/>
      <point x="531" y="1294"/>
      <point x="531" y="1244" type="curve" smooth="yes"/>
      <point x="531" y="1194"/>
      <point x="549" y="1176"/>
      <point x="594" y="1176" type="curve" smooth="yes"/>
      <point x="776" y="1176" type="line"/>
      <point x="776" y="755" type="line"/>
      <point x="716" y="842"/>
      <point x="630" y="896"/>
      <point x="509" y="896" type="curve" smooth="yes"/>
      <point x="292" y="896"/>
      <point x="127" y="724"/>
      <point x="127" y="437" type="curve" smooth="yes"/>
      <point x="127" y="150"/>
      <point x="292" y="-22"/>
      <point x="509" y="-22" type="curve" smooth="yes"/>
      <point x="639" y="-22"/>
      <point x="726" y="44"/>
      <point x="786" y="138" type="curve"/>
      <point x="786" y="68" type="line" smooth="yes"/>
      <point x="786" y="18"/>
      <point x="804" y="0"/>
      <point x="849" y="0" type="curve" smooth="yes"/>
      <point x="1008" y="0" type="line" smooth="yes"/>
      <point x="1053" y="0"/>
      <point x="1071" y="18"/>
      <point x="1071" y="68" type="curve" smooth="yes"/>
      <point x="1071" y="118"/>
      <point x="1053" y="136"/>
      <point x="1008" y="136" type="curve" smooth="yes"/>
      <point x="926" y="136" type="line"/>
      <point x="926" y="1244" type="line" smooth="yes"/>
      <point x="926" y="1294"/>
      <point x="908" y="1312"/>
      <point x="863" y="1312" type="curve" smooth="yes"/>
    </contour>
    <contour>
      <point x="676" y="748"/>
      <point x="776" y="634"/>
      <point x="776" y="437" type="curve" smooth="yes"/>
      <point x="776" y="240"/>
      <point x="676" y="126"/>
      <point x="519" y="126" type="curve" smooth="yes"/>
      <point x="368" y="126"/>
      <point x="285" y="256"/>
      <point x="285" y="437" type="curve" smooth="yes"/>
      <point x="285" y="618"/>
      <point x="368" y="748"/>
      <point x="519" y="748" type="curve" smooth="yes"/>
    </contour>
    <component base="caron.alt" xOffset="807"/>
  </outline>
</glyph>
<glyph name="eogonek" format="1">
  <advance width="1228"/>
  <unicode hex="0119"/>
  <outline>
    <contour>
      <point x="344" y="946"/>
      <point x="146" y="753"/>
      <point x="146" y="462" type="curve" smooth="yes"/>
      <point x="146" y="161"/>
      <point x="311" y="-22"/>
      <point x="603" y="-22" type="curve" smooth="yes"/>
      <point x="658" y="-22"/>
      <point x="713" y="-17"/>
      <point x="765" y="-9" type="curve"/>
      <point x="671" y="-94"/>
      <point x="611" y="-182"/>
      <point x="611" y="-281" type="curve" smooth="yes"/>
      <point x="611" y="-397"/>
      <point x="687" y="-472"/>
      <point x="811" y="-472" type="curve" smooth="yes"/>
      <point x="873" y="-472"/>
      <point x="929" y="-462"/>
      <point x="975" y="-446" type="curve" smooth="yes"/>
      <point x="1004" y="-436"/>
      <point x="1013" y="-415"/>
      <point x="1007" y="-374" type="curve" smooth="yes"/>
      <point x="1002" y="-337"/>
      <point x="983" y="-322"/>
      <point x="957" y="-326" type="curve" smooth="yes"/>
      <point x="922" y="-332"/>
      <point x="883" y="-336"/>
      <point x="844" y="-336" type="curve" smooth="yes"/>
      <point x="799" y="-336"/>
      <point x="767" y="-310"/>
      <point x="767" y="-261" type="curve" smooth="yes"/>
      <point x="767" y="-193"/>
      <point x="809" y="-116"/>
      <point x="928" y="-5" type="curve" smooth="yes"/>
      <point x="981" y="44"/>
      <point x="1004" y="59"/>
      <point x="1016" y="65" type="curve" smooth="yes"/>
      <point x="1060" y="87"/>
      <point x="1069" y="122"/>
      <point x="1051" y="165" type="curve" smooth="yes"/>
      <point x="1034" y="207"/>
      <point x="1005" y="233"/>
      <point x="963" y="209" type="curve" smooth="yes"/>
      <point x="872" y="156"/>
      <point x="737" y="123"/>
      <point x="603" y="123" type="curve" smooth="yes"/>
      <point x="418" y="123"/>
      <point x="314" y="225"/>
      <point x="304" y="425" type="curve"/>
      <point x="1028" y="425" type="line" smooth="yes"/>
      <point x="1073" y="425"/>
      <point x="1091" y="442"/>
      <point x="1091" y="487" type="curve"/>
      <point x="1076" y="753"/>
      <point x="920" y="946"/>
      <point x="623" y="946" type="curve" smooth="yes"/>
    </contour>
    <contour>
      <point x="799" y="801"/>
      <point x="897" y="715"/>
      <point x="925" y="565" type="curve"/>
      <point x="314" y="565" type="line"/>
      <point x="347" y="712"/>
      <point x="457" y="801"/>
      <point x="623" y="801" type="curve" smooth="yes"/>
    </contour>
  </outline>
</glyph>
<glyph name="Hbar" format="1">
  <advance width="1228"/>
  <unicode hex="0126"/>
  <outline>
    <contour>
      <point x="771" y="1187" type="line" smooth="yes"/>
      <point x="726" y="1187"/>
      <point x="708" y="1169"/>
      <point x="708" y="1119" type="curve" smooth="yes"/>
      <point x="708" y="1069"/>
      <point x="726" y="1051"/>
      <point x="771" y="1051" type="curve" smooth="yes"/>
      <point x="863" y="1051" type="line"/>
      <point x="863" y="924" type="line"/>
      <point x="365" y="924" type="line"/>
      <point x="365" y="1051" type="line"/>
      <point x="457" y="1051" type="line" smooth="yes"/>
      <point x="502" y="1051"/>
      <point x="520" y="1069"/>
      <point x="520" y="1119" type="curve" smooth="yes"/>
      <point x="520" y="1169"/>
      <point x="502" y="1187"/>
      <point x="457" y="1187" type="curve" smooth="yes"/>
      <point x="143" y="1187" type="line" smooth="yes"/>
      <point x="98" y="1187"/>
      <point x="80" y="1169"/>
      <point x="80" y="1119" type="curve" smooth="yes"/>
      <point x="80" y="1069"/>
      <point x="98" y="1051"/>
      <point x="143" y="1051" type="curve" smooth="yes"/>
      <point x="215" y="1051" type="line"/>
      <point x="215" y="924" type="line"/>
      <point x="93" y="924" type="line" smooth="yes"/>
      <point x="48" y="924"/>
      <point x="30" y="906"/>
      <point x="30" y="856" type="curve" smooth="yes"/>
      <point x="30" y="806"/>
      <point x="48" y="788"/>
      <point x="93" y="788" type="curve" smooth="yes"/>
      <point x="215" y="788" type="line"/>
      <point x="215" y="136" type="line"/>
      <point x="143" y="136" type="line" smooth="yes"/>
      <point x="98" y="136"/>
      <point x="80" y="118"/>
      <point x="80" y="68" type="curve" smooth="yes"/>
      <point x="80" y="18"/>
      <point x="98" y="0"/>
      <point x="143" y="0" type="curve" smooth="yes"/>
      <point x="457" y="0" type="line" smooth="yes"/>
      <point x="502" y="0"/>
      <point x="520" y="18"/>
      <point x="520" y="68" type="curve" smooth="yes"/>
      <point x="520" y="118"/>
      <point x="502" y="136"/>
      <point x="457" y="136" type="curve" smooth="yes"/>
      <point x="365" y="136" type="line"/>
      <point x="365" y="544" type="line"/>
      <point x="863" y="544" type="line"/>
      <point x="863" y="136" type="line"/>
      <point x="771" y="136" type="line" smooth="yes"/>
      <point x="726" y="136"/>
      <point x="708" y="118"/>
      <point x="708" y="68" type="curve" smooth="yes"/>
      <point x="708" y="18"/>
      <point x="726" y="0"/>
      <point x="771" y="0" type="curve" smooth="yes"/>
      <point x="1085" y="0" type="line" smooth="yes"/>
      <point x="1130" y="0"/>
      <point x="1148" y="18"/>
      <point x="1148" y="68" type="curve" smooth="yes"/>
      <point x="1148" y="118"/>
      <point x="1130" y="136"/>
      <point x="1085" y="136" type="curve" smooth="yes"/>
      <point x="1013" y="136" type="line"/>
      <point x="1013" y="788" type="line"/>
      <point x="1135" y="788" type="line" smooth="yes"/>
      <point x="1180" y="788"/>
      <point x="1198" y="806"/>
      <point x="1198" y="856" type="curve" smooth="yes"/>
      <point x="1198" y="906"/>
      <point x="1180" y="924"/>
      <point x="1135" y="924" type="curve" smooth="yes"/>
      <point x="1013" y="924" type="line"/>
      <point x="1013" y="1051" type="line"/>
      <point x="1085" y="1051" type="line" smooth="yes"/>
      <point x="1130" y="1051"/>
      <point x="1148" y="1069"/>
      <point x="1148" y="1119" type="curve" smooth="yes"/>
      <point x="1148" y="1169"/>
      <point x="1130" y="1187"/>
      <point x="1085" y="1187" type="curve" smooth="yes"/>
    </contour>
    <contour>
      <point x="863" y="680" type="line"/>
      <point x="365" y="680" type="line"/>
      <point x="365" y="788" type="line"/>
      <point x="863" y="788" type="line"/>
    </contour>
  </outline>
</glyph>
<glyph name="hbar" format="1">
  <advance width="1228"/>
  <unicode hex="0127"/>
  <outline>
    <contour>
      <point x="83" y="1126" type="line" smooth="yes"/>
      <point x="38" y="1126"/>
      <point x="20" y="1108"/>
      <point x="20" y="1058" type="curve" smooth="yes"/>
      <point x="20" y="1008"/>
      <point x="38" y="990"/>
      <point x="83" y="990" type="curve" smooth="yes"/>
      <point x="232" y="990" type="line"/>
      <point x="232" y="136" type="line"/>
      <point x="150" y="136" type="line" smooth="yes"/>
      <point x="105" y="136"/>
      <point x="87" y="118"/>
      <point x="87" y="68" type="curve" smooth="yes"/>
      <point x="87" y="18"/>
      <point x="105" y="0"/>
      <point x="150" y="0" type="curve" smooth="yes"/>
      <point x="474" y="0" type="line" smooth="yes"/>
      <point x="519" y="0"/>
      <point x="537" y="18"/>
      <point x="537" y="68" type="curve" smooth="yes"/>
      <point x="537" y="118"/>
      <point x="519" y="136"/>
      <point x="474" y="136" type="curve" smooth="yes"/>
      <point x="382" y="136" type="line"/>
      <point x="382" y="422" type="line" smooth="yes"/>
      <point x="382" y="640"/>
      <point x="531" y="798"/>
      <point x="702" y="798" type="curve" smooth="yes"/>
      <point x="811" y="798"/>
      <point x="864" y="720"/>
      <point x="864" y="605" type="curve" smooth="yes"/>
      <point x="864" y="136" type="line"/>
      <point x="772" y="136" type="line" smooth="yes"/>
      <point x="727" y="136"/>
      <point x="709" y="118"/>
      <point x="709" y="68" type="curve" smooth="yes"/>
      <point x="709" y="18"/>
      <point x="727" y="0"/>
      <point x="772" y="0" type="curve" smooth="yes"/>
      <point x="1096" y="0" type="line" smooth="yes"/>
      <point x="1141" y="0"/>
      <point x="1159" y="18"/>
      <point x="1159" y="68" type="curve" smooth="yes"/>
      <point x="1159" y="118"/>
      <point x="1141" y="136"/>
      <point x="1096" y="136" type="curve" smooth="yes"/>
      <point x="1014" y="136" type="line"/>
      <point x="1014" y="620" type="line" smooth="yes"/>
      <point x="1014" y="820"/>
      <point x="901" y="946"/>
      <point x="717" y="946" type="curve" smooth="yes"/>
      <point x="585" y="946"/>
      <point x="468" y="875"/>
      <point x="382" y="746" type="curve"/>
      <point x="382" y="990" type="line"/>
      <point x="645" y="990" type="line" smooth="yes"/>
      <point x="690" y="990"/>
      <point x="708" y="1008"/>
      <point x="708" y="1058" type="curve" smooth="yes"/>
      <point x="708" y="1108"/>
      <point x="690" y="1126"/>
      <point x="645" y="1126" type="curve" smooth="yes"/>
      <point x="382" y="1126" type="line"/>
      <point x="382" y="1244" type="line" smooth="yes"/>
      <point x="382" y="1294"/>
      <point x="364" y="1312"/>
      <point x="319" y="1312" type="curve" smooth="yes"/>
      <point x="140" y="1312" type="line" smooth="yes"/>
      <point x="95" y="1312"/>
      <point x="77" y="1294"/>
      <point x="77" y="1244" type="curve" smooth="yes"/>
      <point x="77" y="1194"/>
      <point x="95" y="1176"/>
      <point x="140" y="1176" type="curve" smooth="yes"/>
      <point x="232" y="1176" type="line"/>
      <point x="232" y="1126" type="line"/>
    </contour>
  </outline>
</glyph>
<glyph name="dotlessi" format="1">
  <advance width="1228"/>
  <unicode hex="0131"/>
  <outline>
    <contour>
      <point x="563" y="136" type="line"/>
      <point x="250" y="136" type="line" smooth="yes"/>
      <point x="205" y="136"/>
      <point x="187" y="118"/>
      <point x="187" y="68" type="curve" smooth="yes"/>
      <point x="187" y="18"/>
      <point x="205" y="0"/>
      <point x="250" y="0" type="curve" smooth="yes"/>
      <point x="1034" y="0" type="line" smooth="yes"/>
      <point x="1079" y="0"/>
      <point x="1097" y="18"/>
      <point x="1097" y="68" type="curve" smooth="yes"/>
      <point x="1097" y="118"/>
      <point x="1079" y="136"/>
      <point x="1034" y="136" type="curve" smooth="yes"/>
      <point x="713" y="136" type="line"/>
      <point x="713" y="856" type="line" smooth="yes"/>
      <point x="713" y="906"/>
      <point x="695" y="924"/>
      <point x="650" y="924" type="curve" smooth="yes"/>
      <point x="310" y="924" type="line" smooth="yes"/>
      <point x="265" y="924"/>
      <point x="247" y="906"/>
      <point x="247" y="856" type="curve" smooth="yes"/>
      <point x="247" y="806"/>
      <point x="265" y="788"/>
      <point x="310" y="788" type="curve" smooth="yes"/>
      <point x="563" y="788" type="line"/>
    </contour>
  </outline>
</glyph>
<glyph name="IJ" format="1">
  <advance width="1228"/>
  <unicode hex="0132"/>
  <outline>
    <contour>
      <point x="783" y="1187" type="line" smooth="yes"/>
      <point x="738" y="1187"/>
      <point x="720" y="1169"/>
      <point x="720" y="1119" type="curve" smooth="yes"/>
      <point x="720" y="1069"/>
      <point x="738" y="1051"/>
      <point x="783" y="1051" type="curve" smooth="yes"/>
      <point x="924" y="1051" type="line"/>
      <point x="924" y="263" type="line" smooth="yes"/>
      <point x="924" y="167"/>
      <point x="888" y="126"/>
      <point x="805" y="126" type="curve" smooth="yes"/>
      <point x="767" y="126"/>
      <point x="732" y="136"/>
      <point x="705" y="161" type="curve"/>
      <point x="705" y="415" type="line" smooth="yes"/>
      <point x="705" y="461"/>
      <point x="686" y="480"/>
      <point x="630" y="480" type="curve" smooth="yes"/>
      <point x="574" y="480"/>
      <point x="555" y="461"/>
      <point x="555" y="415" type="curve" smooth="yes"/>
      <point x="555" y="130" type="line" smooth="yes"/>
      <point x="555" y="107"/>
      <point x="560" y="90"/>
      <point x="571" y="79" type="curve" smooth="yes"/>
      <point x="629" y="19"/>
      <point x="713" y="-22"/>
      <point x="804" y="-22" type="curve" smooth="yes"/>
      <point x="993" y="-22"/>
      <point x="1074" y="74"/>
      <point x="1074" y="233" type="curve" smooth="yes"/>
      <point x="1074" y="1051" type="line"/>
      <point x="1145" y="1051" type="line" smooth="yes"/>
      <point x="1190" y="1051"/>
      <point x="1208" y="1069"/>
      <point x="1208" y="1119" type="curve" smooth="yes"/>
      <point x="1208" y="1169"/>
      <point x="1190" y="1187"/>
      <point x="1145" y="1187" type="curve" smooth="yes"/>
    </contour>
    <contour>
      <point x="93" y="1187" type="line" smooth="yes"/>
      <point x="48" y="1187"/>
      <point x="30" y="1169"/>
      <point x="30" y="1119" type="curve" smooth="yes"/>
      <point x="30" y="1069"/>
      <point x="48" y="1051"/>
      <point x="93" y="1051" type="curve" smooth="yes"/>
      <point x="179" y="1051" type="line"/>
      <point x="179" y="136" type="line"/>
      <point x="83" y="136" type="line" smooth="yes"/>
      <point x="38" y="136"/>
      <point x="20" y="118"/>
      <point x="20" y="68" type="curve" smooth="yes"/>
      <point x="20" y="18"/>
      <point x="38" y="0"/>
      <point x="83" y="0" type="curve" smooth="yes"/>
      <point x="425" y="0" type="line" smooth="yes"/>
      <point x="470" y="0"/>
      <point x="488" y="18"/>
      <point x="488" y="68" type="curve" smooth="yes"/>
      <point x="488" y="118"/>
      <point x="470" y="136"/>
      <point x="425" y="136" type="curve" smooth="yes"/>
      <point x="329" y="136" type="line"/>
      <point x="329" y="1051" type="line"/>
      <point x="415" y="1051" type="line" smooth="yes"/>
      <point x="460" y="1051"/>
      <point x="478" y="1069"/>
      <point x="478" y="1119" type="curve" smooth="yes"/>
      <point x="478" y="1169"/>
      <point x="460" y="1187"/>
      <point x="415" y="1187" type="curve" smooth="yes"/>
    </contour>
  </outline>
</glyph>
<glyph name="ij" format="1">
  <advance width="1228"/>
  <unicode hex="0133"/>
  <outline>
    <contour>
      <point x="700" y="924" type="line" smooth="yes"/>
      <point x="655" y="924"/>
      <point x="637" y="906"/>
      <point x="637" y="856" type="curve" smooth="yes"/>
      <point x="637" y="806"/>
      <point x="655" y="788"/>
      <point x="700" y="788" type="curve" smooth="yes"/>
      <point x="923" y="788" type="line"/>
      <point x="923" y="-49" type="line" smooth="yes"/>
      <point x="923" y="-196"/>
      <point x="880" y="-269"/>
      <point x="746" y="-269" type="curve" smooth="yes"/>
      <point x="663" y="-269"/>
      <point x="587" y="-246"/>
      <point x="510" y="-204" type="curve" smooth="yes"/>
      <point x="499" y="-198"/>
      <point x="489" y="-196"/>
      <point x="479" y="-196" type="curve" smooth="yes"/>
      <point x="440" y="-196"/>
      <point x="417" y="-256"/>
      <point x="417" y="-293" type="curve" smooth="yes"/>
      <point x="417" y="-315"/>
      <point x="430" y="-331"/>
      <point x="451" y="-342" type="curve" smooth="yes"/>
      <point x="528" y="-383"/>
      <point x="639" y="-415"/>
      <point x="746" y="-415" type="curve" smooth="yes"/>
      <point x="978" y="-415"/>
      <point x="1073" y="-291"/>
      <point x="1073" y="-62" type="curve" smooth="yes"/>
      <point x="1073" y="856" type="line" smooth="yes"/>
      <point x="1073" y="906"/>
      <point x="1055" y="924"/>
      <point x="1010" y="924" type="curve" smooth="yes"/>
    </contour>
    <contour>
      <point x="160" y="924" type="line" smooth="yes"/>
      <point x="115" y="924"/>
      <point x="97" y="906"/>
      <point x="97" y="856" type="curve" smooth="yes"/>
      <point x="97" y="806"/>
      <point x="115" y="788"/>
      <point x="160" y="788" type="curve" smooth="yes"/>
      <point x="283" y="788" type="line"/>
      <point x="283" y="136" type="line"/>
      <point x="120" y="136" type="line" smooth="yes"/>
      <point x="75" y="136"/>
      <point x="57" y="118"/>
      <point x="57" y="68" type="curve" smooth="yes"/>
      <point x="57" y="18"/>
      <point x="75" y="0"/>
      <point x="120" y="0" type="curve" smooth="yes"/>
      <point x="604" y="0" type="line" smooth="yes"/>
      <point x="649" y="0"/>
      <point x="667" y="18"/>
      <point x="667" y="68" type="curve" smooth="yes"/>
      <point x="667" y="118"/>
      <point x="649" y="136"/>
      <point x="604" y="136" type="curve" smooth="yes"/>
      <point x="433" y="136" type="line"/>
      <point x="433" y="856" type="line" smooth="yes"/>
      <point x="433" y="906"/>
      <point x="415" y="924"/>
      <point x="370" y="924" type="curve" smooth="yes"/>
    </contour>
    <contour>
      <point x="262" y="1363"/>
      <point x="243" y="1344"/>
      <point x="243" y="1298" type="curve" smooth="yes"/>
      <point x="243" y="1168" type="line" smooth="yes"/>
      <point x="243" y="1122"/>
      <point x="262" y="1103"/>
      <point x="338" y="1103" type="curve" smooth="yes"/>
      <point x="414" y="1103"/>
      <point x="433" y="1122"/>
      <point x="433" y="1168" type="curve" smooth="yes"/>
      <point x="433" y="1298" type="line" smooth="yes"/>
      <point x="433" y="1344"/>
      <point x="414" y="1363"/>
      <point x="338" y="1363" type="curve" smooth="yes"/>
    </contour>
    <contour>
      <point x="902" y="1363"/>
      <point x="883" y="1344"/>
      <point x="883" y="1298" type="curve" smooth="yes"/>
      <point x="883" y="1168" type="line" smooth="yes"/>
      <point x="883" y="1122"/>
      <point x="902" y="1103"/>
      <point x="978" y="1103" type="curve" smooth="yes"/>
      <point x="1054" y="1103"/>
      <point x="1073" y="1122"/>
      <point x="1073" y="1168" type="curve" smooth="yes"/>
      <point x="1073" y="1298" type="line" smooth="yes"/>
      <point x="1073" y="1344"/>
      <point x="1054" y="1363"/>
      <point x="978" y="1363" type="curve" smooth="yes"/>
    </contour>
  </outline>
</glyph>
<glyph name="Ldot" format="1">
  <advance width="1228"/>
  <unicode hex="013F"/>
  <outline>
    <contour>
      <point x="143" y="1187" type="line" smooth="yes"/>
      <point x="98" y="1187"/>
      <point x="80" y="1169"/>
      <point x="80" y="1119" type="curve" smooth="yes"/>
      <point x="80" y="1069"/>
      <point x="98" y="1051"/>
      <point x="143" y="1051" type="curve" smooth="yes"/>
      <point x="305" y="1051" type="line"/>
      <point x="305" y="136" type="line"/>
      <point x="143" y="136" type="line" smooth="yes"/>
      <point x="98" y="136"/>
      <point x="80" y="118"/>
      <point x="80" y="68" type="curve" smooth="yes"/>
      <point x="80" y="18"/>
      <point x="98" y="0"/>
      <point x="143" y="0" type="curve" smooth="yes"/>
      <point x="1037" y="0" type="line" smooth="yes"/>
      <point x="1082" y="0"/>
      <point x="1100" y="18"/>
      <point x="1100" y="68" type="curve" smooth="yes"/>
      <point x="1100" y="465" type="line" smooth="yes"/>
      <point x="1100" y="511"/>
      <point x="1081" y="530"/>
      <point x="1025" y="530" type="curve" smooth="yes"/>
      <point x="969" y="530"/>
      <point x="950" y="511"/>
      <point x="950" y="465" type="curve" smooth="yes"/>
      <point x="950" y="136" type="line"/>
      <point x="455" y="136" type="line"/>
      <point x="455" y="1051" type="line"/>
      <point x="697" y="1051" type="line" smooth="yes"/>
      <point x="742" y="1051"/>
      <point x="760" y="1069"/>
      <point x="760" y="1119" type="curve" smooth="yes"/>
      <point x="760" y="1169"/>
      <point x="742" y="1187"/>
      <point x="697" y="1187" type="curve" smooth="yes"/>
    </contour>
    <contour>
      <point x="666" y="851"/>
      <point x="603" y="788"/>
      <point x="603" y="710" type="curve" smooth="yes"/>
      <point x="603" y="632"/>
      <point x="666" y="569"/>
      <point x="744" y="569" type="curve" smooth="yes"/>
      <point x="822" y="569"/>
      <point x="885" y="632"/>
      <point x="885" y="710" type="curve" smooth="yes"/>
      <point x="885" y="788"/>
      <point x="822" y="851"/>
      <point x="744" y="851" type="curve" smooth="yes"/>
    </contour>
  </outline>
</glyph>
<glyph name="Lslash" format="1">
  <advance width="1228"/>
  <unicode hex="0141"/>
  <outline>
    <contour>
      <point x="305" y="136" type="line"/>
      <point x="143" y="136" type="line" smooth="yes"/>
      <point x="98" y="136"/>
      <point x="80" y="118"/>
      <point x="80" y="68" type="curve" smooth="yes"/>
      <point x="80" y="18"/>
      <point x="98" y="0"/>
      <point x="143" y="0" type="curve" smooth="yes"/>
      <point x="1037" y="0" type="line" smooth="yes"/>
      <point x="1082" y="0"/>
      <point x="1100" y="18"/>
      <point x="1100" y="68" type="curve" smooth="yes"/>
      <point x="1100" y="465" type="line" smooth="yes"/>
      <point x="1100" y="511"/>
      <point x="1081" y="530"/>
      <point x="1025" y="530" type="curve" smooth="yes"/>
      <point x="969" y="530"/>
      <point x="950" y="511"/>
      <point x="950" y="465" type="curve" smooth="yes"/>
      <point x="950" y="136" type="line"/>
      <point x="455" y="136" type="line"/>
      <point x="455" y="550" type="line"/>
      <point x="738" y="743" type="line" smooth="yes"/>
      <point x="775" y="768"/>
      <point x="780" y="793"/>
      <point x="752" y="834" type="curve" smooth="yes"/>
      <point x="724" y="876"/>
      <point x="698" y="880"/>
      <point x="661" y="855" type="curve" smooth="yes"/>
      <point x="455" y="715" type="line"/>
      <point x="455" y="1051" type="line"/>
      <point x="697" y="1051" type="line" smooth="yes"/>
      <point x="742" y="1051"/>
      <point x="760" y="1069"/>
      <point x="760" y="1119" type="curve" smooth="yes"/>
      <point x="760" y="1169"/>
      <point x="742" y="1187"/>
      <point x="697" y="1187" type="curve" smooth="yes"/>
      <point x="143" y="1187" type="line" smooth="yes"/>
      <point x="98" y="1187"/>
      <point x="80" y="1169"/>
      <point x="80" y="1119" type="curve" smooth="yes"/>
      <point x="80" y="1069"/>
      <point x="98" y="1051"/>
      <point x="143" y="1051" type="curve" smooth="yes"/>
      <point x="305" y="1051" type="line"/>
      <point x="305" y="613" type="line"/>
      <point x="92" y="468" type="line" smooth="yes"/>
      <point x="55" y="443"/>
      <point x="50" y="418"/>
      <point x="78" y="377" type="curve" smooth="yes"/>
      <point x="106" y="335"/>
      <point x="132" y="331"/>
      <point x="169" y="356" type="curve" smooth="yes"/>
      <point x="305" y="448" type="line"/>
    </contour>
  </outline>
</glyph>
<glyph name="lslash" format="1">
  <advance width="1228"/>
  <unicode hex="0142"/>
  <outline>
    <contour>
      <point x="553" y="136" type="line"/>
      <point x="240" y="136" type="line" smooth="yes"/>
      <point x="195" y="136"/>
      <point x="177" y="118"/>
      <point x="177" y="68" type="curve" smooth="yes"/>
      <point x="177" y="18"/>
      <point x="195" y="0"/>
      <point x="240" y="0" type="curve" smooth="yes"/>
      <point x="1024" y="0" type="line" smooth="yes"/>
      <point x="1069" y="0"/>
      <point x="1087" y="18"/>
      <point x="1087" y="68" type="curve" smooth="yes"/>
      <point x="1087" y="118"/>
      <point x="1069" y="136"/>
      <point x="1024" y="136" type="curve" smooth="yes"/>
      <point x="703" y="136" type="line"/>
      <point x="703" y="659" type="line"/>
      <point x="947" y="825" type="line" smooth="yes"/>
      <point x="984" y="850"/>
      <point x="989" y="875"/>
      <point x="961" y="916" type="curve" smooth="yes"/>
      <point x="933" y="958"/>
      <point x="907" y="962"/>
      <point x="870" y="937" type="curve" smooth="yes"/>
      <point x="703" y="823" type="line"/>
      <point x="703" y="1244" type="line" smooth="yes"/>
      <point x="703" y="1294"/>
      <point x="685" y="1312"/>
      <point x="640" y="1312" type="curve" smooth="yes"/>
      <point x="280" y="1312" type="line" smooth="yes"/>
      <point x="235" y="1312"/>
      <point x="217" y="1294"/>
      <point x="217" y="1244" type="curve" smooth="yes"/>
      <point x="217" y="1194"/>
      <point x="235" y="1176"/>
      <point x="280" y="1176" type="curve" smooth="yes"/>
      <point x="553" y="1176" type="line"/>
      <point x="553" y="721" type="line"/>
      <point x="301" y="550" type="line" smooth="yes"/>
      <point x="264" y="525"/>
      <point x="259" y="500"/>
      <point x="287" y="459" type="curve" smooth="yes"/>
      <point x="315" y="417"/>
      <point x="341" y="413"/>
      <point x="378" y="438" type="curve" smooth="yes"/>
      <point x="553" y="557" type="line"/>
    </contour>
  </outline>
</glyph>
<glyph name="Eng" format="1">
  <advance width="1228"/>
  <unicode hex="014A"/>
  <outline>
    <contour>
      <point x="888" y="193" type="line"/>
      <point x="888" y="-112" type="line" smooth="yes"/>
      <point x="888" y="-225"/>
      <point x="848" y="-269"/>
      <point x="766" y="-269" type="curve" smooth="yes"/>
      <point x="706" y="-269"/>
      <point x="642" y="-251"/>
      <point x="589" y="-229" type="curve" smooth="yes"/>
      <point x="560" y="-217"/>
      <point x="529" y="-217"/>
      <point x="506" y="-270" type="curve" smooth="yes"/>
      <point x="484" y="-320"/>
      <point x="496" y="-348"/>
      <point x="534" y="-365" type="curve" smooth="yes"/>
      <point x="602" y="-395"/>
      <point x="685" y="-415"/>
      <point x="765" y="-415" type="curve" smooth="yes"/>
      <point x="941" y="-415"/>
      <point x="1038" y="-319"/>
      <point x="1038" y="-140" type="curve" smooth="yes"/>
      <point x="1038" y="193" type="line"/>
    </contour>
    <component base="N"/>
  </outline>
</glyph>
<glyph name="eng" format="1">
  <advance width="1228"/>
  <unicode hex="014B"/>
  <outline>
    <contour>
      <point x="611" y="946"/>
      <point x="490" y="872"/>
      <point x="402" y="736" type="curve"/>
      <point x="402" y="856" type="line" smooth="yes"/>
      <point x="402" y="906"/>
      <point x="384" y="924"/>
      <point x="339" y="924" type="curve" smooth="yes"/>
      <point x="160" y="924" type="line" smooth="yes"/>
      <point x="115" y="924"/>
      <point x="97" y="906"/>
      <point x="97" y="856" type="curve" smooth="yes"/>
      <point x="97" y="806"/>
      <point x="115" y="788"/>
      <point x="160" y="788" type="curve" smooth="yes"/>
      <point x="262" y="788" type="line"/>
      <point x="262" y="136" type="line"/>
      <point x="180" y="136" type="line" smooth="yes"/>
      <point x="135" y="136"/>
      <point x="117" y="118"/>
      <point x="117" y="68" type="curve" smooth="yes"/>
      <point x="117" y="18"/>
      <point x="135" y="0"/>
      <point x="180" y="0" type="curve" smooth="yes"/>
      <point x="504" y="0" type="line" smooth="yes"/>
      <point x="549" y="0"/>
      <point x="567" y="18"/>
      <point x="567" y="68" type="curve" smooth="yes"/>
      <point x="567" y="118"/>
      <point x="549" y="136"/>
      <point x="504" y="136" type="curve" smooth="yes"/>
      <point x="412" y="136" type="line"/>
      <point x="412" y="422" type="line" smooth="yes"/>
      <point x="412" y="640"/>
      <point x="561" y="798"/>
      <point x="732" y="798" type="curve" smooth="yes"/>
      <point x="841" y="798"/>
      <point x="894" y="720"/>
      <point x="894" y="605" type="curve" smooth="yes"/>
      <point x="894" y="-107" type="line" smooth="yes"/>
      <point x="894" y="-220"/>
      <point x="854" y="-264"/>
      <point x="772" y="-264" type="curve" smooth="yes"/>
      <point x="712" y="-264"/>
      <point x="648" y="-246"/>
      <point x="595" y="-224" type="curve" smooth="yes"/>
      <point x="566" y="-212"/>
      <point x="535" y="-212"/>
      <point x="512" y="-265" type="curve" smooth="yes"/>
      <point x="490" y="-315"/>
      <point x="502" y="-343"/>
      <point x="540" y="-360" type="curve" smooth="yes"/>
      <point x="608" y="-390"/>
      <point x="691" y="-410"/>
      <point x="771" y="-410" type="curve" smooth="yes"/>
      <point x="947" y="-410"/>
      <point x="1044" y="-314"/>
      <point x="1044" y="-135" type="curve" smooth="yes"/>
      <point x="1044" y="620" type="line" smooth="yes"/>
      <point x="1044" y="820"/>
      <point x="931" y="946"/>
      <point x="747" y="946" type="curve" smooth="yes"/>
    </contour>
  </outline>
</glyph>
<glyph name="OE" format="1">
  <advance width="1228"/>
  <unicode hex="0152"/>
  <outline>
    <contour>
      <point x="574" y="1187" type="line" smooth="yes"/>
      <point x="264" y="1187"/>
      <point x="62" y="963"/>
      <point x="62" y="593" type="curve" smooth="yes"/>
      <point x="62" y="223"/>
      <point x="264" y="0"/>
      <point x="574" y="0" type="curve" smooth="yes"/>
      <point x="1075" y="0" type="line" smooth="yes"/>
      <point x="1120" y="0"/>
      <point x="1138" y="18"/>
      <point x="1138" y="68" type="curve" smooth="yes"/>
      <point x="1138" y="365" type="line" smooth="yes"/>
      <point x="1138" y="411"/>
      <point x="1119" y="430"/>
      <point x="1063" y="430" type="curve" smooth="yes"/>
      <point x="1007" y="430"/>
      <point x="988" y="411"/>
      <point x="988" y="365" type="curve" smooth="yes"/>
      <point x="988" y="136" type="line"/>
      <point x="716" y="136" type="line"/>
      <point x="716" y="549" type="line"/>
      <point x="908" y="549" type="line" smooth="yes"/>
      <point x="953" y="549"/>
      <point x="971" y="567"/>
      <point x="971" y="617" type="curve" smooth="yes"/>
      <point x="971" y="667"/>
      <point x="953" y="685"/>
      <point x="908" y="685" type="curve" smooth="yes"/>
      <point x="716" y="685" type="line"/>
      <point x="716" y="1051" type="line"/>
      <point x="976" y="1051" type="line"/>
      <point x="976" y="865" type="line" smooth="yes"/>
      <point x="976" y="819"/>
      <point x="995" y="800"/>
      <point x="1051" y="800" type="curve" smooth="yes"/>
      <point x="1107" y="800"/>
      <point x="1126" y="819"/>
      <point x="1126" y="865" type="curve" smooth="yes"/>
      <point x="1126" y="1119" type="line" smooth="yes"/>
      <point x="1126" y="1169"/>
      <point x="1108" y="1187"/>
      <point x="1063" y="1187" type="curve" smooth="yes"/>
    </contour>
    <contour>
      <point x="566" y="136" type="line"/>
      <point x="357" y="144"/>
      <point x="220" y="302"/>
      <point x="220" y="593" type="curve" smooth="yes"/>
      <point x="220" y="884"/>
      <point x="357" y="1043"/>
      <point x="566" y="1050" type="curve"/>
    </contour>
  </outline>
</glyph>
<glyph name="Scedilla" format="1">
  <advance width="1228"/>
  <unicode hex="015E"/>
  <outline>
    <contour>
      <point x="549" y="-175" type="line" smooth="yes"/>
      <point x="549" y="-213"/>
      <point x="570" y="-218"/>
      <point x="589" y="-217" type="curve" smooth="yes"/>
      <point x="681" y="-210"/>
      <point x="734" y="-229"/>
      <point x="734" y="-285" type="curve" smooth="yes"/>
      <point x="734" y="-327"/>
      <point x="697" y="-352"/>
      <point x="631" y="-352" type="curve" smooth="yes"/>
      <point x="564" y="-352"/>
      <point x="490" y="-338"/>
      <point x="438" y="-318" type="curve" smooth="yes"/>
      <point x="413" y="-308"/>
      <point x="390" y="-330"/>
      <point x="379" y="-356" type="curve" smooth="yes"/>
      <point x="368" y="-382"/>
      <point x="370" y="-413"/>
      <point x="394" y="-424" type="curve" smooth="yes"/>
      <point x="463" y="-456"/>
      <point x="552" y="-472"/>
      <point x="641" y="-472" type="curve" smooth="yes"/>
      <point x="808" y="-472"/>
      <point x="890" y="-393"/>
      <point x="890" y="-281" type="curve" smooth="yes"/>
      <point x="890" y="-187"/>
      <point x="822" y="-110"/>
      <point x="684" y="-113" type="curve"/>
      <point x="684" y="-21" type="line"/>
      <point x="931" y="-7"/>
      <point x="1065" y="132"/>
      <point x="1065" y="327" type="curve" smooth="yes"/>
      <point x="1065" y="506"/>
      <point x="972" y="591"/>
      <point x="852" y="640" type="curve" smooth="yes"/>
      <point x="703" y="700"/>
      <point x="514" y="703"/>
      <point x="408" y="756" type="curve" smooth="yes"/>
      <point x="359" y="781"/>
      <point x="327" y="816"/>
      <point x="327" y="873" type="curve" smooth="yes"/>
      <point x="327" y="985"/>
      <point x="409" y="1061"/>
      <point x="558" y="1061" type="curve" smooth="yes"/>
      <point x="704" y="1061"/>
      <point x="826" y="998"/>
      <point x="891" y="875" type="curve" smooth="yes"/>
      <point x="901" y="857"/>
      <point x="919" y="849"/>
      <point x="943" y="849" type="curve" smooth="yes"/>
      <point x="999" y="849"/>
      <point x="1018" y="868"/>
      <point x="1018" y="914" type="curve" smooth="yes"/>
      <point x="1018" y="1144" type="line" smooth="yes"/>
      <point x="1018" y="1190"/>
      <point x="999" y="1209"/>
      <point x="943" y="1209" type="curve" smooth="yes"/>
      <point x="887" y="1209"/>
      <point x="868" y="1190"/>
      <point x="868" y="1144" type="curve" smooth="yes"/>
      <point x="868" y="1083" type="line"/>
      <point x="792" y="1158"/>
      <point x="678" y="1209"/>
      <point x="558" y="1209" type="curve" smooth="yes"/>
      <point x="331" y="1209"/>
      <point x="169" y="1082"/>
      <point x="169" y="873" type="curve" smooth="yes"/>
      <point x="169" y="732"/>
      <point x="240" y="658"/>
      <point x="338" y="614" type="curve" smooth="yes"/>
      <point x="474" y="553"/>
      <point x="662" y="547"/>
      <point x="784" y="495" type="curve" smooth="yes"/>
      <point x="858" y="463"/>
      <point x="907" y="415"/>
      <point x="907" y="327" type="curve" smooth="yes"/>
      <point x="907" y="209"/>
      <point x="817" y="126"/>
      <point x="642" y="126" type="curve" smooth="yes"/>
      <point x="467" y="126"/>
      <point x="345" y="212"/>
      <point x="291" y="366" type="curve" smooth="yes"/>
      <point x="281" y="394"/>
      <point x="262" y="408"/>
      <point x="233" y="408" type="curve" smooth="yes"/>
      <point x="177" y="408"/>
      <point x="158" y="389"/>
      <point x="158" y="343" type="curve" smooth="yes"/>
      <point x="158" y="43" type="line" smooth="yes"/>
      <point x="158" y="-3"/>
      <point x="177" y="-22"/>
      <point x="233" y="-22" type="curve" smooth="yes"/>
      <point x="289" y="-22"/>
      <point x="308" y="-3"/>
      <point x="308" y="43" type="curve" smooth="yes"/>
      <point x="308" y="121" type="line"/>
      <point x="372" y="49"/>
      <point x="454" y="4"/>
      <point x="549" y="-13" type="curve"/>
    </contour>
  </outline>
</glyph>
<glyph name="tbar" format="1">
  <advance width="1228"/>
  <unicode hex="0167"/>
  <outline>
    <contour>
      <point x="243" y="576" type="line" smooth="yes"/>
      <point x="198" y="576"/>
      <point x="180" y="558"/>
      <point x="180" y="508" type="curve" smooth="yes"/>
      <point x="180" y="458"/>
      <point x="198" y="440"/>
      <point x="243" y="440" type="curve" smooth="yes"/>
      <point x="805" y="440" type="line" smooth="yes"/>
      <point x="850" y="440"/>
      <point x="868" y="458"/>
      <point x="868" y="508" type="curve" smooth="yes"/>
      <point x="868" y="558"/>
      <point x="850" y="576"/>
      <point x="805" y="576" type="curve" smooth="yes"/>
    </contour>
    <component base="t"/>
  </outline>
</glyph>
<glyph name="florin" format="1">
  <advance width="1228"/>
  <unicode hex="0192"/>
  <outline>
    <contour>
      <point x="340" y="844" type="line" smooth="yes"/>
      <point x="295" y="844"/>
      <point x="277" y="826"/>
      <point x="277" y="776" type="curve" smooth="yes"/>
      <point x="277" y="726"/>
      <point x="295" y="708"/>
      <point x="340" y="708" type="curve" smooth="yes"/>
      <point x="537" y="708" type="line"/>
      <point x="471" y="54" type="line" smooth="yes"/>
      <point x="458" y="-74"/>
      <point x="400" y="-133"/>
      <point x="300" y="-133" type="curve" smooth="yes"/>
      <point x="237" y="-133"/>
      <point x="181" y="-124"/>
      <point x="118" y="-104" type="curve" smooth="yes"/>
      <point x="83" y="-93"/>
      <point x="54" y="-105"/>
      <point x="39" y="-160" type="curve" smooth="yes"/>
      <point x="24" y="-214"/>
      <point x="39" y="-237"/>
      <point x="74" y="-248" type="curve" smooth="yes"/>
      <point x="140" y="-269"/>
      <point x="215" y="-279"/>
      <point x="285" y="-279" type="curve" smooth="yes"/>
      <point x="474" y="-279"/>
      <point x="598" y="-164"/>
      <point x="619" y="41" type="curve" smooth="yes"/>
      <point x="686" y="708" type="line"/>
      <point x="934" y="708" type="line" smooth="yes"/>
      <point x="979" y="708"/>
      <point x="997" y="726"/>
      <point x="997" y="776" type="curve" smooth="yes"/>
      <point x="997" y="826"/>
      <point x="979" y="844"/>
      <point x="934" y="844" type="curve" smooth="yes"/>
      <point x="700" y="844" type="line"/>
      <point x="714" y="984" type="line" smooth="yes"/>
      <point x="727" y="1112"/>
      <point x="785" y="1171"/>
      <point x="885" y="1171" type="curve" smooth="yes"/>
      <point x="948" y="1171"/>
      <point x="1004" y="1162"/>
      <point x="1067" y="1142" type="curve" smooth="yes"/>
      <point x="1102" y="1131"/>
      <point x="1131" y="1143"/>
      <point x="1146" y="1198" type="curve" smooth="yes"/>
      <point x="1161" y="1252"/>
      <point x="1146" y="1275"/>
      <point x="1111" y="1286" type="curve" smooth="yes"/>
      <point x="1045" y="1307"/>
      <point x="970" y="1317"/>
      <point x="900" y="1317" type="curve" smooth="yes"/>
      <point x="711" y="1317"/>
      <point x="587" y="1202"/>
      <point x="566" y="997" type="curve" smooth="yes"/>
      <point x="550" y="844" type="line"/>
    </contour>
  </outline>
</glyph>
<glyph name="circumflex" format="1">
  <advance width="1228"/>
  <unicode hex="02C6"/>
  <outline>
    <contour>
      <point x="614" y="1198" type="line"/>
      <point x="893" y="1039" type="line" smooth="yes"/>
      <point x="916" y="1026"/>
      <point x="939" y="1039"/>
      <point x="952" y="1060" type="curve" smooth="yes"/>
      <point x="965" y="1081"/>
      <point x="967" y="1108"/>
      <point x="946" y="1126" type="curve" smooth="yes"/>
      <point x="669" y="1358" type="line" smooth="yes"/>
      <point x="654" y="1370"/>
      <point x="635" y="1376"/>
      <point x="614" y="1376" type="curve" smooth="yes"/>
      <point x="593" y="1376"/>
      <point x="574" y="1370"/>
      <point x="559" y="1358" type="curve" smooth="yes"/>
      <point x="282" y="1126" type="line" smooth="yes"/>
      <point x="261" y="1108"/>
      <point x="263" y="1081"/>
      <point x="276" y="1060" type="curve" smooth="yes"/>
      <point x="289" y="1039"/>
      <point x="312" y="1026"/>
      <point x="335" y="1039" type="curve" smooth="yes"/>
    </contour>
  </outline>
</glyph>
<glyph name="dotaccent" format="1">
  <advance width="1228"/>
  <unicode hex="02D9"/>
  <outline>
    <contour>
      <point x="473" y="1142"/>
      <point x="536" y="1079"/>
      <point x="614" y="1079" type="curve" smooth="yes"/>
      <point x="692" y="1079"/>
      <point x="755" y="1142"/>
      <point x="755" y="1220" type="curve" smooth="yes"/>
      <point x="755" y="1298"/>
      <point x="692" y="1361"/>
      <point x="614" y="1361" type="curve" smooth="yes"/>
      <point x="536" y="1361"/>
      <point x="473" y="1298"/>
      <point x="473" y="1220" type="curve" smooth="yes"/>
    </contour>
  </outline>
</glyph>
<glyph name="ring" format="1">
  <advance width="1228"/>
  <unicode hex="02DA"/>
  <outline>
    <contour>
      <point x="478" y="1557"/>
      <point x="368" y="1447"/>
      <point x="368" y="1311" type="curve" smooth="yes"/>
      <point x="368" y="1175"/>
      <point x="478" y="1065"/>
      <point x="614" y="1065" type="curve" smooth="yes"/>
      <point x="750" y="1065"/>
      <point x="860" y="1175"/>
      <point x="860" y="1311" type="curve" smooth="yes"/>
      <point x="860" y="1447"/>
      <point x="750" y="1557"/>
      <point x="614" y="1557" type="curve" smooth="yes"/>
    </contour>
    <contour>
      <point x="684" y="1437"/>
      <point x="740" y="1381"/>
      <point x="740" y="1311" type="curve" smooth="yes"/>
      <point x="740" y="1241"/>
      <point x="684" y="1185"/>
      <point x="614" y="1185" type="curve" smooth="yes"/>
      <point x="544" y="1185"/>
      <point x="488" y="1241"/>
      <point x="488" y="1311" type="curve" smooth="yes"/>
      <point x="488" y="1381"/>
      <point x="544" y="1437"/>
      <point x="614" y="1437" type="curve" smooth="yes"/>
    </contour>
  </outline>
</glyph>
<glyph name="hungarumlaut" format="1">
  <advance width="1228"/>
  <unicode hex="02DD"/>
  <outline>
    <contour>
      <point x="967" y="1383"/>
      <point x="945" y="1372"/>
      <point x="928" y="1355" type="curve" smooth="yes"/>
      <point x="695" y="1130" type="line" smooth="yes"/>
      <point x="686" y="1121"/>
      <point x="682" y="1111"/>
      <point x="682" y="1101" type="curve" smooth="yes"/>
      <point x="682" y="1072"/>
      <point x="717" y="1053"/>
      <point x="743" y="1053" type="curve" smooth="yes"/>
      <point x="759" y="1053"/>
      <point x="774" y="1058"/>
      <point x="785" y="1066" type="curve" smooth="yes"/>
      <point x="1073" y="1267" type="line" smooth="yes"/>
      <point x="1086" y="1276"/>
      <point x="1095" y="1291"/>
      <point x="1095" y="1307" type="curve" smooth="yes"/>
      <point x="1095" y="1348"/>
      <point x="1031" y="1383"/>
      <point x="993" y="1383" type="curve" smooth="yes"/>
    </contour>
    <contour>
      <point x="617" y="1383"/>
      <point x="595" y="1372"/>
      <point x="578" y="1355" type="curve" smooth="yes"/>
      <point x="345" y="1130" type="line" smooth="yes"/>
      <point x="336" y="1121"/>
      <point x="332" y="1111"/>
      <point x="332" y="1101" type="curve" smooth="yes"/>
      <point x="332" y="1072"/>
      <point x="367" y="1053"/>
      <point x="393" y="1053" type="curve" smooth="yes"/>
      <point x="409" y="1053"/>
      <point x="424" y="1058"/>
      <point x="435" y="1066" type="curve" smooth="yes"/>
      <point x="723" y="1267" type="line" smooth="yes"/>
      <point x="736" y="1276"/>
      <point x="745" y="1291"/>
      <point x="745" y="1307" type="curve" smooth="yes"/>
      <point x="745" y="1348"/>
      <point x="681" y="1383"/>
      <point x="643" y="1383" type="curve" smooth="yes"/>
    </contour>
  </outline>
</glyph>
<glyph name="uni0326" format="1">
  <advance width="1228"/>
  <unicode hex="0326"/>
  <outline>
    <contour>
      <point x="728" y="-197" type="line" smooth="yes"/>
      <point x="743" y="-169"/>
      <point x="733" y="-146"/>
      <point x="706" y="-146" type="curve" smooth="yes"/>
      <point x="564" y="-146" type="line" smooth="yes"/>
      <point x="542" y="-146"/>
      <point x="526" y="-157"/>
      <point x="522" y="-178" type="curve" smooth="yes"/>
      <point x="460" y="-469" type="line" smooth="yes"/>
      <point x="453" y="-503"/>
      <point x="472" y="-525"/>
      <point x="509" y="-525" type="curve" smooth="yes"/>
      <point x="537" y="-525"/>
      <point x="562" y="-510"/>
      <point x="574" y="-488" type="curve" smooth="yes"/>
    </contour>
  </outline>
</glyph>
<glyph name="Delta" format="1">
  <advance width="1228"/>
  <unicode hex="0394"/>
  <outline>
    <contour>
      <point x="564" y="1209"/>
      <point x="531" y="1191"/>
      <point x="514" y="1144" type="curve" smooth="yes"/>
      <point x="163" y="136" type="line"/>
      <point x="83" y="136" type="line" smooth="yes"/>
      <point x="38" y="136"/>
      <point x="20" y="118"/>
      <point x="20" y="68" type="curve" smooth="yes"/>
      <point x="20" y="18"/>
      <point x="38" y="0"/>
      <point x="83" y="0" type="curve" smooth="yes"/>
      <point x="1145" y="0" type="line" smooth="yes"/>
      <point x="1190" y="0"/>
      <point x="1208" y="18"/>
      <point x="1208" y="68" type="curve" smooth="yes"/>
      <point x="1208" y="118"/>
      <point x="1190" y="136"/>
      <point x="1145" y="136" type="curve" smooth="yes"/>
      <point x="1064" y="136" type="line"/>
      <point x="718" y="1144" type="line" smooth="yes"/>
      <point x="702" y="1190"/>
      <point x="670" y="1209"/>
      <point x="617" y="1209" type="curve" smooth="yes"/>
    </contour>
    <contour>
      <point x="907" y="136" type="line"/>
      <point x="321" y="136" type="line"/>
      <point x="615" y="1022" type="line"/>
      <point x="617" y="1022" type="line"/>
    </contour>
  </outline>
</glyph>
<glyph name="mu" format="1">
  <advance width="1228"/>
  <unicode hex="03BC"/>
  <outline>
    <contour>
      <point x="944" y="934" type="line" smooth="yes"/>
      <point x="888" y="934"/>
      <point x="870" y="915"/>
      <point x="870" y="869" type="curve" smooth="yes"/>
      <point x="870" y="502" type="line" smooth="yes"/>
      <point x="870" y="292"/>
      <point x="701" y="126"/>
      <point x="550" y="126" type="curve" smooth="yes"/>
      <point x="421" y="126"/>
      <point x="368" y="204"/>
      <point x="368" y="319" type="curve" smooth="yes"/>
      <point x="368" y="869" type="line" smooth="yes"/>
      <point x="368" y="915"/>
      <point x="350" y="934"/>
      <point x="294" y="934" type="curve" smooth="yes"/>
      <point x="292" y="934" type="line" smooth="yes"/>
      <point x="236" y="934"/>
      <point x="218" y="915"/>
      <point x="218" y="869" type="curve" smooth="yes"/>
      <point x="218" y="-333" type="line" smooth="yes"/>
      <point x="218" y="-379"/>
      <point x="236" y="-398"/>
      <point x="292" y="-398" type="curve" smooth="yes"/>
      <point x="294" y="-398" type="line" smooth="yes"/>
      <point x="350" y="-398"/>
      <point x="368" y="-379"/>
      <point x="368" y="-333" type="curve" smooth="yes"/>
      <point x="368" y="25" type="line"/>
      <point x="412" y="-6"/>
      <point x="470" y="-22"/>
      <point x="535" y="-22" type="curve" smooth="yes"/>
      <point x="675" y="-22"/>
      <point x="800" y="74"/>
      <point x="880" y="198" type="curve"/>
      <point x="880" y="55" type="line" smooth="yes"/>
      <point x="880" y="9"/>
      <point x="896" y="-10"/>
      <point x="949" y="-10" type="curve" smooth="yes"/>
      <point x="951" y="-10" type="line" smooth="yes"/>
      <point x="1004" y="-10"/>
      <point x="1020" y="9"/>
      <point x="1020" y="55" type="curve" smooth="yes"/>
      <point x="1020" y="869" type="line" smooth="yes"/>
      <point x="1020" y="915"/>
      <point x="1002" y="934"/>
      <point x="946" y="934" type="curve" smooth="yes"/>
    </contour>
  </outline>
</glyph>
<glyph name="pi" format="1">
  <advance width="1228"/>
  <unicode hex="03C0"/>
  <outline>
    <contour>
      <point x="161" y="924" type="line" smooth="yes"/>
      <point x="116" y="924"/>
      <point x="98" y="904"/>
      <point x="98" y="852" type="curve" smooth="yes"/>
      <point x="98" y="800"/>
      <point x="116" y="780"/>
      <point x="161" y="780" type="curve" smooth="yes"/>
      <point x="248" y="780" type="line"/>
      <point x="248" y="55" type="line" smooth="yes"/>
      <point x="248" y="9"/>
      <point x="266" y="-10"/>
      <point x="322" y="-10" type="curve" smooth="yes"/>
      <point x="324" y="-10" type="line" smooth="yes"/>
      <point x="380" y="-10"/>
      <point x="398" y="9"/>
      <point x="398" y="55" type="curve" smooth="yes"/>
      <point x="398" y="780" type="line"/>
      <point x="830" y="780" type="line"/>
      <point x="830" y="55" type="line" smooth="yes"/>
      <point x="830" y="9"/>
      <point x="848" y="-10"/>
      <point x="904" y="-10" type="curve" smooth="yes"/>
      <point x="906" y="-10" type="line" smooth="yes"/>
      <point x="962" y="-10"/>
      <point x="980" y="9"/>
      <point x="980" y="55" type="curve" smooth="yes"/>
      <point x="980" y="780" type="line"/>
      <point x="1067" y="780" type="line" smooth="yes"/>
      <point x="1112" y="780"/>
      <point x="1130" y="800"/>
      <point x="1130" y="852" type="curve" smooth="yes"/>
      <point x="1130" y="904"/>
      <point x="1112" y="924"/>
      <point x="1067" y="924" type="curve" smooth="yes"/>
    </contour>
  </outline>
</glyph>
<glyph name="quoteleft" format="1">
  <advance width="1228"/>
  <unicode hex="2018"/>
  <outline>
    <contour>
      <point x="690" y="1307"/>
      <point x="664" y="1292"/>
      <point x="650" y="1264" type="curve" smooth="yes"/>
      <point x="430" y="815" type="line" smooth="yes"/>
      <point x="413" y="780"/>
      <point x="425" y="752"/>
      <point x="458" y="752" type="curve" smooth="yes"/>
      <point x="633" y="752" type="line" smooth="yes"/>
      <point x="661" y="752"/>
      <point x="679" y="766"/>
      <point x="685" y="792" type="curve" smooth="yes"/>
      <point x="786" y="1238" type="line" smooth="yes"/>
      <point x="796" y="1280"/>
      <point x="769" y="1307"/>
      <point x="724" y="1307" type="curve" smooth="yes"/>
    </contour>
  </outline>
</glyph>
<glyph name="quotesinglbase" format="1">
  <advance width="1228"/>
  <unicode hex="201A"/>
  <outline>
    <contour>
      <point x="592" y="294" type="line" smooth="yes"/>
      <point x="564" y="294"/>
      <point x="546" y="280"/>
      <point x="540" y="254" type="curve" smooth="yes"/>
      <point x="439" y="-192" type="line" smooth="yes"/>
      <point x="429" y="-234"/>
      <point x="456" y="-261"/>
      <point x="501" y="-261" type="curve" smooth="yes"/>
      <point x="535" y="-261"/>
      <point x="561" y="-246"/>
      <point x="575" y="-218" type="curve" smooth="yes"/>
      <point x="795" y="231" type="line" smooth="yes"/>
      <point x="812" y="266"/>
      <point x="800" y="294"/>
      <point x="767" y="294" type="curve" smooth="yes"/>
    </contour>
  </outline>
</glyph>
<glyph name="quotedblleft" format="1">
  <advance width="1228"/>
  <unicode hex="201C"/>
  <outline>
    <contour>
      <point x="935" y="1307"/>
      <point x="909" y="1292"/>
      <point x="895" y="1264" type="curve" smooth="yes"/>
      <point x="675" y="815" type="line" smooth="yes"/>
      <point x="658" y="780"/>
      <point x="670" y="752"/>
      <point x="703" y="752" type="curve" smooth="yes"/>
      <point x="878" y="752" type="line" smooth="yes"/>
      <point x="906" y="752"/>
      <point x="924" y="766"/>
      <point x="930" y="792" type="curve" smooth="yes"/>
      <point x="1031" y="1238" type="line" smooth="yes"/>
      <point x="1041" y="1280"/>
      <point x="1014" y="1307"/>
      <point x="969" y="1307" type="curve" smooth="yes"/>
    </contour>
    <contour>
      <point x="445" y="1307"/>
      <point x="419" y="1292"/>
      <point x="405" y="1264" type="curve" smooth="yes"/>
      <point x="185" y="815" type="line" smooth="yes"/>
      <point x="168" y="780"/>
      <point x="180" y="752"/>
      <point x="213" y="752" type="curve" smooth="yes"/>
      <point x="388" y="752" type="line" smooth="yes"/>
      <point x="416" y="752"/>
      <point x="434" y="766"/>
      <point x="440" y="792" type="curve" smooth="yes"/>
      <point x="541" y="1238" type="line" smooth="yes"/>
      <point x="551" y="1280"/>
      <point x="524" y="1307"/>
      <point x="479" y="1307" type="curve" smooth="yes"/>
    </contour>
  </outline>
</glyph>
